<svg width="5128" height="618" viewBox="0 0 5128 618" fill="none" xmlns="http://www.w3.org/2000/svg">
<g filter="url(#filter0_d_205_384)">
<rect width="5120" height="610" fill="#2F3238"/>
<rect x="16.2676" y="27" width="26.2872" height="40" rx="6" fill="#D9D9D9"/>
<rect x="1425.26" y="27" width="26.2872" height="40" rx="6" fill="#D9D9D9"/>
<rect x="720.765" y="27" width="26.2872" height="40" rx="6" fill="#D9D9D9"/>
<rect x="2129.76" y="27" width="26.2872" height="40" rx="6" fill="#D9D9D9"/>
<rect x="192.392" y="27" width="26.2872" height="40" rx="6" fill="#D9D9D9"/>
<rect x="1601.39" y="27" width="26.2872" height="40" rx="6" fill="#D9D9D9"/>
<rect x="896.89" y="27" width="26.2872" height="40" rx="6" fill="#D9D9D9"/>
<rect x="2305.89" y="27" width="26.2872" height="40" rx="6" fill="#D9D9D9"/>
<rect x="74.9756" y="27" width="26.2872" height="40" rx="6" fill="#D9D9D9"/>
<rect x="1483.97" y="27" width="26.2872" height="40" rx="6" fill="#D9D9D9"/>
<rect x="779.473" y="27" width="26.2872" height="40" rx="6" fill="#D9D9D9"/>
<rect x="2188.47" y="27" width="26.2872" height="40" rx="6" fill="#D9D9D9"/>
<rect x="251.1" y="27" width="26.2872" height="40" rx="6" fill="#D9D9D9"/>
<rect x="1660.1" y="27" width="26.2872" height="40" rx="6" fill="#D9D9D9"/>
<rect x="955.598" y="27" width="26.2872" height="40" rx="6" fill="#D9D9D9"/>
<rect x="2364.59" y="27" width="26.2872" height="40" rx="6" fill="#D9D9D9"/>
<rect x="133.684" y="27" width="26.2872" height="40" rx="6" fill="#D9D9D9"/>
<rect x="1542.68" y="27" width="26.2872" height="40" rx="6" fill="#D9D9D9"/>
<rect x="838.182" y="27" width="26.2872" height="40" rx="6" fill="#D9D9D9"/>
<rect x="2247.18" y="27" width="26.2872" height="40" rx="6" fill="#D9D9D9"/>
<rect x="309.808" y="27" width="26.2872" height="40" rx="6" fill="#D9D9D9"/>
<rect x="1718.8" y="27" width="26.2872" height="40" rx="6" fill="#D9D9D9"/>
<rect x="1014.31" y="27" width="26.2872" height="40" rx="6" fill="#D9D9D9"/>
<rect x="2423.3" y="27" width="26.2872" height="40" rx="6" fill="#D9D9D9"/>
<rect x="16.2676" y="538" width="26.2872" height="40" rx="6" fill="#D9D9D9"/>
<rect x="1425.26" y="538" width="26.2872" height="40" rx="6" fill="#D9D9D9"/>
<rect x="720.765" y="538" width="26.2872" height="40" rx="6" fill="#D9D9D9"/>
<rect x="2129.76" y="538" width="26.2872" height="40" rx="6" fill="#D9D9D9"/>
<rect x="192.392" y="538" width="26.2872" height="40" rx="6" fill="#D9D9D9"/>
<rect x="1601.39" y="538" width="26.2872" height="40" rx="6" fill="#D9D9D9"/>
<rect x="896.89" y="538" width="26.2872" height="40" rx="6" fill="#D9D9D9"/>
<rect x="2305.89" y="538" width="26.2872" height="40" rx="6" fill="#D9D9D9"/>
<rect x="74.9756" y="538" width="26.2872" height="40" rx="6" fill="#D9D9D9"/>
<rect x="1483.97" y="538" width="26.2872" height="40" rx="6" fill="#D9D9D9"/>
<rect x="779.473" y="538" width="26.2872" height="40" rx="6" fill="#D9D9D9"/>
<rect x="2188.47" y="538" width="26.2872" height="40" rx="6" fill="#D9D9D9"/>
<rect x="251.1" y="538" width="26.2872" height="40" rx="6" fill="#D9D9D9"/>
<rect x="1660.1" y="538" width="26.2872" height="40" rx="6" fill="#D9D9D9"/>
<rect x="955.598" y="538" width="26.2872" height="40" rx="6" fill="#D9D9D9"/>
<rect x="2364.59" y="538" width="26.2872" height="40" rx="6" fill="#D9D9D9"/>
<rect x="133.684" y="538" width="26.2872" height="40" rx="6" fill="#D9D9D9"/>
<rect x="1542.68" y="538" width="26.2872" height="40" rx="6" fill="#D9D9D9"/>
<rect x="838.182" y="538" width="26.2872" height="40" rx="6" fill="#D9D9D9"/>
<rect x="2247.18" y="538" width="26.2872" height="40" rx="6" fill="#D9D9D9"/>
<rect x="309.808" y="538" width="26.2872" height="40" rx="6" fill="#D9D9D9"/>
<rect x="1718.8" y="538" width="26.2872" height="40" rx="6" fill="#D9D9D9"/>
<rect x="1014.31" y="538" width="26.2872" height="40" rx="6" fill="#D9D9D9"/>
<rect x="2423.3" y="538" width="26.2872" height="40" rx="6" fill="#D9D9D9"/>
<rect x="368.516" y="27" width="26.2872" height="40" rx="6" fill="#D9D9D9"/>
<rect x="1777.51" y="27" width="26.2872" height="40" rx="6" fill="#D9D9D9"/>
<rect x="1073.01" y="27" width="26.2872" height="40" rx="6" fill="#D9D9D9"/>
<rect x="2482.01" y="27" width="26.2872" height="40" rx="6" fill="#D9D9D9"/>
<rect x="544.641" y="27" width="26.2872" height="40" rx="6" fill="#D9D9D9"/>
<rect x="1953.64" y="27" width="26.2872" height="40" rx="6" fill="#D9D9D9"/>
<rect x="1249.14" y="27" width="26.2872" height="40" rx="6" fill="#D9D9D9"/>
<rect x="2658.13" y="27" width="26.2872" height="40" rx="6" fill="#D9D9D9"/>
<rect x="427.225" y="27" width="26.2872" height="40" rx="6" fill="#D9D9D9"/>
<rect x="1836.22" y="27" width="26.2872" height="40" rx="6" fill="#D9D9D9"/>
<rect x="1131.72" y="27" width="26.2872" height="40" rx="6" fill="#D9D9D9"/>
<rect x="2540.72" y="27" width="26.2872" height="40" rx="6" fill="#D9D9D9"/>
<rect x="603.349" y="27" width="26.2872" height="40" rx="6" fill="#D9D9D9"/>
<rect x="2012.34" y="27" width="26.2872" height="40" rx="6" fill="#D9D9D9"/>
<rect x="1307.85" y="27" width="26.2872" height="40" rx="6" fill="#D9D9D9"/>
<rect x="2716.84" y="27" width="26.2872" height="40" rx="6" fill="#D9D9D9"/>
<rect x="485.933" y="27" width="26.2872" height="40" rx="6" fill="#D9D9D9"/>
<rect x="1894.93" y="27" width="26.2872" height="40" rx="6" fill="#D9D9D9"/>
<rect x="1190.43" y="27" width="26.2872" height="40" rx="6" fill="#D9D9D9"/>
<rect x="2599.43" y="27" width="26.2872" height="40" rx="6" fill="#D9D9D9"/>
<rect x="662.057" y="27" width="26.2872" height="40" rx="6" fill="#D9D9D9"/>
<rect x="2071.05" y="27" width="26.2872" height="40" rx="6" fill="#D9D9D9"/>
<rect x="1366.55" y="27" width="26.2872" height="40" rx="6" fill="#D9D9D9"/>
<rect x="2775.55" y="27" width="26.2872" height="40" rx="6" fill="#D9D9D9"/>
<rect x="368.516" y="538" width="26.2872" height="40" rx="6" fill="#D9D9D9"/>
<rect x="1777.51" y="538" width="26.2872" height="40" rx="6" fill="#D9D9D9"/>
<rect x="1073.01" y="538" width="26.2872" height="40" rx="6" fill="#D9D9D9"/>
<rect x="2482.01" y="538" width="26.2872" height="40" rx="6" fill="#D9D9D9"/>
<rect x="544.641" y="538" width="26.2872" height="40" rx="6" fill="#D9D9D9"/>
<rect x="1953.64" y="538" width="26.2872" height="40" rx="6" fill="#D9D9D9"/>
<rect x="1249.14" y="538" width="26.2872" height="40" rx="6" fill="#D9D9D9"/>
<rect x="2658.13" y="538" width="26.2872" height="40" rx="6" fill="#D9D9D9"/>
<rect x="427.225" y="538" width="26.2872" height="40" rx="6" fill="#D9D9D9"/>
<rect x="1836.22" y="538" width="26.2872" height="40" rx="6" fill="#D9D9D9"/>
<rect x="1131.72" y="538" width="26.2872" height="40" rx="6" fill="#D9D9D9"/>
<rect x="2540.72" y="538" width="26.2872" height="40" rx="6" fill="#D9D9D9"/>
<rect x="603.349" y="538" width="26.2872" height="40" rx="6" fill="#D9D9D9"/>
<rect x="2012.34" y="538" width="26.2872" height="40" rx="6" fill="#D9D9D9"/>
<rect x="1307.85" y="538" width="26.2872" height="40" rx="6" fill="#D9D9D9"/>
<rect x="2716.84" y="538" width="26.2872" height="40" rx="6" fill="#D9D9D9"/>
<rect x="485.933" y="538" width="26.2872" height="40" rx="6" fill="#D9D9D9"/>
<rect x="1894.93" y="538" width="26.2872" height="40" rx="6" fill="#D9D9D9"/>
<rect x="1190.43" y="538" width="26.2872" height="40" rx="6" fill="#D9D9D9"/>
<rect x="2599.43" y="538" width="26.2872" height="40" rx="6" fill="#D9D9D9"/>
<rect x="662.057" y="538" width="26.2872" height="40" rx="6" fill="#D9D9D9"/>
<rect x="2071.05" y="538" width="26.2872" height="40" rx="6" fill="#D9D9D9"/>
<rect x="1366.55" y="538" width="26.2872" height="40" rx="6" fill="#D9D9D9"/>
<rect x="2775.55" y="538" width="26.2872" height="40" rx="6" fill="#D9D9D9"/>
<rect x="3234" y="27" width="30" height="40" rx="6" fill="#D9D9D9"/>
<rect x="3100" y="27" width="30" height="40" rx="6" fill="#D9D9D9"/>
<rect x="2966" y="27" width="30" height="40" rx="6" fill="#D9D9D9"/>
<rect x="2832" y="27" width="30" height="40" rx="6" fill="#D9D9D9"/>
<rect x="4842" y="27" width="30" height="40" rx="6" fill="#D9D9D9"/>
<rect x="4038" y="27" width="30" height="40" rx="6" fill="#D9D9D9"/>
<rect x="3435" y="27" width="30" height="40" rx="6" fill="#D9D9D9"/>
<rect x="5043" y="27" width="30" height="40" rx="6" fill="#D9D9D9"/>
<rect x="4239" y="27" width="30" height="40" rx="6" fill="#D9D9D9"/>
<rect x="3301" y="27" width="30" height="40" rx="6" fill="#D9D9D9"/>
<rect x="3167" y="27" width="30" height="40" rx="6" fill="#D9D9D9"/>
<rect x="3033" y="27" width="30" height="40" rx="6" fill="#D9D9D9"/>
<rect x="2899" y="27" width="30" height="40" rx="6" fill="#D9D9D9"/>
<rect x="4909" y="27" width="30" height="40" rx="6" fill="#D9D9D9"/>
<rect x="4105" y="27" width="30" height="40" rx="6" fill="#D9D9D9"/>
<rect x="3502" y="27" width="30" height="40" rx="6" fill="#D9D9D9"/>
<rect x="4306" y="27" width="30" height="40" rx="6" fill="#D9D9D9"/>
<rect x="3368" y="27" width="30" height="40" rx="6" fill="#D9D9D9"/>
<rect x="4976" y="27" width="30" height="40" rx="6" fill="#D9D9D9"/>
<rect x="4172" y="27" width="30" height="40" rx="6" fill="#D9D9D9"/>
<rect x="3569" y="27" width="30" height="40" rx="6" fill="#D9D9D9"/>
<rect x="4373" y="27" width="30" height="40" rx="6" fill="#D9D9D9"/>
<rect x="3234" y="538" width="30" height="40" rx="6" fill="#D9D9D9"/>
<rect x="3100" y="538" width="30" height="40" rx="6" fill="#D9D9D9"/>
<rect x="2966" y="538" width="30" height="40" rx="6" fill="#D9D9D9"/>
<rect x="2832" y="538" width="30" height="40" rx="6" fill="#D9D9D9"/>
<rect x="4842" y="538" width="30" height="40" rx="6" fill="#D9D9D9"/>
<rect x="4038" y="538" width="30" height="40" rx="6" fill="#D9D9D9"/>
<rect x="3435" y="538" width="30" height="40" rx="6" fill="#D9D9D9"/>
<rect x="5043" y="538" width="30" height="40" rx="6" fill="#D9D9D9"/>
<rect x="4239" y="538" width="30" height="40" rx="6" fill="#D9D9D9"/>
<rect x="3301" y="538" width="30" height="40" rx="6" fill="#D9D9D9"/>
<rect x="3167" y="538" width="30" height="40" rx="6" fill="#D9D9D9"/>
<rect x="3033" y="538" width="30" height="40" rx="6" fill="#D9D9D9"/>
<rect x="2899" y="538" width="30" height="40" rx="6" fill="#D9D9D9"/>
<rect x="4909" y="538" width="30" height="40" rx="6" fill="#D9D9D9"/>
<rect x="4105" y="538" width="30" height="40" rx="6" fill="#D9D9D9"/>
<rect x="3502" y="538" width="30" height="40" rx="6" fill="#D9D9D9"/>
<rect x="4306" y="538" width="30" height="40" rx="6" fill="#D9D9D9"/>
<rect x="3368" y="538" width="30" height="40" rx="6" fill="#D9D9D9"/>
<rect x="4976" y="538" width="30" height="40" rx="6" fill="#D9D9D9"/>
<rect x="4172" y="538" width="30" height="40" rx="6" fill="#D9D9D9"/>
<rect x="3569" y="538" width="30" height="40" rx="6" fill="#D9D9D9"/>
<rect x="4373" y="538" width="30" height="40" rx="6" fill="#D9D9D9"/>
<rect x="3636" y="27" width="30" height="40" rx="6" fill="#D9D9D9"/>
<rect x="4440" y="27" width="30" height="40" rx="6" fill="#D9D9D9"/>
<rect x="3837" y="27" width="30" height="40" rx="6" fill="#D9D9D9"/>
<rect x="4641" y="27" width="30" height="40" rx="6" fill="#D9D9D9"/>
<rect x="3703" y="27" width="30" height="40" rx="6" fill="#D9D9D9"/>
<rect x="4507" y="27" width="30" height="40" rx="6" fill="#D9D9D9"/>
<rect x="3904" y="27" width="30" height="40" rx="6" fill="#D9D9D9"/>
<rect x="4708" y="27" width="30" height="40" rx="6" fill="#D9D9D9"/>
<rect x="3770" y="27" width="30" height="40" rx="6" fill="#D9D9D9"/>
<rect x="4574" y="27" width="30" height="40" rx="6" fill="#D9D9D9"/>
<rect x="3971" y="27" width="30" height="40" rx="6" fill="#D9D9D9"/>
<rect x="4775" y="27" width="30" height="40" rx="6" fill="#D9D9D9"/>
<rect x="3636" y="538" width="30" height="40" rx="6" fill="#D9D9D9"/>
<rect x="4440" y="538" width="30" height="40" rx="6" fill="#D9D9D9"/>
<rect x="3837" y="538" width="30" height="40" rx="6" fill="#D9D9D9"/>
<rect x="4641" y="538" width="30" height="40" rx="6" fill="#D9D9D9"/>
<rect x="3703" y="538" width="30" height="40" rx="6" fill="#D9D9D9"/>
<rect x="4507" y="538" width="30" height="40" rx="6" fill="#D9D9D9"/>
<rect x="3904" y="538" width="30" height="40" rx="6" fill="#D9D9D9"/>
<rect x="4708" y="538" width="30" height="40" rx="6" fill="#D9D9D9"/>
<rect x="3770" y="538" width="30" height="40" rx="6" fill="#D9D9D9"/>
<rect x="4574" y="538" width="30" height="40" rx="6" fill="#D9D9D9"/>
<rect x="3971" y="538" width="30" height="40" rx="6" fill="#D9D9D9"/>
<rect x="4775" y="538" width="30" height="40" rx="6" fill="#D9D9D9"/>
<rect x="4398" y="74" width="710" height="460" fill="white"/>
<path d="M4708.63 286.296C4708.63 293.528 4713.56 300.312 4722.07 303.192L4719.13 307.8C4712.79 305.624 4708.12 301.208 4705.69 295.704C4703.26 301.784 4698.39 306.52 4691.86 308.824L4688.66 304.216C4697.37 301.272 4702.62 294.04 4702.74 286.296V284.76H4690.33V280.024H4720.66V284.76H4708.63V286.296ZM4696.09 317.656V312.792H4733.08V332.248H4727.19V317.656H4696.09ZM4727.19 310.104V276.312H4733.08V290.648H4741.14V295.64H4733.08V310.104H4727.19ZM4759.85 278.872C4767.21 278.808 4772.9 283.096 4774.18 289.368H4785.19V276.312H4791.08V306.392H4785.19V294.232H4774.25C4773.1 300.632 4767.34 304.984 4759.85 304.984C4751.34 304.984 4745.19 299.608 4745.26 291.928C4745.19 284.248 4751.34 278.808 4759.85 278.872ZM4750.89 291.928C4750.82 296.664 4754.6 299.992 4759.85 299.992C4765.03 299.992 4768.74 296.664 4768.81 291.928C4768.74 287.064 4765.03 283.8 4759.85 283.864C4754.6 283.8 4750.82 287.064 4750.89 291.928ZM4754.6 331.608V309.08H4760.49V315.608H4785.19V309.08H4791.08V331.608H4754.6ZM4760.49 326.744H4785.19V320.216H4760.49V326.744ZM4818.75 327L4838.98 287.96V287.704H4815.68V281.688H4846.15V287.832L4825.92 327H4818.75Z" fill="#BCBFC8"/>
<rect x="3668" y="73" width="710" height="460" fill="white"/>
<path d="M3951.63 286.296C3951.63 293.528 3956.56 300.312 3965.07 303.192L3962.13 307.8C3955.79 305.624 3951.12 301.208 3948.69 295.704C3946.26 301.784 3941.39 306.52 3934.86 308.824L3931.66 304.216C3940.37 301.272 3945.62 294.04 3945.74 286.296V284.76H3933.33V280.024H3963.66V284.76H3951.63V286.296ZM3939.09 317.656V312.792H3976.08V332.248H3970.19V317.656H3939.09ZM3970.19 310.104V276.312H3976.08V290.648H3984.14V295.64H3976.08V310.104H3970.19ZM4002.85 278.872C4010.21 278.808 4015.9 283.096 4017.18 289.368H4028.19V276.312H4034.08V306.392H4028.19V294.232H4017.25C4016.1 300.632 4010.34 304.984 4002.85 304.984C3994.34 304.984 3988.19 299.608 3988.26 291.928C3988.19 284.248 3994.34 278.808 4002.85 278.872ZM3993.89 291.928C3993.82 296.664 3997.6 299.992 4002.85 299.992C4008.03 299.992 4011.74 296.664 4011.81 291.928C4011.74 287.064 4008.03 283.8 4002.85 283.864C3997.6 283.8 3993.82 287.064 3993.89 291.928ZM3997.6 331.608V309.08H4003.49V315.608H4028.19V309.08H4034.08V331.608H3997.6ZM4003.49 326.744H4028.19V320.216H4003.49V326.744ZM4076.6 327.64C4068.28 327.576 4059.51 322.584 4059.58 305.88C4059.51 290.136 4066.36 281.112 4077.24 281.176C4085.5 281.112 4091.32 286.296 4092.35 293.464H4085.56C4084.67 289.816 4081.79 287.128 4077.24 287.192C4070.2 287.128 4066.11 293.208 4066.11 303.448H4066.62C4069.05 299.608 4073.34 297.368 4078.27 297.304C4086.33 297.368 4092.79 303.512 4092.86 312.152C4092.79 320.984 4086.33 327.704 4076.6 327.64ZM4067 312.408C4067 317.4 4070.97 321.88 4076.6 321.88C4082.04 321.88 4086.14 317.592 4086.2 312.28C4086.14 307.096 4082.17 302.936 4076.73 302.936C4071.23 302.936 4067 307.352 4067 312.408Z" fill="#BCBFC8"/>
<rect x="2938" y="74" width="710" height="460" fill="white"/>
<path d="M3218.63 286.296C3218.63 293.528 3223.56 300.312 3232.07 303.192L3229.13 307.8C3222.79 305.624 3218.12 301.208 3215.69 295.704C3213.26 301.784 3208.39 306.52 3201.86 308.824L3198.66 304.216C3207.37 301.272 3212.62 294.04 3212.74 286.296V284.76H3200.33V280.024H3230.66V284.76H3218.63V286.296ZM3206.09 317.656V312.792H3243.08V332.248H3237.19V317.656H3206.09ZM3237.19 310.104V276.312H3243.08V290.648H3251.14V295.64H3243.08V310.104H3237.19ZM3269.85 278.872C3277.21 278.808 3282.9 283.096 3284.18 289.368H3295.19V276.312H3301.08V306.392H3295.19V294.232H3284.25C3283.1 300.632 3277.34 304.984 3269.85 304.984C3261.34 304.984 3255.19 299.608 3255.26 291.928C3255.19 284.248 3261.34 278.808 3269.85 278.872ZM3260.89 291.928C3260.82 296.664 3264.6 299.992 3269.85 299.992C3275.03 299.992 3278.74 296.664 3278.81 291.928C3278.74 287.064 3275.03 283.8 3269.85 283.864C3264.6 283.8 3260.82 287.064 3260.89 291.928ZM3264.6 331.608V309.08H3270.49V315.608H3295.19V309.08H3301.08V331.608H3264.6ZM3270.49 326.744H3295.19V320.216H3270.49V326.744ZM3342.71 327.64C3334.07 327.64 3327.6 322.392 3327.35 315.224H3334C3334.39 319.064 3338.03 321.88 3342.71 321.88C3348.15 321.88 3352.05 317.912 3352.05 312.536C3352.05 306.968 3348.02 303 3342.32 302.936C3338.67 302.936 3335.92 304.152 3334.39 306.904H3327.86L3330.8 281.688H3356.4V287.704H3336.56L3335.03 300.248H3335.41C3337.33 298.52 3340.47 297.24 3343.99 297.304C3352.43 297.24 3358.77 303.576 3358.71 312.28C3358.77 321.24 3352.05 327.64 3342.71 327.64Z" fill="#BCBFC8"/>
<rect x="2208" y="74" width="710" height="460" fill="white"/>
<path d="M2504.63 286.296C2504.63 293.528 2509.56 300.312 2518.07 303.192L2515.13 307.8C2508.79 305.624 2504.12 301.208 2501.69 295.704C2499.26 301.784 2494.39 306.52 2487.86 308.824L2484.66 304.216C2493.37 301.272 2498.62 294.04 2498.74 286.296V284.76H2486.33V280.024H2516.66V284.76H2504.63V286.296ZM2492.09 317.656V312.792H2529.08V332.248H2523.19V317.656H2492.09ZM2523.19 310.104V276.312H2529.08V290.648H2537.14V295.64H2529.08V310.104H2523.19ZM2555.85 278.872C2563.21 278.808 2568.9 283.096 2570.18 289.368H2581.19V276.312H2587.08V306.392H2581.19V294.232H2570.25C2569.1 300.632 2563.34 304.984 2555.85 304.984C2547.34 304.984 2541.19 299.608 2541.26 291.928C2541.19 284.248 2547.34 278.808 2555.85 278.872ZM2546.89 291.928C2546.82 296.664 2550.6 299.992 2555.85 299.992C2561.03 299.992 2564.74 296.664 2564.81 291.928C2564.74 287.064 2561.03 283.8 2555.85 283.864C2550.6 283.8 2546.82 287.064 2546.89 291.928ZM2550.6 331.608V309.08H2556.49V315.608H2581.19V309.08H2587.08V331.608H2550.6ZM2556.49 326.744H2581.19V320.216H2556.49V326.744ZM2612.32 318.168V312.664L2632.29 281.688H2640.74V312.408H2646.88V318.168H2640.74V327H2634.21V318.168H2612.32ZM2619.49 312.408H2634.21V289.88H2633.83L2619.49 312.024V312.408Z" fill="#BCBFC8"/>
<rect x="1478" y="73" width="710" height="460" fill="white"/>
<path d="M1784.63 286.296C1784.63 293.528 1789.56 300.312 1798.07 303.192L1795.13 307.8C1788.79 305.624 1784.12 301.208 1781.69 295.704C1779.26 301.784 1774.39 306.52 1767.86 308.824L1764.66 304.216C1773.37 301.272 1778.62 294.04 1778.74 286.296V284.76H1766.33V280.024H1796.66V284.76H1784.63V286.296ZM1772.09 317.656V312.792H1809.08V332.248H1803.19V317.656H1772.09ZM1803.19 310.104V276.312H1809.08V290.648H1817.14V295.64H1809.08V310.104H1803.19ZM1835.85 278.872C1843.21 278.808 1848.9 283.096 1850.18 289.368H1861.19V276.312H1867.08V306.392H1861.19V294.232H1850.25C1849.1 300.632 1843.34 304.984 1835.85 304.984C1827.34 304.984 1821.19 299.608 1821.26 291.928C1821.19 284.248 1827.34 278.808 1835.85 278.872ZM1826.89 291.928C1826.82 296.664 1830.6 299.992 1835.85 299.992C1841.03 299.992 1844.74 296.664 1844.81 291.928C1844.74 287.064 1841.03 283.8 1835.85 283.864C1830.6 283.8 1826.82 287.064 1826.89 291.928ZM1830.6 331.608V309.08H1836.49V315.608H1861.19V309.08H1867.08V331.608H1830.6ZM1836.49 326.744H1861.19V320.216H1836.49V326.744ZM1909.35 327.64C1899.94 327.64 1893.28 322.584 1892.96 315.224H1900C1900.26 319.128 1904.16 321.688 1909.22 321.752C1914.72 321.688 1918.69 318.68 1918.69 314.328C1918.69 309.848 1914.98 306.648 1908.45 306.648H1904.61V301.016H1908.45C1913.63 301.016 1917.28 298.136 1917.28 293.848C1917.28 289.688 1914.15 286.872 1909.35 286.936C1904.8 286.872 1900.77 289.432 1900.64 293.464H1893.99C1894.18 286.104 1900.96 281.112 1909.47 281.176C1918.31 281.112 1923.94 286.744 1923.94 293.464C1923.94 298.584 1920.74 302.296 1915.87 303.448V303.832C1922.02 304.664 1925.67 308.824 1925.6 314.584C1925.67 322.136 1918.69 327.64 1909.35 327.64Z" fill="#BCBFC8"/>
<rect x="748" y="74" width="710" height="460" fill="white"/>
<path d="M1027.63 286.296C1027.63 293.528 1032.56 300.312 1041.07 303.192L1038.13 307.8C1031.79 305.624 1027.12 301.208 1024.69 295.704C1022.26 301.784 1017.39 306.52 1010.86 308.824L1007.66 304.216C1016.37 301.272 1021.62 294.04 1021.74 286.296V284.76H1009.33V280.024H1039.66V284.76H1027.63V286.296ZM1015.09 317.656V312.792H1052.08V332.248H1046.19V317.656H1015.09ZM1046.19 310.104V276.312H1052.08V290.648H1060.14V295.64H1052.08V310.104H1046.19ZM1078.85 278.872C1086.21 278.808 1091.9 283.096 1093.18 289.368H1104.19V276.312H1110.08V306.392H1104.19V294.232H1093.25C1092.1 300.632 1086.34 304.984 1078.85 304.984C1070.34 304.984 1064.19 299.608 1064.26 291.928C1064.19 284.248 1070.34 278.808 1078.85 278.872ZM1069.89 291.928C1069.82 296.664 1073.6 299.992 1078.85 299.992C1084.03 299.992 1087.74 296.664 1087.81 291.928C1087.74 287.064 1084.03 283.8 1078.85 283.864C1073.6 283.8 1069.82 287.064 1069.89 291.928ZM1073.6 331.608V309.08H1079.49V315.608H1104.19V309.08H1110.08V331.608H1073.6ZM1079.49 326.744H1104.19V320.216H1079.49V326.744ZM1136.22 327V322.008L1151.96 306.136C1156.89 301.016 1159.39 298.136 1159.39 294.232C1159.39 289.752 1155.74 286.872 1150.94 286.936C1145.95 286.872 1142.75 290.072 1142.75 294.872H1136.22C1136.22 286.616 1142.49 281.112 1151.19 281.176C1159.83 281.112 1165.91 286.616 1165.91 293.976C1165.91 299.032 1163.48 303.064 1155.03 311.384L1145.82 320.728V321.112H1166.68V327H1136.22Z" fill="#BCBFC8"/>
<rect x="18" y="73" width="710" height="460" fill="white"/>
<path d="M319.632 278.296C319.632 285.528 324.56 292.312 333.072 295.192L330.128 299.8C323.792 297.624 319.12 293.208 316.688 287.704C314.256 293.784 309.392 298.52 302.864 300.824L299.664 296.216C308.368 293.272 313.616 286.04 313.744 278.296V276.76H301.328V272.024H331.664V276.76H319.632V278.296ZM307.088 309.656V304.792H344.08V324.248H338.192V309.656H307.088ZM338.192 302.104V268.312H344.08V282.648H352.144V287.64H344.08V302.104H338.192ZM370.849 270.872C378.209 270.808 383.905 275.096 385.185 281.368H396.193V268.312H402.081V298.392H396.193V286.232H385.249C384.097 292.632 378.337 296.984 370.849 296.984C362.337 296.984 356.193 291.608 356.257 283.928C356.193 276.248 362.337 270.808 370.849 270.872ZM361.889 283.928C361.825 288.664 365.601 291.992 370.849 291.992C376.033 291.992 379.745 288.664 379.809 283.928C379.745 279.064 376.033 275.8 370.849 275.864C365.601 275.8 361.825 279.064 361.889 283.928ZM365.601 323.608V301.08H371.489V307.608H396.193V301.08H402.081V323.608H365.601ZM371.489 318.744H396.193V312.216H371.489V318.744ZM445.37 273.688V319H438.458V280.6H438.202L427.45 287.64V281.112L438.714 273.688H445.37Z" fill="#BCBFC8"/>
<path d="M86.966 24.19C84.173 24.19 82.197 22.689 82.102 20.504H84.192C84.268 21.663 85.427 22.423 86.928 22.442C88.562 22.423 89.74 21.53 89.74 20.238C89.74 18.908 88.638 17.958 86.7 17.958H85.56V16.286H86.7C88.239 16.286 89.322 15.431 89.322 14.158C89.322 12.923 88.391 12.087 86.966 12.106C85.617 12.087 84.42 12.847 84.382 14.044H82.406C82.463 11.859 84.477 10.377 87.004 10.396C89.626 10.377 91.298 12.049 91.298 14.044C91.298 15.564 90.348 16.666 88.904 17.008V17.122C90.728 17.369 91.811 18.604 91.792 20.314C91.811 22.556 89.74 24.19 86.966 24.19ZM98.6324 24.19C96.0674 24.19 94.1484 22.632 94.0724 20.504H96.0484C96.1624 21.644 97.2454 22.48 98.6324 22.48C100.247 22.48 101.406 21.302 101.406 19.706C101.406 18.053 100.209 16.875 98.5184 16.856C97.4354 16.856 96.6184 17.217 96.1624 18.034H94.2244L95.0984 10.548H102.698V12.334H96.8084L96.3524 16.058H96.4664C97.0364 15.545 97.9674 15.165 99.0124 15.184C101.52 15.165 103.401 17.046 103.382 19.63C103.401 22.29 101.406 24.19 98.6324 24.19ZM105.595 24V13.93H107.495V15.564H107.609C108.027 14.443 109.034 13.797 110.345 13.778C111.694 13.797 112.625 14.462 113.081 15.564H113.157C113.651 14.481 114.734 13.797 116.197 13.778C118.021 13.797 119.313 14.937 119.313 17.236V24H117.337V17.426C117.337 16.077 116.482 15.507 115.437 15.488C114.164 15.507 113.423 16.362 113.423 17.578V24H111.485V17.312C111.466 16.229 110.706 15.507 109.623 15.488C108.521 15.507 107.571 16.438 107.571 17.806V24H105.595ZM121.7 24V13.93H123.6V15.564H123.714C124.132 14.443 125.139 13.797 126.45 13.778C127.799 13.797 128.73 14.462 129.186 15.564H129.262C129.756 14.481 130.839 13.797 132.302 13.778C134.126 13.797 135.418 14.937 135.418 17.236V24H133.442V17.426C133.442 16.077 132.587 15.507 131.542 15.488C130.269 15.507 129.528 16.362 129.528 17.578V24H127.59V17.312C127.571 16.229 126.811 15.507 125.728 15.488C124.626 15.507 123.676 16.438 123.676 17.806V24H121.7ZM142.597 24V10.548H150.919V12.334H144.649V16.4H150.349V18.148H144.649V24H142.597ZM155.243 10.548V24H153.191V10.548H155.243ZM157.978 24V10.548H160.03V22.252H166.11V24H157.978ZM168.202 10.548H170.672L174.966 20.96H175.118L179.374 10.548H181.844V24H179.906V14.31H179.792L175.84 23.962H174.206L170.254 14.272H170.14V24H168.202V10.548Z" fill="#FFDC22"/>
<path d="M24.6 583.84V598H22.44V586H22.36L19 588.2V586.16L22.52 583.84H24.6Z" fill="#FFDC22"/>
<path d="M780.24 598V596.44L785.16 591.48C786.7 589.88 787.48 588.98 787.48 587.76C787.48 586.36 786.34 585.46 784.84 585.48C783.28 585.46 782.28 586.46 782.28 587.96H780.24C780.24 585.38 782.2 583.66 784.92 583.68C787.62 583.66 789.52 585.38 789.52 587.68C789.52 589.26 788.76 590.52 786.12 593.12L783.24 596.04V596.16H789.76V598H780.24Z" fill="#FFDC22"/>
<path d="M1549.28 598.2C1546.34 598.2 1544.26 596.62 1544.16 594.32H1546.36C1546.44 595.54 1547.66 596.34 1549.24 596.36C1550.96 596.34 1552.2 595.4 1552.2 594.04C1552.2 592.64 1551.04 591.64 1549 591.64H1547.8V589.88H1549C1550.62 589.88 1551.76 588.98 1551.76 587.64C1551.76 586.34 1550.78 585.46 1549.28 585.48C1547.86 585.46 1546.6 586.26 1546.56 587.52H1544.48C1544.54 585.22 1546.66 583.66 1549.32 583.68C1552.08 583.66 1553.84 585.42 1553.84 587.52C1553.84 589.12 1552.84 590.28 1551.32 590.64V590.76C1553.24 591.02 1554.38 592.32 1554.36 594.12C1554.38 596.48 1552.2 598.2 1549.28 598.2Z" fill="#FFDC22"/>
<path d="M2972.08 598.2C2969.38 598.2 2967.36 596.56 2967.28 594.32H2969.36C2969.48 595.52 2970.62 596.4 2972.08 596.4C2973.78 596.4 2975 595.16 2975 593.48C2975 591.74 2973.74 590.5 2971.96 590.48C2970.82 590.48 2969.96 590.86 2969.48 591.72H2967.44L2968.36 583.84H2976.36V585.72H2970.16L2969.68 589.64H2969.8C2970.4 589.1 2971.38 588.7 2972.48 588.72C2975.12 588.7 2977.1 590.68 2977.08 593.4C2977.1 596.2 2975 598.2 2972.08 598.2Z" fill="#FFDC22"/>
<path d="M2273.97 24.19C2271.17 24.19 2269.2 22.689 2269.1 20.504H2271.19C2271.27 21.663 2272.43 22.423 2273.93 22.442C2275.56 22.423 2276.74 21.53 2276.74 20.238C2276.74 18.908 2275.64 17.958 2273.7 17.958H2272.56V16.286H2273.7C2275.24 16.286 2276.32 15.431 2276.32 14.158C2276.32 12.923 2275.39 12.087 2273.97 12.106C2272.62 12.087 2271.42 12.847 2271.38 14.044H2269.41C2269.46 11.859 2271.48 10.377 2274 10.396C2276.63 10.377 2278.3 12.049 2278.3 14.044C2278.3 15.564 2277.35 16.666 2275.9 17.008V17.122C2277.73 17.369 2278.81 18.604 2278.79 20.314C2278.81 22.556 2276.74 24.19 2273.97 24.19ZM2285.63 24.19C2283.07 24.19 2281.15 22.632 2281.07 20.504H2283.05C2283.16 21.644 2284.25 22.48 2285.63 22.48C2287.25 22.48 2288.41 21.302 2288.41 19.706C2288.41 18.053 2287.21 16.875 2285.52 16.856C2284.44 16.856 2283.62 17.217 2283.16 18.034H2281.22L2282.1 10.548H2289.7V12.334H2283.81L2283.35 16.058H2283.47C2284.04 15.545 2284.97 15.165 2286.01 15.184C2288.52 15.165 2290.4 17.046 2290.38 19.63C2290.4 22.29 2288.41 24.19 2285.63 24.19ZM2292.59 24V13.93H2294.49V15.564H2294.61C2295.03 14.443 2296.03 13.797 2297.34 13.778C2298.69 13.797 2299.62 14.462 2300.08 15.564H2300.16C2300.65 14.481 2301.73 13.797 2303.2 13.778C2305.02 13.797 2306.31 14.937 2306.31 17.236V24H2304.34V17.426C2304.34 16.077 2303.48 15.507 2302.44 15.488C2301.16 15.507 2300.42 16.362 2300.42 17.578V24H2298.48V17.312C2298.47 16.229 2297.71 15.507 2296.62 15.488C2295.52 15.507 2294.57 16.438 2294.57 17.806V24H2292.59ZM2308.7 24V13.93H2310.6V15.564H2310.71C2311.13 14.443 2312.14 13.797 2313.45 13.778C2314.8 13.797 2315.73 14.462 2316.19 15.564H2316.26C2316.76 14.481 2317.84 13.797 2319.3 13.778C2321.13 13.797 2322.42 14.937 2322.42 17.236V24H2320.44V17.426C2320.44 16.077 2319.59 15.507 2318.54 15.488C2317.27 15.507 2316.53 16.362 2316.53 17.578V24H2314.59V17.312C2314.57 16.229 2313.81 15.507 2312.73 15.488C2311.63 15.507 2310.68 16.438 2310.68 17.806V24H2308.7ZM2329.6 24V10.548H2337.92V12.334H2331.65V16.4H2337.35V18.148H2331.65V24H2329.6ZM2342.24 10.548V24H2340.19V10.548H2342.24ZM2344.98 24V10.548H2347.03V22.252H2353.11V24H2344.98ZM2355.2 10.548H2357.67L2361.97 20.96H2362.12L2366.37 10.548H2368.84V24H2366.91V14.31H2366.79L2362.84 23.962H2361.21L2357.25 14.272H2357.14V24H2355.2V10.548Z" fill="#FFDC22"/>
<path d="M815.966 24.19C813.173 24.19 811.197 22.689 811.102 20.504H813.192C813.268 21.663 814.427 22.423 815.928 22.442C817.562 22.423 818.74 21.53 818.74 20.238C818.74 18.908 817.638 17.958 815.7 17.958H814.56V16.286H815.7C817.239 16.286 818.322 15.431 818.322 14.158C818.322 12.923 817.391 12.087 815.966 12.106C814.617 12.087 813.42 12.847 813.382 14.044H811.406C811.463 11.859 813.477 10.377 816.004 10.396C818.626 10.377 820.298 12.049 820.298 14.044C820.298 15.564 819.348 16.666 817.904 17.008V17.122C819.728 17.369 820.811 18.604 820.792 20.314C820.811 22.556 818.74 24.19 815.966 24.19ZM827.632 24.19C825.067 24.19 823.148 22.632 823.072 20.504H825.048C825.162 21.644 826.245 22.48 827.632 22.48C829.247 22.48 830.406 21.302 830.406 19.706C830.406 18.053 829.209 16.875 827.518 16.856C826.435 16.856 825.618 17.217 825.162 18.034H823.224L824.098 10.548H831.698V12.334H825.808L825.352 16.058H825.466C826.036 15.545 826.967 15.165 828.012 15.184C830.52 15.165 832.401 17.046 832.382 19.63C832.401 22.29 830.406 24.19 827.632 24.19ZM834.595 24V13.93H836.495V15.564H836.609C837.027 14.443 838.034 13.797 839.345 13.778C840.694 13.797 841.625 14.462 842.081 15.564H842.157C842.651 14.481 843.734 13.797 845.197 13.778C847.021 13.797 848.313 14.937 848.313 17.236V24H846.337V17.426C846.337 16.077 845.482 15.507 844.437 15.488C843.164 15.507 842.423 16.362 842.423 17.578V24H840.485V17.312C840.466 16.229 839.706 15.507 838.623 15.488C837.521 15.507 836.571 16.438 836.571 17.806V24H834.595ZM850.7 24V13.93H852.6V15.564H852.714C853.132 14.443 854.139 13.797 855.45 13.778C856.799 13.797 857.73 14.462 858.186 15.564H858.262C858.756 14.481 859.839 13.797 861.302 13.778C863.126 13.797 864.418 14.937 864.418 17.236V24H862.442V17.426C862.442 16.077 861.587 15.507 860.542 15.488C859.269 15.507 858.528 16.362 858.528 17.578V24H856.59V17.312C856.571 16.229 855.811 15.507 854.728 15.488C853.626 15.507 852.676 16.438 852.676 17.806V24H850.7ZM871.597 24V10.548H879.919V12.334H873.649V16.4H879.349V18.148H873.649V24H871.597ZM884.243 10.548V24H882.191V10.548H884.243ZM886.978 24V10.548H889.03V22.252H895.11V24H886.978ZM897.202 10.548H899.672L903.966 20.96H904.118L908.374 10.548H910.844V24H908.906V14.31H908.792L904.84 23.962H903.206L899.254 14.272H899.14V24H897.202V10.548Z" fill="#FFDC22"/>
<path d="M3002.97 24.19C3000.17 24.19 2998.2 22.689 2998.1 20.504H3000.19C3000.27 21.663 3001.43 22.423 3002.93 22.442C3004.56 22.423 3005.74 21.53 3005.74 20.238C3005.74 18.908 3004.64 17.958 3002.7 17.958H3001.56V16.286H3002.7C3004.24 16.286 3005.32 15.431 3005.32 14.158C3005.32 12.923 3004.39 12.087 3002.97 12.106C3001.62 12.087 3000.42 12.847 3000.38 14.044H2998.41C2998.46 11.859 3000.48 10.377 3003 10.396C3005.63 10.377 3007.3 12.049 3007.3 14.044C3007.3 15.564 3006.35 16.666 3004.9 17.008V17.122C3006.73 17.369 3007.81 18.604 3007.79 20.314C3007.81 22.556 3005.74 24.19 3002.97 24.19ZM3014.63 24.19C3012.07 24.19 3010.15 22.632 3010.07 20.504H3012.05C3012.16 21.644 3013.25 22.48 3014.63 22.48C3016.25 22.48 3017.41 21.302 3017.41 19.706C3017.41 18.053 3016.21 16.875 3014.52 16.856C3013.44 16.856 3012.62 17.217 3012.16 18.034H3010.22L3011.1 10.548H3018.7V12.334H3012.81L3012.35 16.058H3012.47C3013.04 15.545 3013.97 15.165 3015.01 15.184C3017.52 15.165 3019.4 17.046 3019.38 19.63C3019.4 22.29 3017.41 24.19 3014.63 24.19ZM3021.59 24V13.93H3023.49V15.564H3023.61C3024.03 14.443 3025.03 13.797 3026.34 13.778C3027.69 13.797 3028.62 14.462 3029.08 15.564H3029.16C3029.65 14.481 3030.73 13.797 3032.2 13.778C3034.02 13.797 3035.31 14.937 3035.31 17.236V24H3033.34V17.426C3033.34 16.077 3032.48 15.507 3031.44 15.488C3030.16 15.507 3029.42 16.362 3029.42 17.578V24H3027.48V17.312C3027.47 16.229 3026.71 15.507 3025.62 15.488C3024.52 15.507 3023.57 16.438 3023.57 17.806V24H3021.59ZM3037.7 24V13.93H3039.6V15.564H3039.71C3040.13 14.443 3041.14 13.797 3042.45 13.778C3043.8 13.797 3044.73 14.462 3045.19 15.564H3045.26C3045.76 14.481 3046.84 13.797 3048.3 13.778C3050.13 13.797 3051.42 14.937 3051.42 17.236V24H3049.44V17.426C3049.44 16.077 3048.59 15.507 3047.54 15.488C3046.27 15.507 3045.53 16.362 3045.53 17.578V24H3043.59V17.312C3043.57 16.229 3042.81 15.507 3041.73 15.488C3040.63 15.507 3039.68 16.438 3039.68 17.806V24H3037.7ZM3058.6 24V10.548H3066.92V12.334H3060.65V16.4H3066.35V18.148H3060.65V24H3058.6ZM3071.24 10.548V24H3069.19V10.548H3071.24ZM3073.98 24V10.548H3076.03V22.252H3082.11V24H3073.98ZM3084.2 10.548H3086.67L3090.97 20.96H3091.12L3095.37 10.548H3097.84V24H3095.91V14.31H3095.79L3091.84 23.962H3090.21L3086.25 14.272H3086.14V24H3084.2V10.548Z" fill="#FFDC22"/>
<path d="M4460.97 24.19C4458.17 24.19 4456.2 22.689 4456.1 20.504H4458.19C4458.27 21.663 4459.43 22.423 4460.93 22.442C4462.56 22.423 4463.74 21.53 4463.74 20.238C4463.74 18.908 4462.64 17.958 4460.7 17.958H4459.56V16.286H4460.7C4462.24 16.286 4463.32 15.431 4463.32 14.158C4463.32 12.923 4462.39 12.087 4460.97 12.106C4459.62 12.087 4458.42 12.847 4458.38 14.044H4456.41C4456.46 11.859 4458.48 10.377 4461 10.396C4463.63 10.377 4465.3 12.049 4465.3 14.044C4465.3 15.564 4464.35 16.666 4462.9 17.008V17.122C4464.73 17.369 4465.81 18.604 4465.79 20.314C4465.81 22.556 4463.74 24.19 4460.97 24.19ZM4472.63 24.19C4470.07 24.19 4468.15 22.632 4468.07 20.504H4470.05C4470.16 21.644 4471.25 22.48 4472.63 22.48C4474.25 22.48 4475.41 21.302 4475.41 19.706C4475.41 18.053 4474.21 16.875 4472.52 16.856C4471.44 16.856 4470.62 17.217 4470.16 18.034H4468.22L4469.1 10.548H4476.7V12.334H4470.81L4470.35 16.058H4470.47C4471.04 15.545 4471.97 15.165 4473.01 15.184C4475.52 15.165 4477.4 17.046 4477.38 19.63C4477.4 22.29 4475.41 24.19 4472.63 24.19ZM4479.59 24V13.93H4481.49V15.564H4481.61C4482.03 14.443 4483.03 13.797 4484.34 13.778C4485.69 13.797 4486.62 14.462 4487.08 15.564H4487.16C4487.65 14.481 4488.73 13.797 4490.2 13.778C4492.02 13.797 4493.31 14.937 4493.31 17.236V24H4491.34V17.426C4491.34 16.077 4490.48 15.507 4489.44 15.488C4488.16 15.507 4487.42 16.362 4487.42 17.578V24H4485.48V17.312C4485.47 16.229 4484.71 15.507 4483.62 15.488C4482.52 15.507 4481.57 16.438 4481.57 17.806V24H4479.59ZM4495.7 24V13.93H4497.6V15.564H4497.71C4498.13 14.443 4499.14 13.797 4500.45 13.778C4501.8 13.797 4502.73 14.462 4503.19 15.564H4503.26C4503.76 14.481 4504.84 13.797 4506.3 13.778C4508.13 13.797 4509.42 14.937 4509.42 17.236V24H4507.44V17.426C4507.44 16.077 4506.59 15.507 4505.54 15.488C4504.27 15.507 4503.53 16.362 4503.53 17.578V24H4501.59V17.312C4501.57 16.229 4500.81 15.507 4499.73 15.488C4498.63 15.507 4497.68 16.438 4497.68 17.806V24H4495.7ZM4516.6 24V10.548H4524.92V12.334H4518.65V16.4H4524.35V18.148H4518.65V24H4516.6ZM4529.24 10.548V24H4527.19V10.548H4529.24ZM4531.98 24V10.548H4534.03V22.252H4540.11V24H4531.98ZM4542.2 10.548H4544.67L4548.97 20.96H4549.12L4553.37 10.548H4555.84V24H4553.91V14.31H4553.79L4549.84 23.962H4548.21L4544.25 14.272H4544.14V24H4542.2V10.548Z" fill="#FFDC22"/>
<path d="M1544.97 24.19C1542.17 24.19 1540.2 22.689 1540.1 20.504H1542.19C1542.27 21.663 1543.43 22.423 1544.93 22.442C1546.56 22.423 1547.74 21.53 1547.74 20.238C1547.74 18.908 1546.64 17.958 1544.7 17.958H1543.56V16.286H1544.7C1546.24 16.286 1547.32 15.431 1547.32 14.158C1547.32 12.923 1546.39 12.087 1544.97 12.106C1543.62 12.087 1542.42 12.847 1542.38 14.044H1540.41C1540.46 11.859 1542.48 10.377 1545 10.396C1547.63 10.377 1549.3 12.049 1549.3 14.044C1549.3 15.564 1548.35 16.666 1546.9 17.008V17.122C1548.73 17.369 1549.81 18.604 1549.79 20.314C1549.81 22.556 1547.74 24.19 1544.97 24.19ZM1556.63 24.19C1554.07 24.19 1552.15 22.632 1552.07 20.504H1554.05C1554.16 21.644 1555.25 22.48 1556.63 22.48C1558.25 22.48 1559.41 21.302 1559.41 19.706C1559.41 18.053 1558.21 16.875 1556.52 16.856C1555.44 16.856 1554.62 17.217 1554.16 18.034H1552.22L1553.1 10.548H1560.7V12.334H1554.81L1554.35 16.058H1554.47C1555.04 15.545 1555.97 15.165 1557.01 15.184C1559.52 15.165 1561.4 17.046 1561.38 19.63C1561.4 22.29 1559.41 24.19 1556.63 24.19ZM1563.59 24V13.93H1565.49V15.564H1565.61C1566.03 14.443 1567.03 13.797 1568.34 13.778C1569.69 13.797 1570.62 14.462 1571.08 15.564H1571.16C1571.65 14.481 1572.73 13.797 1574.2 13.778C1576.02 13.797 1577.31 14.937 1577.31 17.236V24H1575.34V17.426C1575.34 16.077 1574.48 15.507 1573.44 15.488C1572.16 15.507 1571.42 16.362 1571.42 17.578V24H1569.48V17.312C1569.47 16.229 1568.71 15.507 1567.62 15.488C1566.52 15.507 1565.57 16.438 1565.57 17.806V24H1563.59ZM1579.7 24V13.93H1581.6V15.564H1581.71C1582.13 14.443 1583.14 13.797 1584.45 13.778C1585.8 13.797 1586.73 14.462 1587.19 15.564H1587.26C1587.76 14.481 1588.84 13.797 1590.3 13.778C1592.13 13.797 1593.42 14.937 1593.42 17.236V24H1591.44V17.426C1591.44 16.077 1590.59 15.507 1589.54 15.488C1588.27 15.507 1587.53 16.362 1587.53 17.578V24H1585.59V17.312C1585.57 16.229 1584.81 15.507 1583.73 15.488C1582.63 15.507 1581.68 16.438 1581.68 17.806V24H1579.7ZM1600.6 24V10.548H1608.92V12.334H1602.65V16.4H1608.35V18.148H1602.65V24H1600.6ZM1613.24 10.548V24H1611.19V10.548H1613.24ZM1615.98 24V10.548H1618.03V22.252H1624.11V24H1615.98ZM1626.2 10.548H1628.67L1632.97 20.96H1633.12L1637.37 10.548H1639.84V24H1637.91V14.31H1637.79L1633.84 23.962H1632.21L1628.25 14.272H1628.14V24H1626.2V10.548Z" fill="#FFDC22"/>
<path d="M433.6 583.84V598H431.44V586H431.36L428 588.2V586.16L431.52 583.84H433.6ZM438.605 598H436.325L441.405 583.84H443.885L449.005 598H446.685L445.405 594.28H439.885L438.605 598ZM440.525 592.48H444.785L442.725 586.44H442.605L440.525 592.48Z" fill="#FFDC22"/>
<path d="M3731.97 24.19C3729.17 24.19 3727.2 22.689 3727.1 20.504H3729.19C3729.27 21.663 3730.43 22.423 3731.93 22.442C3733.56 22.423 3734.74 21.53 3734.74 20.238C3734.74 18.908 3733.64 17.958 3731.7 17.958H3730.56V16.286H3731.7C3733.24 16.286 3734.32 15.431 3734.32 14.158C3734.32 12.923 3733.39 12.087 3731.97 12.106C3730.62 12.087 3729.42 12.847 3729.38 14.044H3727.41C3727.46 11.859 3729.48 10.377 3732 10.396C3734.63 10.377 3736.3 12.049 3736.3 14.044C3736.3 15.564 3735.35 16.666 3733.9 17.008V17.122C3735.73 17.369 3736.81 18.604 3736.79 20.314C3736.81 22.556 3734.74 24.19 3731.97 24.19ZM3743.63 24.19C3741.07 24.19 3739.15 22.632 3739.07 20.504H3741.05C3741.16 21.644 3742.25 22.48 3743.63 22.48C3745.25 22.48 3746.41 21.302 3746.41 19.706C3746.41 18.053 3745.21 16.875 3743.52 16.856C3742.44 16.856 3741.62 17.217 3741.16 18.034H3739.22L3740.1 10.548H3747.7V12.334H3741.81L3741.35 16.058H3741.47C3742.04 15.545 3742.97 15.165 3744.01 15.184C3746.52 15.165 3748.4 17.046 3748.38 19.63C3748.4 22.29 3746.41 24.19 3743.63 24.19ZM3750.59 24V13.93H3752.49V15.564H3752.61C3753.03 14.443 3754.03 13.797 3755.34 13.778C3756.69 13.797 3757.62 14.462 3758.08 15.564H3758.16C3758.65 14.481 3759.73 13.797 3761.2 13.778C3763.02 13.797 3764.31 14.937 3764.31 17.236V24H3762.34V17.426C3762.34 16.077 3761.48 15.507 3760.44 15.488C3759.16 15.507 3758.42 16.362 3758.42 17.578V24H3756.48V17.312C3756.47 16.229 3755.71 15.507 3754.62 15.488C3753.52 15.507 3752.57 16.438 3752.57 17.806V24H3750.59ZM3766.7 24V13.93H3768.6V15.564H3768.71C3769.13 14.443 3770.14 13.797 3771.45 13.778C3772.8 13.797 3773.73 14.462 3774.19 15.564H3774.26C3774.76 14.481 3775.84 13.797 3777.3 13.778C3779.13 13.797 3780.42 14.937 3780.42 17.236V24H3778.44V17.426C3778.44 16.077 3777.59 15.507 3776.54 15.488C3775.27 15.507 3774.53 16.362 3774.53 17.578V24H3772.59V17.312C3772.57 16.229 3771.81 15.507 3770.73 15.488C3769.63 15.507 3768.68 16.438 3768.68 17.806V24H3766.7ZM3787.6 24V10.548H3795.92V12.334H3789.65V16.4H3795.35V18.148H3789.65V24H3787.6ZM3800.24 10.548V24H3798.19V10.548H3800.24ZM3802.98 24V10.548H3805.03V22.252H3811.11V24H3802.98ZM3813.2 10.548H3815.67L3819.97 20.96H3820.12L3824.37 10.548H3826.84V24H3824.91V14.31H3824.79L3820.84 23.962H3819.21L3815.25 14.272H3815.14V24H3813.2V10.548Z" fill="#FFDC22"/>
<path d="M1189.24 598V596.44L1194.16 591.48C1195.7 589.88 1196.48 588.98 1196.48 587.76C1196.48 586.36 1195.34 585.46 1193.84 585.48C1192.28 585.46 1191.28 586.46 1191.28 587.96H1189.24C1189.24 585.38 1191.2 583.66 1193.92 583.68C1196.62 583.66 1198.52 585.38 1198.52 587.68C1198.52 589.26 1197.76 590.52 1195.12 593.12L1192.24 596.04V596.16H1198.76V598H1189.24ZM1202.51 598H1200.24L1205.32 583.84H1207.8L1212.92 598H1210.6L1209.32 594.28H1203.8L1202.51 598ZM1204.44 592.48H1208.7L1206.64 586.44H1206.52L1204.44 592.48Z" fill="#FFDC22"/>
<path d="M1958.28 598.2C1955.34 598.2 1953.26 596.62 1953.16 594.32H1955.36C1955.44 595.54 1956.66 596.34 1958.24 596.36C1959.96 596.34 1961.2 595.4 1961.2 594.04C1961.2 592.64 1960.04 591.64 1958 591.64H1956.8V589.88H1958C1959.62 589.88 1960.76 588.98 1960.76 587.64C1960.76 586.34 1959.78 585.46 1958.28 585.48C1956.86 585.46 1955.6 586.26 1955.56 587.52H1953.48C1953.54 585.22 1955.66 583.66 1958.32 583.68C1961.08 583.66 1962.84 585.42 1962.84 587.52C1962.84 589.12 1961.84 590.28 1960.32 590.64V590.76C1962.24 591.02 1963.38 592.32 1963.36 594.12C1963.38 596.48 1961.2 598.2 1958.28 598.2ZM1967.12 598H1964.84L1969.92 583.84H1972.4L1977.52 598H1975.2L1973.92 594.28H1968.4L1967.12 598ZM1969.04 592.48H1973.3L1971.24 586.44H1971.12L1969.04 592.48Z" fill="#FFDC22"/>
<path d="M3381.08 598.2C3378.38 598.2 3376.36 596.56 3376.28 594.32H3378.36C3378.48 595.52 3379.62 596.4 3381.08 596.4C3382.78 596.4 3384 595.16 3384 593.48C3384 591.74 3382.74 590.5 3380.96 590.48C3379.82 590.48 3378.96 590.86 3378.48 591.72H3376.44L3377.36 583.84H3385.36V585.72H3379.16L3378.68 589.64H3378.8C3379.4 589.1 3380.38 588.7 3381.48 588.72C3384.12 588.7 3386.1 590.68 3386.08 593.4C3386.1 596.2 3384 598.2 3381.08 598.2ZM3389.77 598H3387.49L3392.57 583.84H3395.05L3400.17 598H3397.85L3396.57 594.28H3391.05L3389.77 598ZM3391.69 592.48H3395.95L3393.89 586.44H3393.77L3391.69 592.48Z" fill="#FFDC22"/>
<path d="M2197 599.5V584L2242 591.5L2197 599.5Z" stroke="#FFDC22" stroke-width="2" stroke-linejoin="round"/>
</g>
<defs>
<filter id="filter0_d_205_384" x="0" y="0" width="5128" height="618" filterUnits="userSpaceOnUse" color-interpolation-filters="sRGB">
<feFlood flood-opacity="0" result="BackgroundImageFix"/>
<feColorMatrix in="SourceAlpha" type="matrix" values="0 0 0 0 0 0 0 0 0 0 0 0 0 0 0 0 0 0 127 0" result="hardAlpha"/>
<feOffset dy="4"/>
<feGaussianBlur stdDeviation="2"/>
<feComposite in2="hardAlpha" operator="out"/>
<feColorMatrix type="matrix" values="0 0 0 0 0 0 0 0 0 0 0 0 0 0 0 0 0 0 0.25 0"/>
<feBlend mode="normal" in2="BackgroundImageFix" result="effect1_dropShadow_205_384"/>
<feBlend mode="normal" in="SourceGraphic" in2="effect1_dropShadow_205_384" result="shape"/>
</filter>
</defs>
</svg>
