<svg width="711" height="91" viewBox="0 0 711 91" fill="none" xmlns="http://www.w3.org/2000/svg">
<mask id="path-1-inside-1_1005_1603" fill="white">
<path d="M0 0H711V91H0V0Z"/>
</mask>
<path d="M0 0H711V91H0V0Z" fill="white"/>
<path d="M30.9316 22C32.5723 22 34.0547 22.334 35.3789 23.002C36.7148 23.6699 37.7637 24.5957 38.5254 25.7793C39.2871 26.9629 39.6738 28.2988 39.6855 29.7871C39.6738 31.2871 39.2871 32.6348 38.5254 33.8301C37.7637 35.0137 36.7148 35.9453 35.3789 36.625C34.0547 37.3047 32.5723 37.6445 30.9316 37.6445C29.2793 37.6445 27.7852 37.3047 26.4492 36.625C25.125 35.9453 24.0762 35.0137 23.3027 33.8301C22.541 32.6348 22.1602 31.2871 22.1602 29.7871C22.1602 28.2988 22.541 26.9629 23.3027 25.7793C24.0762 24.5957 25.1309 23.6699 26.4668 23.002C27.8027 22.334 29.291 22 30.9316 22ZM30.9316 25.7969C30.0879 25.8086 29.3379 25.9727 28.6816 26.2891C28.0254 26.5938 27.5098 27.0508 27.1348 27.6602C26.7598 28.2578 26.5723 28.9668 26.5723 29.7871C26.5723 30.6191 26.7598 31.3398 27.1348 31.9492C27.5098 32.5469 28.0254 33.0098 28.6816 33.3379C29.3496 33.6543 30.0996 33.8125 30.9316 33.8125C31.7637 33.8125 32.5078 33.6543 33.1641 33.3379C33.832 33.0098 34.3535 32.5469 34.7285 31.9492C35.1152 31.3398 35.3086 30.6191 35.3086 29.7871C35.3086 28.9785 35.1152 28.2754 34.7285 27.6777C34.3535 27.0684 33.8379 26.6055 33.1816 26.2891C32.5254 25.9727 31.7754 25.8086 30.9316 25.7969ZM47.332 38.9629H42.8496V20.207H47.332V38.9629ZM51.6562 31.4219H46.0664V27.7656H51.6562V31.4219ZM47.332 52.2695H42.8496V43.9199H25.7988V40.2988H47.332V52.2695ZM69.4453 44.4121H54.082V23.2656H69.4453V44.4121ZM58.4941 40.8789H64.998V26.7637H58.4941V40.8789ZM78.3047 52.2344H73.8047V20.207H78.3047V52.2344ZM83.0508 36.0449H77.3203V32.3008H83.0508V36.0449ZM110.174 32.4766H87.7969V28.9785H110.174V32.4766ZM113.408 39.4199H84.1582V35.9043H113.408V39.4199ZM92.2793 30.7363H87.7969V21.3672H92.2793V30.7363ZM110.367 51.5312H87.5156V47.9102H110.367V51.5312ZM92.0156 48.9473H87.5156V42.0391H92.0156V48.9473ZM152.889 48.5078H123.639V44.8164H152.889V48.5078ZM150.445 26.6406H125.906V23.0371H150.445V26.6406ZM150.305 39.877H126.064V36.3262H150.305V39.877ZM134.818 36.6777H130.336V26.2891H134.818V36.6777ZM145.945 36.6777H141.533V26.2891H145.945V36.6777ZM179.977 52.3223H175.547V20.207H179.977V52.3223ZM184.723 36.0273H178.992V32.3184H184.723V36.0273ZM158.76 41.125C161.725 41.1484 164.32 41.0957 166.547 40.9668C168.785 40.8262 171.029 40.5625 173.279 40.1758L173.684 43.7617C171.387 44.1836 169.09 44.4707 166.793 44.623C164.508 44.7754 161.83 44.8516 158.76 44.8516H156.07V41.125H158.76ZM170.818 35.3066H160.535V42.5488H156.07V31.7734H166.354V26.5352H156.035V22.9141H170.818V35.3066ZM211.09 52.3223H206.59V20.207H211.09V52.3223ZM215.836 35.7812H210.105V32.1074H215.836V35.7812ZM189.82 40.8438C192.715 40.8555 195.281 40.7852 197.52 40.6328C199.758 40.4805 202.014 40.2109 204.287 39.8242L204.779 43.5859C202.471 43.9727 200.18 44.2305 197.906 44.3594C195.645 44.4883 192.949 44.5469 189.82 44.5352H187.113V40.8438H189.82ZM202.125 26.834H191.596V42.6719H187.113V23.1953H202.125V26.834ZM246.193 37.9082H216.943V34.5684H246.193V37.9082ZM242.713 47.0488H224.766V49.8613H220.283V44.2188H238.266V42.6191H220.266V39.4902H242.713V47.0488ZM243.627 51.9355H220.283V48.877H243.627V51.9355ZM242.66 28.3281H225.047V31H220.582V25.4805H238.16V23.8633H220.529V20.8047H242.66V28.3281ZM243.205 33.0742H220.582V30.0508H243.205V33.0742ZM283.178 37.4512H278.695V20.207H283.178V37.4512ZM266.215 41.8105H278.713V38.8398H283.178V51.8828H261.803V38.8398H266.215V41.8105ZM278.713 48.2617V45.291H266.215V48.2617H278.713ZM265.652 21.5605C267.293 21.5605 268.781 21.8828 270.117 22.5273C271.453 23.1602 272.502 24.0566 273.264 25.2168C274.025 26.377 274.406 27.6895 274.406 29.1543C274.406 30.584 274.025 31.8672 273.264 33.0039C272.502 34.1406 271.453 35.0371 270.117 35.6934C268.781 36.3379 267.293 36.6602 265.652 36.6602C264 36.6602 262.506 36.3379 261.17 35.6934C259.846 35.0371 258.803 34.1406 258.041 33.0039C257.279 31.8672 256.898 30.584 256.898 29.1543C256.898 27.6777 257.279 26.3652 258.041 25.2168C258.803 24.0566 259.846 23.1602 261.17 22.5273C262.506 21.8828 264 21.5605 265.652 21.5605ZM265.652 25.3047C264.797 25.3047 264.035 25.4629 263.367 25.7793C262.711 26.084 262.195 26.5293 261.82 27.1152C261.457 27.6895 261.275 28.3691 261.275 29.1543C261.275 29.9395 261.457 30.6191 261.82 31.1934C262.195 31.7559 262.711 32.1953 263.367 32.5117C264.035 32.8164 264.797 32.9746 265.652 32.9863C266.484 32.9746 267.229 32.8164 267.885 32.5117C268.541 32.1953 269.051 31.75 269.414 31.1758C269.777 30.6016 269.959 29.9277 269.959 29.1543C269.959 28.3809 269.777 27.7012 269.414 27.1152C269.051 26.5293 268.541 26.084 267.885 25.7793C267.229 25.4629 266.484 25.3047 265.652 25.3047ZM313.518 32.4766H291.141V28.9785H313.518V32.4766ZM316.752 39.4199H287.502V35.9043H316.752V39.4199ZM295.623 30.7363H291.141V21.3672H295.623V30.7363ZM313.711 51.5312H290.859V47.9102H313.711V51.5312ZM295.359 48.9473H290.859V42.0391H295.359V48.9473ZM343.875 52.3223H339.375V20.207H343.875V52.3223ZM348.621 35.7812H342.891V32.1074H348.621V35.7812ZM322.605 40.8438C325.5 40.8555 328.066 40.7852 330.305 40.6328C332.543 40.4805 334.799 40.2109 337.072 39.8242L337.564 43.5859C335.256 43.9727 332.965 44.2305 330.691 44.3594C328.43 44.4883 325.734 44.5469 322.605 44.5352H319.898V40.8438H322.605ZM334.91 26.834H324.381V42.6719H319.898V23.1953H334.91V26.834Z" fill="black"/>
<path d="M32.2461 76.1074H30.7285V65.4023H32.2461V76.1074ZM24.8867 72.293C26.1328 72.2969 27.1055 72.2812 27.8047 72.2461C28.5078 72.207 29.2031 72.125 29.8906 72L30.0254 73.2246C29.3223 73.3613 28.5977 73.4531 27.8516 73.5C27.1094 73.543 26.1211 73.5645 24.8867 73.5645H23.9668V72.293H24.8867ZM29.1465 67.5645H25.4609V72.7852H23.9668V66.3457H29.1465V67.5645ZM37.3086 68.3145C37.3086 69.1348 37.1914 69.9277 36.957 70.6934C36.7266 71.4551 36.3848 72.1348 35.9316 72.7324C35.4824 73.3301 34.9434 73.7773 34.3145 74.0742L33.4355 72.8965C34.0098 72.627 34.498 72.2461 34.9004 71.7539C35.3066 71.2617 35.6113 70.7188 35.8145 70.125C36.0176 69.5312 36.1211 68.9277 36.125 68.3145V67.0723H37.3086V68.3145ZM37.625 68.3145C37.6211 68.8809 37.7188 69.4434 37.918 70.002C38.1172 70.5605 38.4121 71.0742 38.8027 71.543C39.1973 72.0078 39.6758 72.3691 40.2383 72.627L39.4062 73.7988C38.7773 73.5137 38.2402 73.0859 37.7949 72.5156C37.3535 71.9453 37.0176 71.2969 36.7871 70.5703C36.5566 69.8398 36.4414 69.0879 36.4414 68.3145V67.0723H37.625V68.3145ZM39.7754 67.6641H33.8633V66.4453H39.7754V67.6641ZM42.1016 76.0781H40.6016V65.4023H42.1016V76.0781ZM43.6836 70.7344H41.7734V69.4863H43.6836V70.7344ZM52.9824 73.0898H51.4883V65.4258H52.9824V73.0898ZM53.2754 75.8965H45.8398V74.6895H53.2754V75.8965ZM47.3516 75.1816H45.8398V72.3223H47.3516V75.1816ZM47.1406 66.0996C47.6797 66.0996 48.1719 66.2148 48.6172 66.4453C49.0664 66.6758 49.418 66.9961 49.6719 67.4062C49.9297 67.8164 50.0586 68.2754 50.0586 68.7832C50.0586 69.3027 49.9297 69.7695 49.6719 70.1836C49.418 70.5938 49.0684 70.916 48.623 71.1504C48.1777 71.3809 47.6836 71.4961 47.1406 71.4961C46.5977 71.4961 46.1035 71.3809 45.6582 71.1504C45.2168 70.916 44.8672 70.5938 44.6094 70.1836C44.3516 69.7695 44.2227 69.3027 44.2227 68.7832C44.2227 68.2754 44.3516 67.8164 44.6094 67.4062C44.8672 66.9961 45.2168 66.6758 45.6582 66.4453C46.1035 66.2148 46.5977 66.0996 47.1406 66.0996ZM47.1406 67.4004C46.8633 67.4004 46.6133 67.457 46.3906 67.5703C46.1719 67.6797 45.998 67.8398 45.8691 68.0508C45.7441 68.2578 45.6816 68.502 45.6816 68.7832C45.6816 69.0762 45.7441 69.3281 45.8691 69.5391C45.998 69.75 46.1719 69.9121 46.3906 70.0254C46.6133 70.1387 46.8633 70.1934 47.1406 70.1895C47.4141 70.1934 47.6582 70.1387 47.873 70.0254C48.0918 69.9121 48.2637 69.75 48.3887 69.5391C48.5137 69.3281 48.5762 69.0762 48.5762 68.7832C48.5762 68.502 48.5137 68.2578 48.3887 68.0508C48.2637 67.8398 48.0918 67.6797 47.873 67.5703C47.6543 67.457 47.4102 67.4004 47.1406 67.4004ZM65.457 71.7891H64.543V65.5312H65.457V71.7891ZM67.0273 69.0117H65.1992V68.25H67.0273V69.0117ZM62.6211 66.3047C62.6211 67.1797 62.4238 67.9766 62.0293 68.6953C61.6348 69.4141 61.0703 70.0371 60.3359 70.5645C59.6016 71.0879 58.7266 71.5 57.7109 71.8008L57.3242 71.0508C58.2148 70.793 58.9844 70.4492 59.6328 70.0195C60.2812 69.5898 60.7773 69.0957 61.1211 68.5371C61.4688 67.9785 61.6445 67.375 61.6484 66.7266V66.3047H62.6211ZM62.1641 67.0664H57.7812V66.3047H62.1641V67.0664ZM62.1641 71.9062C62.8555 71.9062 63.457 71.9863 63.9688 72.1465C64.4844 72.3066 64.8809 72.5371 65.1582 72.8379C65.4355 73.1387 65.5742 73.4961 65.5742 73.9102C65.5742 74.3281 65.4355 74.6895 65.1582 74.9941C64.8809 75.2949 64.4863 75.5254 63.9746 75.6855C63.4629 75.8457 62.8594 75.9258 62.1641 75.9258C61.4727 75.9258 60.8691 75.8457 60.3535 75.6855C59.8418 75.5254 59.4473 75.2949 59.1699 74.9941C58.8926 74.6895 58.7539 74.3281 58.7539 73.9102C58.7539 73.5 58.8926 73.1445 59.1699 72.8438C59.4473 72.5391 59.8438 72.3066 60.3594 72.1465C60.875 71.9863 61.4766 71.9062 62.1641 71.9062ZM62.1641 72.6445C61.6562 72.6445 61.2148 72.6953 60.8398 72.7969C60.4648 72.8984 60.1738 73.0449 59.9668 73.2363C59.7637 73.4277 59.6641 73.6523 59.668 73.9102C59.6641 74.168 59.7637 74.3926 59.9668 74.584C60.1738 74.7754 60.4648 74.9238 60.8398 75.0293C61.2188 75.1348 61.6602 75.1875 62.1641 75.1875C62.668 75.1875 63.1094 75.1348 63.4883 75.0293C63.8711 74.9238 64.166 74.7754 64.373 74.584C64.5801 74.3926 64.6836 74.168 64.6836 73.9102C64.6836 73.6523 64.5801 73.4277 64.373 73.2363C64.166 73.0449 63.873 72.8984 63.4941 72.7969C63.1152 72.6953 62.6719 72.6445 62.1641 72.6445ZM71.2461 68.7305C71.2461 69.4492 71.1094 70.1582 70.8359 70.8574C70.5625 71.5566 70.1953 72.1777 69.7344 72.7207C69.2773 73.2637 68.7773 73.6719 68.2344 73.9453L67.6836 73.2188C68.1797 72.9805 68.6406 72.6211 69.0664 72.1406C69.4961 71.6562 69.8398 71.1133 70.0977 70.5117C70.3555 69.9102 70.4844 69.3164 70.4844 68.7305V67.0078H71.2461V68.7305ZM71.4102 68.7305C71.4102 69.3047 71.5391 69.877 71.7969 70.4473C72.0547 71.0137 72.3984 71.5195 72.8281 71.9648C73.2578 72.4102 73.7266 72.7422 74.2344 72.9609L73.7188 73.6875C73.1523 73.4297 72.6367 73.0469 72.1719 72.5391C71.7109 72.0312 71.3438 71.4473 71.0703 70.7871C70.8008 70.123 70.668 69.4375 70.6719 68.7305V67.0078H71.4102V68.7305ZM73.8945 67.3711H68.0234V66.6094H73.8945V67.3711ZM76.2734 75.9492H75.3477V65.5312H76.2734V75.9492ZM81.9805 73.0898H81.0547V70.7695H81.9805V73.0898ZM86.6445 73.4531H85.7188V65.543H86.6445V73.4531ZM86.9023 75.7266H79.4961V74.9531H86.9023V75.7266ZM80.4219 75.1758H79.4961V72.6797H80.4219V75.1758ZM77.9961 70.3711C79.3906 70.3633 80.625 70.3418 81.6992 70.3066C82.7734 70.2676 83.8008 70.1875 84.7812 70.0664L84.8398 70.7344C83.8281 70.8945 82.7676 71 81.6582 71.0508C80.5488 71.1016 79.3711 71.125 78.125 71.1211L77.9961 70.3711ZM85.9648 72.375H83.5625V71.707H85.9648V72.375ZM81.418 65.9648C81.9219 65.9648 82.3691 66.0391 82.7598 66.1875C83.1543 66.3359 83.459 66.5488 83.6738 66.8262C83.8887 67.1035 83.9961 67.4219 83.9961 67.7812C83.9961 68.1484 83.8887 68.4668 83.6738 68.7363C83.459 69.0059 83.1562 69.2148 82.7656 69.3633C82.375 69.5117 81.9258 69.5859 81.418 69.5859C80.9062 69.5859 80.4551 69.5117 80.0645 69.3633C79.6777 69.2148 79.377 69.0059 79.1621 68.7363C78.9473 68.4668 78.8398 68.1484 78.8398 67.7812C78.8398 67.4219 78.9473 67.1035 79.1621 66.8262C79.377 66.5488 79.6797 66.3359 80.0703 66.1875C80.4609 66.0391 80.9102 65.9648 81.418 65.9648ZM81.418 66.668C81.082 66.6641 80.7852 66.709 80.5273 66.8027C80.2695 66.8926 80.0684 67.0234 79.9238 67.1953C79.7832 67.3672 79.7148 67.5625 79.7188 67.7812C79.7148 68.0039 79.7832 68.2012 79.9238 68.373C80.0684 68.541 80.2695 68.6719 80.5273 68.7656C80.7852 68.8594 81.082 68.9062 81.418 68.9062C81.7461 68.9062 82.0391 68.8594 82.2969 68.7656C82.5547 68.6719 82.7559 68.541 82.9004 68.373C83.0449 68.2012 83.1172 68.0039 83.1172 67.7812C83.1172 67.5625 83.0449 67.3672 82.9004 67.1953C82.7559 67.0234 82.5547 66.8926 82.2969 66.8027C82.0391 66.709 81.7461 66.6641 81.418 66.668Z" fill="black"/>
<path d="M116.516 76.0781H115.074V65.4023H116.516V76.0781ZM115.508 70.6523H113.691V69.4512H115.508V70.6523ZM111.957 66.7324C111.953 67.7793 111.83 68.7305 111.588 69.5859C111.35 70.4375 110.943 71.2266 110.369 71.9531C109.795 72.6758 109.023 73.3184 108.055 73.8809L107.188 72.8555C108 72.375 108.65 71.8477 109.139 71.2734C109.631 70.6992 109.984 70.0664 110.199 69.375C110.418 68.6836 110.529 67.9004 110.533 67.0254V66.7324H111.957ZM110.967 67.9219H107.727V66.7324H110.967V67.9219ZM114.102 75.6035H112.707V65.6836H114.102V75.6035ZM119.486 67.1602H121.672V65.8887H123.172V70.5469H118.004V65.8887H119.486V67.1602ZM121.672 69.3691V68.2793H119.486V69.3691H121.672ZM126.148 70.8398H124.654V65.4023H126.148V70.8398ZM127.59 68.7012H125.527V67.4883H127.59V68.7012ZM126.148 74.1387H120.564V75.416H119.094V73.0664H124.66V72.3984H119.076V71.2441H126.148V74.1387ZM126.459 76.002H119.094V74.8301H126.459V76.002ZM139.086 71.8359H138.172V65.5312H139.086V71.8359ZM140.656 69.0117H138.828V68.25H140.656V69.0117ZM139.086 75.9492H138.172V73.1367H132.266V72.3867H139.086V75.9492ZM132.289 67.8281H135.324V66.1875H136.238V71.1094H131.387V66.1875H132.289V67.8281ZM135.324 70.3594V68.5664H132.289V70.3594H135.324ZM146.281 66.832C146.281 67.3984 146.096 67.9141 145.725 68.3789C145.354 68.8398 144.859 69.2227 144.242 69.5273C143.629 69.8281 142.961 70.0312 142.238 70.1367L141.898 69.4102C142.516 69.3242 143.098 69.1562 143.645 68.9062C144.191 68.6562 144.631 68.3516 144.963 67.9922C145.295 67.6328 145.461 67.2461 145.461 66.832V66.5156H146.281V66.832ZM146.656 66.832C146.656 67.2461 146.824 67.6328 147.16 67.9922C147.496 68.3516 147.938 68.6562 148.484 68.9062C149.035 69.1562 149.621 69.3242 150.242 69.4102L149.879 70.1367C149.16 70.0312 148.492 69.8281 147.875 69.5273C147.258 69.2227 146.764 68.8398 146.393 68.3789C146.021 67.9141 145.836 67.3984 145.836 66.832V66.5156H146.656V66.832ZM149.961 66.8086H142.18V66.0586H149.961V66.8086ZM150.84 71.6602H141.301V70.8984H150.84V71.6602ZM146.598 73.793H145.684V71.3672H146.598V73.793ZM149.773 75.7266H142.52V74.9531H149.773V75.7266ZM143.445 75.2461H142.52V72.75H143.445V75.2461ZM159.863 69.8438H156.934V69.0938H159.863V69.8438ZM155.176 68.332C155.172 69.0859 155.043 69.8242 154.789 70.5469C154.539 71.2656 154.193 71.9062 153.752 72.4688C153.311 73.0312 152.816 73.457 152.27 73.7461L151.672 73.0078C152.176 72.7617 152.637 72.3926 153.055 71.9004C153.477 71.4043 153.809 70.8438 154.051 70.2188C154.293 69.5898 154.414 68.9609 154.414 68.332V66.4336H155.176V68.332ZM155.352 68.332C155.352 68.9492 155.473 69.5586 155.715 70.1602C155.957 70.7617 156.285 71.2969 156.699 71.7656C157.113 72.2305 157.57 72.5781 158.07 72.8086L157.52 73.5586C156.965 73.2734 156.467 72.8633 156.025 72.3281C155.584 71.7891 155.236 71.1738 154.982 70.4824C154.729 69.7871 154.602 69.0703 154.602 68.332V66.4336H155.352V68.332ZM160.32 75.9727H159.406V65.5312H160.32V75.9727Z" fill="black"/>
<path d="M0 2H711V-2H0V2Z" fill="black" mask="url(#path-1-inside-1_1005_1603)"/>
</svg>
