<svg width="379" height="253" viewBox="0 0 379 253" fill="none" xmlns="http://www.w3.org/2000/svg">
<g clip-path="url(#clip0_384_462)">
<path d="M376.99 39.7602L376.93 38.8202L376.48 37.8602L375.9 37.2702C375.84 37.2002 375.76 37.1402 375.69 37.0802C375.62 37.0202 375.55 36.9702 375.47 36.9202C375.39 36.8602 375.3 36.7902 375.22 36.7302C375.13 36.6702 375.05 36.6102 374.96 36.5502C374.87 36.4902 374.79 36.4302 374.7 36.3702C374.61 36.3102 374.52 36.2602 374.44 36.2002C374.35 36.1502 374.27 36.0902 374.18 36.0402C374.09 35.9902 374 35.9402 373.91 35.8902C373.82 35.8402 373.74 35.7902 373.65 35.7502C373.56 35.7002 373.47 35.6602 373.37 35.6102C373.28 35.5702 373.19 35.5202 373.1 35.4802C373.01 35.4402 372.91 35.4002 372.81 35.3502C372.72 35.3102 372.63 35.2702 372.53 35.2302C372.43 35.1902 372.33 35.1602 372.23 35.1202C372.13 35.0902 372.04 35.0502 371.94 35.0202C371.84 34.9902 371.73 34.9502 371.62 34.9202C371.52 34.8902 371.43 34.8602 371.33 34.8302C371.22 34.8002 371.11 34.7702 371 34.7402C370.9 34.7102 370.8 34.6902 370.69 34.6602C370.58 34.6302 370.46 34.6102 370.35 34.5902C370.24 34.5702 370.14 34.5502 370.02 34.5302C369.9 34.5102 369.78 34.4902 369.66 34.4702C369.54 34.4502 369.43 34.4302 369.31 34.4202C369.19 34.4002 369.06 34.3902 368.93 34.3802C368.81 34.3702 368.69 34.3502 368.57 34.3402C368.44 34.3302 368.3 34.3202 368.17 34.3102C368.04 34.3102 367.92 34.2902 367.79 34.2802C367.65 34.2802 367.51 34.2702 367.37 34.2602C367.23 34.2602 367.1 34.2502 366.96 34.2402C366.82 34.2402 366.66 34.2402 366.51 34.2402C366.37 34.2402 366.23 34.2402 366.09 34.2402C365.93 34.2402 365.77 34.2402 365.6 34.2402C365.46 34.2402 365.31 34.2402 365.17 34.2402C365 34.2402 364.83 34.2502 364.65 34.2602C364.5 34.2602 364.35 34.2602 364.19 34.2802C364.01 34.2802 363.82 34.3002 363.63 34.3102C363.47 34.3102 363.32 34.3302 363.16 34.3402C362.97 34.3502 362.77 34.3702 362.57 34.3802C362.4 34.3902 362.24 34.4002 362.07 34.4102C361.86 34.4302 361.65 34.4402 361.43 34.4602C361.26 34.4702 361.09 34.4902 360.91 34.5002C360.69 34.5202 360.46 34.5402 360.23 34.5702C360.05 34.5902 359.87 34.6002 359.69 34.6202C359.45 34.6402 359.21 34.6702 358.97 34.7002C358.78 34.7202 358.6 34.7402 358.4 34.7602C358.15 34.7902 357.89 34.8202 357.64 34.8502C357.44 34.8702 357.24 34.9002 357.04 34.9202C356.8 34.9502 356.55 34.9802 356.3 35.0102C356.07 35.0402 355.84 35.0702 355.6 35.1002C355.36 35.1302 355.11 35.1602 354.86 35.1902C354.6 35.2202 354.35 35.2602 354.08 35.2902C353.81 35.3302 353.53 35.3602 353.25 35.4002C352.99 35.4302 352.74 35.4702 352.48 35.5002C352.14 35.5502 351.79 35.6002 351.44 35.6402C351.23 35.6702 351.02 35.7002 350.8 35.7302C350.5 35.7702 350.19 35.8202 349.88 35.8602C349.58 35.9002 349.3 35.9402 348.99 35.9802C347.91 36.1302 346.77 36.3002 345.59 36.4702C345.45 36.4902 345.31 36.5102 345.17 36.5302C344.87 36.5702 344.56 36.6202 344.26 36.6602C343.19 36.8202 342.1 36.9702 340.95 37.1402L340.33 37.2302L340.38 36.6002C340.47 35.5902 340.55 34.6102 340.62 33.6602C340.63 33.5202 340.64 33.3802 340.65 33.2402C340.71 32.4202 340.78 31.6102 340.83 30.8302C340.83 30.7802 340.83 30.7302 340.84 30.6802C342.79 3.69024 339.9 2.18023 337.05 1.00023C337 1.00023 336.95 0.990234 336.9 0.990234H3.08C1.93 1.00023 1 1.93023 1 3.08023V249.92C1 251.07 1.93 252 3.08 252H374.92C376.07 252 377 251.07 377 249.92V39.7602H376.99Z" fill="white"/>
<path d="M340.23 2.06977C340.42 2.32977 340.6 2.63977 340.78 2.98977C341.64 4.72977 342.26 7.63977 342.44 12.7998C342.46 13.4398 342.48 14.1198 342.49 14.8398C342.49 15.1998 342.49 15.5698 342.49 15.9398C342.49 16.3198 342.49 16.6998 342.49 17.0998C342.49 17.8898 342.47 18.7298 342.45 19.5998C342.42 20.9098 342.36 22.3098 342.29 23.8198C342.24 24.8198 342.19 25.8698 342.12 26.9598C341.96 29.6898 341.73 32.7198 341.45 36.0698C342.21 35.9598 342.95 35.8498 343.67 35.7498C344.39 35.6398 345.1 35.5398 345.79 35.4398C347.17 35.2398 348.47 35.0498 349.71 34.8798C350.95 34.7098 352.13 34.5398 353.24 34.3898C358.82 33.6398 362.91 33.2298 366.09 33.2298C368.99 33.2298 371.14 33.5798 373 34.3398C373.45 34.5198 373.89 34.7298 374.31 34.9598C375.03 35.3598 375.73 35.8398 376.42 36.3898C375.14 32.7498 373.02 29.4398 370.24 26.7498L349.3 6.53977C346.71 4.04977 343.53 2.17977 340.09 1.14977C339.93 1.09977 339.74 1.08977 339.56 1.06977C339.44 1.04977 339.34 1.01977 339.22 1.00977C339.58 1.27977 339.92 1.61977 340.24 2.06977H340.23Z" fill="white"/>
<path d="M377.87 37.67C376.7 33.22 374.24 29.21 370.93 26.02L349.99 5.81C347.29 3.21 344.02 1.05 340.37 0.19C339.52 0 337.8 0 337.8 0H2.08C0.93 0 0 0.93 0 2.08V250.92C0 252.07 0.93 253 2.08 253H375.92C377.07 253 378 252.07 378 250.92V39.34C378.02 38.53 378.01 38.2 377.87 37.67ZM339.55 1.07C339.73 1.09 339.91 1.11 340.08 1.15C343.52 2.18 346.71 4.04 349.29 6.54L370.23 26.75C373.02 29.44 375.14 32.75 376.41 36.39C375.72 35.84 375.03 35.36 374.3 34.96C373.88 34.73 373.44 34.52 372.99 34.34C371.13 33.58 368.98 33.23 366.08 33.23C362.89 33.23 358.81 33.65 353.23 34.39C352.11 34.54 350.94 34.7 349.7 34.88C348.46 35.05 347.15 35.24 345.78 35.44C345.09 35.54 344.39 35.64 343.66 35.75C342.94 35.86 342.2 35.96 341.44 36.07C341.72 32.72 341.94 29.69 342.11 26.96C342.18 25.87 342.23 24.82 342.28 23.82C342.35 22.32 342.4 20.91 342.44 19.6C342.46 18.73 342.48 17.89 342.48 17.1C342.48 16.7 342.48 16.32 342.48 15.94C342.48 15.56 342.48 15.2 342.48 14.84C342.48 14.12 342.46 13.44 342.43 12.8C342.25 7.64 341.63 4.73 340.77 2.99C340.6 2.64 340.41 2.34 340.22 2.07C339.9 1.62 339.55 1.28 339.2 1.01C339.32 1.01 339.43 1.05 339.54 1.07H339.55ZM377 67.87V249.92C377 251.07 376.07 252 374.92 252H3.08C1.93 252 1 251.07 1 249.92V3.08C1 1.93 1.93 1 3.08 1H336.93C336.98 1 337.03 1.01 337.08 1.01C337.26 1.02 337.44 1.06 337.61 1.13C340.3 2.35 342.72 5.14 340.87 30.69C340.87 30.74 340.87 30.79 340.86 30.84C340.8 31.62 340.74 32.43 340.68 33.25C340.67 33.39 340.66 33.53 340.65 33.67C340.57 34.62 340.49 35.6 340.41 36.61L340.36 37.24L340.98 37.15C342.13 36.98 343.22 36.82 344.29 36.67C344.59 36.63 344.91 36.58 345.2 36.54C345.34 36.52 345.48 36.5 345.62 36.48C346.8 36.31 347.94 36.15 349.02 35.99C349.32 35.95 349.61 35.91 349.91 35.87C350.22 35.83 350.53 35.78 350.83 35.74C351.05 35.71 351.25 35.68 351.47 35.65C351.82 35.6 352.17 35.55 352.51 35.51C352.77 35.47 353.02 35.44 353.28 35.41C353.56 35.37 353.84 35.33 354.11 35.3C354.38 35.26 354.63 35.23 354.89 35.2C355.14 35.17 355.39 35.14 355.63 35.11C355.87 35.08 356.1 35.05 356.33 35.02C356.58 34.99 356.83 34.96 357.07 34.93C357.28 34.91 357.47 34.88 357.67 34.86C357.93 34.83 358.18 34.8 358.43 34.77C358.62 34.75 358.81 34.73 359 34.71C359.24 34.68 359.49 34.66 359.72 34.63C359.9 34.61 360.08 34.6 360.26 34.58C360.49 34.56 360.72 34.53 360.94 34.51C361.12 34.49 361.28 34.48 361.46 34.47C361.67 34.45 361.89 34.43 362.1 34.42C362.27 34.41 362.43 34.4 362.6 34.39C362.8 34.38 363 34.36 363.19 34.35C363.35 34.35 363.51 34.33 363.66 34.32C363.85 34.32 364.04 34.3 364.22 34.29C364.38 34.29 364.53 34.28 364.68 34.27C364.85 34.27 365.03 34.26 365.2 34.25C365.35 34.25 365.49 34.25 365.63 34.25C365.79 34.25 365.96 34.25 366.12 34.25C366.26 34.25 366.4 34.25 366.54 34.25C366.69 34.25 366.84 34.25 366.99 34.25C367.13 34.25 367.26 34.26 367.4 34.27C367.54 34.27 367.68 34.28 367.82 34.29C367.95 34.29 368.08 34.31 368.2 34.32C368.33 34.33 368.47 34.34 368.6 34.35C368.72 34.36 368.84 34.38 368.96 34.39C369.09 34.4 369.21 34.42 369.34 34.43C369.46 34.45 369.57 34.47 369.69 34.48C369.81 34.5 369.93 34.52 370.05 34.54C370.16 34.56 370.27 34.58 370.38 34.6C370.5 34.62 370.61 34.65 370.72 34.67C370.83 34.69 370.93 34.72 371.03 34.75C371.14 34.78 371.25 34.8 371.36 34.84C371.46 34.87 371.56 34.9 371.65 34.93C371.76 34.96 371.86 34.99 371.97 35.03C372.07 35.06 372.16 35.1 372.26 35.13C372.36 35.17 372.46 35.2 372.56 35.24C372.65 35.28 372.75 35.32 372.84 35.36C372.94 35.4 373.03 35.44 373.13 35.49C373.22 35.53 373.31 35.58 373.4 35.62C373.49 35.67 373.59 35.71 373.68 35.76C373.77 35.81 373.86 35.86 373.94 35.9C374.03 35.95 374.12 36 374.21 36.05C374.3 36.1 374.38 36.16 374.47 36.21C374.56 36.26 374.65 36.32 374.73 36.38C374.82 36.44 374.9 36.5 374.99 36.56C375.08 36.62 375.16 36.68 375.25 36.74C375.33 36.8 375.42 36.87 375.5 36.93C375.56 36.98 375.63 37.02 375.69 37.08C375.69 37.08 375.7 37.09 375.71 37.1C375.78 37.16 375.85 37.22 375.92 37.29C375.92 37.29 376.19 37.52 376.5 37.88C376.81 38.24 376.91 38.57 376.95 38.84C376.99 39.11 377.03 39.49 377.03 39.78V67.88L377 67.87Z" fill="black"/>
</g>
<defs>
<clipPath id="clip0_384_462">
<rect width="378.01" height="253" fill="white"/>
</clipPath>
</defs>
</svg>
