<svg width="60" height="36" viewBox="0 0 60 36" fill="none" xmlns="http://www.w3.org/2000/svg">
<rect width="60" height="36" rx="8" fill="#00031C"/>
<path d="M28.448 11.2V25.472H26.432V17.792H23.904V16.192H26.432V11.2H28.448ZM16.192 21.216C18.592 20.128 19.744 17.424 19.744 14.784V14.176H16.8V12.576H24.736V14.176H21.792V14.784C21.792 17.28 22.944 19.888 25.344 20.928L24.16 22.496C22.512 21.728 21.408 20.24 20.784 18.432C20.176 20.368 19.04 21.984 17.376 22.816L16.192 21.216ZM38.3401 12.16V13.76H35.4921C35.5081 15.408 36.5001 17.024 38.7881 17.696L37.8281 19.264C36.2601 18.784 35.1721 17.824 34.5321 16.608C33.9081 18.032 32.7561 19.168 31.0441 19.712L30.0521 18.144C32.3881 17.408 33.4601 15.568 33.4761 13.76H30.5961V12.16H38.3401ZM32.0041 22.688C31.9881 20.944 33.8601 19.92 36.8681 19.936C39.8281 19.92 41.6681 20.944 41.6681 22.688C41.6681 24.416 39.8281 25.44 36.8681 25.44C33.8601 25.44 31.9881 24.416 32.0041 22.688ZM33.9881 22.688C33.9881 23.488 35.0121 23.888 36.8681 23.872C38.7081 23.888 39.7001 23.488 39.6841 22.688C39.7001 21.872 38.7081 21.488 36.8681 21.472C35.0121 21.488 33.9881 21.872 33.9881 22.688ZM39.5241 19.648V11.2H41.5401V14.528H43.4601V16.128H41.5401V19.648H39.5241Z" fill="white"/>
</svg>
