<svg width="474" height="59" viewBox="0 0 474 59" fill="none" xmlns="http://www.w3.org/2000/svg">
<path d="M0.890625 9.5L2.76562 3.03125H4.75781L3.51562 9.5H0.890625ZM13.9938 3.03125V20H11.3922V5.60938H11.2984L7.24375 8.25781V5.79688L11.4625 3.03125H13.9938ZM18.9406 20V3.03125H24.9875C28.9367 3.03125 30.8703 5.39844 30.8703 8.53906C30.8703 11.668 28.925 14.0469 24.9875 14.0469H21.5187V20H18.9406ZM21.5187 11.8438H24.7297C27.2258 11.8555 28.2687 10.4492 28.2687 8.53906C28.2687 6.61719 27.2258 5.24609 24.7297 5.23438H21.5187V11.8438ZM35.7938 3.03125L39.825 9.64062H39.9656L44.0203 3.03125H46.9969L41.7 11.5156L47.0438 20H44.0203L39.9656 13.4609H39.825L35.7469 20H32.7469L38.1609 11.5156L32.7703 3.03125H35.7938ZM67.4141 8.5625C67.0039 6.37109 65.1875 5.15234 63.0312 5.16406C60.1016 5.15234 57.9336 7.40234 57.9219 11.5156C57.9336 15.6523 60.1133 17.8789 63.0312 17.8672C65.1641 17.8789 66.9688 16.6836 67.4141 14.5156L70.0156 14.5391C69.4766 17.8906 66.7461 20.2344 63.0078 20.2344C58.5898 20.2344 55.3672 16.9414 55.3672 11.5156C55.3672 6.08984 58.6133 2.79688 63.0078 2.79688C66.5938 2.79688 69.4414 4.91797 70.0156 8.5625H67.4141ZM72.9938 20V7.27344H75.5016V20H72.9938ZM72.6656 3.82812C72.6773 3.00781 73.3922 2.35156 74.2594 2.35156C75.1148 2.35156 75.8297 3.00781 75.8297 3.82812C75.8297 4.64844 75.1148 5.31641 74.2594 5.30469C73.3922 5.31641 72.6773 4.64844 72.6656 3.82812ZM81.4563 12.4531V20H78.9484V7.27344H81.3625V9.35938H81.5031C82.1008 7.98828 83.3547 7.10938 85.2531 7.10938C87.8664 7.10938 89.6008 8.76172 89.5891 11.9141V20H87.1047V12.2188C87.093 10.3672 86.0969 9.26562 84.4094 9.26562C82.6867 9.26562 81.4563 10.4258 81.4563 12.4531ZM98.5203 20.2578C94.7703 20.2578 92.4617 17.668 92.4734 13.7188C92.4617 9.80469 94.8055 7.10938 98.3562 7.10938C101.251 7.10938 104.005 8.90234 104.005 13.5078V14.3984H94.9578C95.0281 16.8242 96.4578 18.1953 98.5437 18.1953C99.9617 18.1953 100.887 17.5859 101.309 16.8125H103.841C103.278 18.875 101.321 20.2578 98.5203 20.2578ZM94.9695 12.5234H101.544C101.544 10.5898 100.29 9.16016 98.3797 9.17188C96.3758 9.16016 95.075 10.7305 94.9695 12.5234ZM106.889 20V7.27344H109.303V9.35938H109.444C109.983 7.94141 111.237 7.10938 112.912 7.10938C114.612 7.10938 115.795 7.94141 116.334 9.35938H116.475C117.073 7.98828 118.455 7.10938 120.295 7.10938C122.592 7.10938 124.221 8.55078 124.233 11.4688V20H121.725V11.7031C121.725 9.98047 120.647 9.26562 119.334 9.26562C117.729 9.26562 116.803 10.3672 116.803 11.8906V20H114.319V11.5625C114.319 10.168 113.37 9.26562 111.998 9.26562C110.592 9.26562 109.397 10.4375 109.397 12.1484V20H106.889ZM127.07 16.4141C127.059 13.5078 129.531 12.7578 131.828 12.5938C132.672 12.5469 134.582 12.4414 135.168 12.418L135.156 11.3984C135.168 9.95703 134.277 9.125 132.578 9.125C131.102 9.125 130.211 9.80469 129.953 10.7422H127.469C127.691 8.63281 129.66 7.10938 132.672 7.10938C134.699 7.10938 137.652 7.84766 137.664 11.5391V20H135.227V18.2656H135.133C134.641 19.2148 133.469 20.2812 131.359 20.2812C128.945 20.2812 127.059 18.8984 127.07 16.4141ZM129.508 16.4375C129.508 17.6562 130.516 18.2773 131.922 18.2891C133.961 18.2773 135.18 16.918 135.18 15.4062L135.168 14.2461C134.594 14.2812 132.777 14.4102 132.18 14.4453C130.539 14.5625 129.508 15.1836 129.508 16.4375ZM159.042 8.5625C158.632 6.37109 156.816 5.15234 154.659 5.16406C151.73 5.15234 149.562 7.40234 149.55 11.5156C149.562 15.6523 151.741 17.8789 154.659 17.8672C156.792 17.8789 158.597 16.6836 159.042 14.5156L161.644 14.5391C161.105 17.8906 158.374 20.2344 154.636 20.2344C150.218 20.2344 146.995 16.9414 146.995 11.5156C146.995 6.08984 150.241 2.79688 154.636 2.79688C158.222 2.79688 161.07 4.91797 161.644 8.5625H159.042ZM167.13 3.03125V20H164.622V3.03125H167.13ZM178.663 14.7031V7.27344H181.147V20H178.709V17.7969H178.569C177.983 19.1562 176.682 20.1641 174.772 20.1641C172.311 20.1641 170.577 18.5117 170.577 15.3594V7.27344H173.084V15.0547C173.084 16.7891 174.139 17.8906 175.663 17.8906C177.057 17.8906 178.663 16.8711 178.663 14.7031ZM184.805 20V3.03125H187.289V9.33594H187.43C187.887 8.53906 188.73 7.10938 191.086 7.10938C194.168 7.10938 196.441 9.52344 196.453 13.6719C196.441 17.7734 194.191 20.2461 191.109 20.2578C188.801 20.2461 187.898 18.8398 187.43 18.0078H187.242V20H184.805ZM187.242 13.625C187.242 16.2969 188.438 18.1133 190.547 18.125C192.75 18.1133 193.898 16.1797 193.898 13.625C193.898 11.1172 192.785 9.23047 190.547 9.24219C188.402 9.23047 187.242 10.9766 187.242 13.625ZM202.572 3.05469L200.697 9.52344H198.705L199.947 3.05469H202.572ZM222.706 0.992188V21.9922H220.573V0.992188H222.706ZM204.87 10.0625C204.87 5.51562 206.652 2.66797 209.394 2.67969C211.948 2.66797 213.671 5.09375 213.929 9.03125H216.308V1.39062H218.441V20.9609H216.308V10.8359H213.941C213.741 14.9375 211.995 17.4805 209.394 17.4688C206.652 17.4805 204.87 14.6211 204.87 10.0625ZM206.933 10.0625C206.933 13.4023 207.882 15.3711 209.394 15.3594C210.941 15.3711 211.902 13.4023 211.902 10.0625C211.902 6.71094 210.941 4.75391 209.394 4.76562C207.882 4.75391 206.933 6.71094 206.933 10.0625ZM241.6 2.25781C246.088 2.26953 249.358 4.48438 249.358 7.83594C249.358 10.9766 246.616 13.0742 242.702 13.3906V17.5156H251.256V19.3672H232.038V17.5156H240.498V13.3906C236.608 13.0742 233.854 10.9766 233.866 7.83594C233.854 4.48438 237.135 2.26953 241.6 2.25781ZM236.022 7.83594C236.022 10.1914 238.366 11.6562 241.6 11.6797C244.858 11.6562 247.19 10.1914 247.202 7.83594C247.19 5.5625 244.858 4.0625 241.6 4.08594C238.366 4.0625 236.022 5.5625 236.022 7.83594ZM270.594 1.01562V16.3906H268.367V1.01562H270.594ZM253.297 11.6562C256.59 10.4375 258.535 7.41406 258.547 4.25V2.16406H260.82V4.25C260.809 7.32031 262.754 10.1328 266 11.2578L264.852 13.0391C262.426 12.1367 260.633 10.3555 259.695 8.08203C258.77 10.5195 256.953 12.4648 254.492 13.4141L253.297 11.6562ZM256.859 21.5469V14.9375H259.109V19.7422H271.227V21.5469H256.859ZM298.089 1.01562V15.125H295.862V8.63281H291.573V6.80469H295.862V1.01562H298.089ZM280.886 12.1484C285.831 10.6484 288.632 7.92969 289.054 4.4375H281.964V2.63281H291.433C291.433 8.11719 288.023 11.9609 281.87 13.9062L280.886 12.1484ZM283.112 20.1406C287.062 19.5078 290.062 17.1172 290.073 14.2578V13.3906H292.277V14.2578C292.277 17.0938 295.241 19.4375 299.191 20.1172L298.277 21.875C295.089 21.3008 292.429 19.707 291.163 17.3984C289.886 19.7188 287.191 21.3242 283.98 21.9219L283.112 20.1406ZM311.286 1.34375C316.02 1.33203 318.774 2.60938 318.786 4.95312C318.774 7.30859 316.02 8.58594 311.286 8.58594C306.552 8.58594 303.774 7.30859 303.786 4.95312C303.774 2.60938 306.552 1.33203 311.286 1.34375ZM301.723 11.6562V9.875H320.872V11.6562H301.723ZM304.02 14.9375V13.2734H318.458V18.1953H306.223V20.0703H319.044V21.7812H304.044V16.5781H316.255V14.9375H304.02ZM306.106 4.95312C306.095 6.25391 307.946 6.92188 311.286 6.92188C314.649 6.92188 316.501 6.25391 316.489 4.95312C316.501 3.71094 314.649 2.98438 311.286 2.98438C307.946 2.98438 306.095 3.71094 306.106 4.95312ZM345.648 0.992188V8.1875H348.648V10.0391H345.648V17.3984H343.422V0.992188H345.648ZM328.984 13.3203C330.602 13.3203 332.488 13.3203 334.469 13.25V11.7852C332.078 11.5039 330.555 10.3555 330.578 8.63281C330.555 6.59375 332.559 5.375 335.57 5.39844C338.582 5.375 340.551 6.59375 340.562 8.63281C340.551 10.3555 339.062 11.5039 336.695 11.7734V13.1445C338.57 13.0391 340.469 12.8633 342.227 12.5938L342.414 14.1641C337.938 15.0078 332.887 15.0664 329.219 15.1016L328.984 13.3203ZM329.523 4.57812V2.9375H334.469V0.921875H336.695V2.9375H341.641V4.57812H329.523ZM332.078 21.5469V16.2969H334.305V19.7422H346.398V21.5469H332.078ZM332.688 8.63281C332.688 9.65234 333.777 10.2969 335.57 10.2969C337.34 10.2969 338.441 9.65234 338.43 8.63281C338.441 7.54297 337.34 6.91016 335.57 6.92188C333.777 6.91016 332.688 7.54297 332.688 8.63281ZM356.08 2.21094C357.826 2.19922 359.314 2.85547 360.298 3.94531H365.548V0.992188H367.775V13.3906H365.548V10.5547H360.287C359.302 11.6328 357.814 12.2773 356.08 12.2656C352.916 12.2773 350.56 10.1797 350.572 7.25C350.56 4.28516 352.916 2.19922 356.08 2.21094ZM352.705 7.25C352.693 9.08984 354.111 10.3906 356.08 10.3672C357.99 10.3906 359.408 9.08984 359.408 7.25C359.408 5.36328 357.99 4.10938 356.08 4.13281C354.111 4.10938 352.693 5.36328 352.705 7.25ZM353.642 17.9141C353.63 15.3477 356.349 13.8477 360.744 13.8594C365.115 13.8477 367.834 15.3477 367.845 17.9141C367.834 20.4688 365.115 21.957 360.744 21.9453C356.349 21.957 353.63 20.4688 353.642 17.9141ZM355.822 17.9141C355.81 19.3555 357.662 20.1992 360.744 20.1875C363.826 20.1992 365.666 19.3555 365.666 17.9141C365.666 16.4141 363.826 15.582 360.744 15.5703C357.662 15.582 355.81 16.4141 355.822 17.9141ZM361.318 5.72656C361.459 6.19531 361.541 6.71094 361.541 7.25C361.541 7.76562 361.459 8.26953 361.318 8.72656H365.548V5.72656H361.318ZM387.909 0.992188V6.26562H390.956V8.14062H387.909V13.2266H385.683V0.992188H387.909ZM371.433 4.83594V3.05469H376.589V0.804688H378.816V3.05469H383.948V4.83594H371.433ZM372.581 9.38281C372.57 7.14453 374.632 5.69141 377.691 5.70312C380.714 5.69141 382.777 7.14453 382.777 9.38281C382.777 11.6211 380.714 13.0859 377.691 13.0625C374.632 13.0859 372.57 11.6211 372.581 9.38281ZM374.48 21.7344V14.0938H376.683V16.1328H385.683V14.0938H387.909V21.7344H374.48ZM374.737 9.38281C374.714 10.6367 375.909 11.4102 377.691 11.4219C379.472 11.4102 380.667 10.6367 380.691 9.38281C380.667 8.15234 379.472 7.35547 377.691 7.36719C375.909 7.35547 374.714 8.15234 374.737 9.38281ZM376.683 19.9531H385.683V17.8672H376.683V19.9531ZM409.989 0.992188V21.9922H407.763V0.992188H409.989ZM393.841 16.6484V3.03125H396.044V14.7266C399.114 14.7148 402.337 14.4453 405.7 13.7656L406.005 15.6406C402.29 16.4023 398.915 16.6602 395.598 16.6484H393.841ZM430.053 0.992188V9.125H433.428V10.9531H430.053V22.0391H427.827V0.992188H430.053ZM414.584 16.8125V3.00781H424.405V4.8125H416.811V14.9609C420.338 14.9492 422.975 14.7969 425.975 14.2578L426.256 16.1328C422.963 16.7188 420.174 16.8242 416.272 16.8125H414.584ZM437.227 20.1641C436.312 20.1523 435.551 19.4141 435.562 18.5C435.551 17.5859 436.312 16.8359 437.227 16.8359C438.129 16.8359 438.879 17.5859 438.891 18.5C438.879 19.4141 438.129 20.1523 437.227 20.1641ZM8.29688 40.7188C8.29688 43.2734 10.2422 45.5938 13.4062 46.5312L12.3516 48.2891C9.92578 47.5508 8.13281 46.0156 7.20703 44.0234C6.26953 46.1914 4.40625 47.8555 1.92188 48.6406L0.796875 46.9062C4.04297 45.9102 6.03516 43.4727 6.04688 40.7188V40.6953H1.47656V38.8438H12.8672V40.6953H8.29688V40.7188ZM0.515625 51.875C2.15625 51.875 4.07812 51.8867 6.07031 51.8281V47.7734H8.29688V51.7578C10.1133 51.6641 11.9531 51.5234 13.6641 51.2891L13.8281 52.9062C9.32812 53.7266 4.45312 53.7148 0.84375 53.7266L0.515625 51.875ZM14.9297 57.9922V36.9922H17.1562V45.5703H20.3906V47.4453H17.1562V57.9922H14.9297ZM41.1109 48.9219V50.7734H32.5328V57.9922H30.3531V50.7734H21.8922V48.9219H41.1109ZM23.9781 42.4531C23.9898 39.5938 27.0133 37.7891 31.4547 37.7891C35.8961 37.7891 38.943 39.5938 38.9312 42.4531C38.943 45.2773 35.8961 47.0703 31.4547 47.0703C27.0133 47.0703 23.9898 45.2773 23.9781 42.4531ZM26.275 42.4531C26.2633 44.1992 28.3375 45.2891 31.4547 45.2891C34.5836 45.2891 36.6461 44.1992 36.6578 42.4531C36.6461 40.6836 34.5836 39.582 31.4547 39.5703C28.3375 39.582 26.2633 40.6836 26.275 42.4531ZM62.2766 53.6094V55.4844H43.0578V53.6094H51.5187V49.9297H45.4016V43.25H57.7297V40.2969H45.3547V38.4688H59.9328V45.0312H47.6047V48.1016H60.425V49.9297H53.7219V53.6094H62.2766ZM81.1234 39.9688C81.1234 43.3906 84.768 46.625 88.8109 47.3516L87.7797 49.2031C84.4164 48.4766 81.3344 46.2734 79.975 43.3203C78.5922 46.2617 75.5102 48.4531 72.1469 49.2031L71.1625 47.3516C75.1469 46.6016 78.768 43.3906 78.7797 39.9688V38.375H81.1234V39.9688ZM70.4594 55.2266V53.375H89.6781V55.2266H70.4594ZM108.5 39.0312V41.5859C108.5 44.6562 108.5 47.5391 107.586 51.8984L105.383 51.6875C105.828 49.7539 106.062 48.0781 106.18 46.5195L93.5703 47.1875L93.2891 45.3594L106.285 44.8672C106.332 43.7422 106.332 42.6641 106.344 41.5859V40.8594H93.875V39.0312H108.5ZM91.6016 55.1797V53.3516H110.75V55.1797H91.6016ZM131.939 46.7656V48.4297H112.72V46.7656H121.228V45.2188H115.181V40.5781H127.298V39.0781H115.134V37.5312H129.525V42.0547H117.384V43.6484H129.877V45.2188H123.431V46.7656H131.939ZM114.994 51.4297V49.8359H129.572V54.4531H117.244V56.2109H130.228V57.7812H115.017V52.9766H127.369V51.4297H114.994ZM144.269 40.4609V42.2656H133.839V40.4609H137.964V37.6016H140.167V40.4609H144.269ZM134.519 48.3594C134.507 45.5352 136.429 43.5312 139.066 43.5312C141.726 43.5312 143.624 45.5352 143.636 48.3594C143.624 51.2305 141.726 53.2461 139.066 53.2344C136.429 53.2461 134.507 51.2305 134.519 48.3594ZM136.488 48.3594C136.476 50.1406 137.554 51.3359 139.066 51.3359C140.577 51.3359 141.667 50.1406 141.667 48.3594C141.667 46.6133 140.577 45.3945 139.066 45.3828C137.554 45.3945 136.476 46.6133 136.488 48.3594ZM145.23 57.0078V37.4609H147.339V45.7344H149.753V36.9922H151.863V57.9922H149.753V47.5625H147.339V57.0078H145.23ZM162.598 42.3359C162.598 46.1797 164.755 50.0117 167.966 51.4531L166.606 53.2344C164.227 52.0391 162.423 49.6719 161.497 46.8008C160.571 49.8242 158.743 52.3789 156.317 53.6328L154.911 51.8281C158.169 50.2695 160.337 46.2266 160.348 42.3359V38.75H162.598V42.3359ZM165.645 45.7812V43.9766H170.333V36.9922H172.536V58.0391H170.333V45.7812H165.645ZM201.625 48.9219V50.7734H193.047V57.9922H190.867V50.7734H182.406V48.9219H201.625ZM184.492 42.4531C184.504 39.5938 187.527 37.7891 191.969 37.7891C196.41 37.7891 199.457 39.5938 199.445 42.4531C199.457 45.2773 196.41 47.0703 191.969 47.0703C187.527 47.0703 184.504 45.2773 184.492 42.4531ZM186.789 42.4531C186.777 44.1992 188.852 45.2891 191.969 45.2891C195.098 45.2891 197.16 44.1992 197.172 42.4531C197.16 40.6836 195.098 39.582 191.969 39.5703C188.852 39.582 186.777 40.6836 186.789 42.4531ZM221.009 36.9922V58.0391H218.783V36.9922H221.009ZM204.744 40.6953V38.8906H214.587V46.5547H207.041V51.1484C210.451 51.1367 213.416 50.9727 216.931 50.3984L217.142 52.2266C213.427 52.8477 210.263 52.9883 206.548 53H204.767V44.7734H212.314V40.6953H204.744ZM231.558 38.4922C234.874 38.4805 237.265 40.5312 237.277 43.4844C237.265 46.4375 234.874 48.4883 231.558 48.5C228.253 48.4883 225.827 46.4375 225.839 43.4844C225.827 40.5312 228.253 38.4805 231.558 38.4922ZM224.831 51.6641C228.652 51.6641 233.948 51.6289 238.542 50.9609L238.706 52.5781C233.96 53.4922 228.863 53.5156 225.113 53.5156L224.831 51.6641ZM228.042 43.4844C228.019 45.3477 229.519 46.5547 231.558 46.5547C233.597 46.5547 235.097 45.3477 235.097 43.4844C235.097 41.6445 233.597 40.4141 231.558 40.4141C229.519 40.4141 228.019 41.6445 228.042 43.4844ZM239.855 58.0391V36.9922H242.081V58.0391H239.855ZM257.928 38.2109C259.674 38.1992 261.163 38.8555 262.147 39.9453H267.397V36.9922H269.623V49.3906H267.397V46.5547H262.135C261.151 47.6328 259.663 48.2773 257.928 48.2656C254.764 48.2773 252.409 46.1797 252.42 43.25C252.409 40.2852 254.764 38.1992 257.928 38.2109ZM254.553 43.25C254.541 45.0898 255.959 46.3906 257.928 46.3672C259.838 46.3906 261.256 45.0898 261.256 43.25C261.256 41.3633 259.838 40.1094 257.928 40.1328C255.959 40.1094 254.541 41.3633 254.553 43.25ZM255.491 53.9141C255.479 51.3477 258.198 49.8477 262.592 49.8594C266.963 49.8477 269.682 51.3477 269.694 53.9141C269.682 56.4688 266.963 57.957 262.592 57.9453C258.198 57.957 255.479 56.4688 255.491 53.9141ZM257.67 53.9141C257.659 55.3555 259.51 56.1992 262.592 56.1875C265.674 56.1992 267.514 55.3555 267.514 53.9141C267.514 52.4141 265.674 51.582 262.592 51.5703C259.51 51.582 257.659 52.4141 257.67 53.9141ZM263.166 41.7266C263.307 42.1953 263.389 42.7109 263.389 43.25C263.389 43.7656 263.307 44.2695 263.166 44.7266H267.397V41.7266H263.166ZM289.711 36.9922V45.7812H292.875V47.6562H289.711V57.9922H287.484V36.9922H289.711ZM273 52.2734C274.652 52.2734 276.574 52.2734 278.578 52.2148V50.082C276.211 49.7305 274.664 48.3008 274.688 46.2734C274.664 43.9062 276.715 42.3477 279.703 42.3359C282.68 42.3477 284.754 43.9062 284.766 46.2734C284.754 48.3008 283.184 49.7422 280.805 50.082V52.1328C282.668 52.0391 284.543 51.8867 286.289 51.6406L286.43 53.2812C281.883 54.0898 276.973 54.1367 273.352 54.125L273 52.2734ZM273.398 41.2578V39.4766H278.578V37.0391H280.805V39.4766H285.984V41.2578H273.398ZM276.773 46.2734C276.773 47.6094 277.945 48.4414 279.703 48.4297C281.461 48.4414 282.621 47.6094 282.633 46.2734C282.621 44.9258 281.461 44.0703 279.703 44.0703C277.945 44.0703 276.773 44.9258 276.773 46.2734ZM313.572 45.5938V47.375H294.4V45.5938H313.572ZM296.697 50.75V49.0391H311.134V54.125H298.9V56H311.72V57.7578H296.72V52.4844H308.931V50.75H296.697ZM296.908 44.0703V37.6016H311.087V39.4062H299.134V42.2891H311.298V44.0703H296.908ZM325.105 37.3438C329.839 37.332 332.593 38.6094 332.605 40.9531C332.593 43.3086 329.839 44.5859 325.105 44.5859C320.37 44.5859 317.593 43.3086 317.605 40.9531C317.593 38.6094 320.37 37.332 325.105 37.3438ZM315.542 47.6562V45.875H334.691V47.6562H315.542ZM317.839 50.9375V49.2734H332.277V54.1953H320.042V56.0703H332.862V57.7812H317.862V52.5781H330.073V50.9375H317.839ZM319.925 40.9531C319.913 42.2539 321.765 42.9219 325.105 42.9219C328.468 42.9219 330.32 42.2539 330.308 40.9531C330.32 39.7109 328.468 38.9844 325.105 38.9844C321.765 38.9844 319.913 39.7109 319.925 40.9531ZM349.225 43.4375C349.225 46.7422 350.76 50.1055 353.655 51.6641L352.413 53.3047C350.373 52.2266 348.967 50.2227 348.205 47.8438C347.455 50.3867 346.049 52.5781 344.022 53.7969L342.709 52.1094C345.616 50.4219 347.116 46.8242 347.139 43.4375V42.5938H343.342V40.7656H347.139V37.7422H349.225V40.7656H352.952V42.5938H349.225V43.4375ZM351.569 47.0234V45.1719H354.592V37.4375H356.702V56.9375H354.592V47.0234H351.569ZM358.834 57.9922V36.9922H360.967V57.9922H358.834ZM381.594 36.9922V49.7188H379.367V45.1484H376.086V43.2969H379.367V36.9922H381.594ZM364.109 40.8594V39.0781H369.172V36.8047H371.375V39.0781H376.414V40.8594H364.109ZM365.328 45.5703C365.328 43.3672 367.391 41.8203 370.273 41.8203C373.156 41.8203 375.195 43.3672 375.195 45.5703C375.195 47.832 373.156 49.332 370.273 49.3438C367.391 49.332 365.328 47.832 365.328 45.5703ZM367.461 45.5703C367.461 46.8477 368.598 47.6445 370.273 47.6562C371.926 47.6445 373.062 46.8477 373.062 45.5703C373.062 44.3398 371.926 43.5195 370.273 43.5312C368.598 43.5195 367.461 44.3398 367.461 45.5703ZM367.742 57.7344V50.75H381.594V57.7344H367.742ZM369.945 55.9297H379.414V52.5078H369.945V55.9297ZM395.611 40.4609V42.2656H385.181V40.4609H389.306V37.6016H391.509V40.4609H395.611ZM385.861 48.3594C385.849 45.5352 387.771 43.5312 390.408 43.5312C393.068 43.5312 394.966 45.5352 394.978 48.3594C394.966 51.2305 393.068 53.2461 390.408 53.2344C387.771 53.2461 385.849 51.2305 385.861 48.3594ZM387.83 48.3594C387.818 50.1406 388.896 51.3359 390.408 51.3359C391.92 51.3359 393.009 50.1406 393.009 48.3594C393.009 46.6133 391.92 45.3945 390.408 45.3828C388.896 45.3945 387.818 46.6133 387.83 48.3594ZM396.572 57.0078V37.4609H398.681V45.7344H401.095V36.9922H403.205V57.9922H401.095V47.5625H398.681V57.0078H396.572ZM425.589 53.5391V55.3906H406.37V53.5391H414.831V49.2266H408.573V38.4219H410.8V42.0312H421.112V38.4219H423.316V49.2266H417.034V53.5391H425.589ZM410.8 47.4219H421.112V43.8359H410.8V47.4219ZM433.911 42.7344C433.911 46.0859 435.317 49.6602 438.13 51.3828L436.888 53.0938C434.919 51.9102 433.595 49.8125 432.868 47.3867C432.106 50.0469 430.653 52.3203 428.614 53.5625L427.231 51.8984C430.196 50.1172 431.766 46.4023 431.755 42.8281V38.9141H433.911V42.7344ZM435.856 46.2266V44.375H439.114V37.3906H441.223V56.9609H439.114V46.2266H435.856ZM443.45 57.9922V36.9922H445.583V57.9922H443.45ZM467.873 53.5156V55.3672H448.655V53.5156H453.248V48.0312C451.526 47.082 450.471 45.582 450.483 43.6953C450.471 40.3906 453.717 38.2227 458.217 38.2109C462.729 38.2227 465.975 40.3906 465.975 43.6953C465.975 45.5469 464.967 47.0352 463.28 47.9844V53.5156H467.873ZM452.639 43.6953C452.639 45.9453 454.924 47.4102 458.217 47.4219C461.487 47.4102 463.807 45.9453 463.819 43.6953C463.807 41.4336 461.487 39.9922 458.217 39.9922C454.924 39.9922 452.639 41.4336 452.639 43.6953ZM455.452 53.5156H461.03V48.8516C460.174 49.0508 459.225 49.1562 458.217 49.1562C457.233 49.1562 456.295 49.0508 455.452 48.8516V53.5156ZM472.188 56.1641C471.273 56.1523 470.512 55.4141 470.523 54.5C470.512 53.5859 471.273 52.8359 472.188 52.8359C473.09 52.8359 473.84 53.5859 473.852 54.5C473.84 55.4141 473.09 56.1523 472.188 56.1641Z" fill="black"/>
</svg>
