<svg width="67" height="40" viewBox="0 0 67 40" fill="none" xmlns="http://www.w3.org/2000/svg">
<path d="M10.5647 0V40H8.83988V1.87623H8.62427L0 7.61529V5.6287L8.40867 0H10.5647Z" fill="#2F3238"/>
<path d="M15.6342 40V0H27.0613C33.9069 0.0551826 38.3268 4.91131 38.3807 11.5885C38.3268 18.3209 33.9069 23.177 27.0613 23.177H17.359V40H15.6342ZM17.359 21.4111H27.0613C32.8288 21.4663 36.6019 17.3827 36.6558 11.5885C36.6019 5.84943 32.8288 1.76586 27.0613 1.76586H17.359V21.4111Z" fill="#2F3238"/>
<path d="M41.4506 0L52.9856 18.1001H53.2012L64.8439 0H67L54.2792 19.5349L67 40H64.8439L53.2012 21.08H52.9856L41.3428 40H39.2945L52.0153 19.5349L39.2945 0H41.4506Z" fill="#2F3238"/>
</svg>
