<svg width="4646" height="2381" viewBox="0 0 4646 2381" fill="none" xmlns="http://www.w3.org/2000/svg">
<path d="M136.05 201.42V212.67C136.05 216.3 139.83 218.68 143.1 217.12L304.32 140.35C311.84 136.77 319.75 144.48 316.37 152.09L29.33 796.7C27.88 799.96 30.27 803.64 33.84 803.64H133.95C135.91 803.64 137.69 802.47 138.47 800.67L482.87 8.48008C484.29 5.22008 481.9 1.58008 478.35 1.58008H379.21C375.13 1.58008 371.28 3.46007 368.78 6.69007C349.11 32.1101 256.95 145.36 145.54 187.63C139.82 189.8 136.05 195.29 136.05 201.41V201.42Z" fill="black"/>
<path d="M1118.95 1.58006H814.58C745.25 1.58006 628.54 37.3701 584.41 58.4901C573.75 63.5901 576.74 73.1001 579.02 72.4001C631.88 56.1701 694.09 35.2801 729.7 27.8101C750.85 23.3801 767.73 45.4501 757.88 64.6801C662.83 250.45 434.07 386.56 434.07 386.56C311.47 476.38 249.99 589.02 233.49 632.29C231.95 636.33 248.15 639.37 249.83 635.38C306.19 501.76 457.37 376.16 565.39 367.38C636.13 361.63 618.07 427.32 584 477.75C544.09 536.82 375.89 759.8 274.83 780.06C226.01 789.84 180.24 790.58 165.54 796.4C161.7 797.92 162.77 803.62 166.91 803.62H650.96C655.66 803.62 656.62 796.96 652.11 795.65C621.14 786.66 513.09 787.74 477.4 779.45C444.82 771.89 467.79 747.7 524.71 661.56C597.03 552.11 665.59 449.52 665.59 449.52C756.88 797.85 1074.87 638.47 1164.36 582.58C1178.77 573.58 1193.2 564.61 1206.23 553.71C1496.32 311.02 1295.17 1.56006 1118.93 1.56006L1118.95 1.58006ZM1147.57 523.18C1004.29 654.99 794.53 702.77 734.96 474.15C711.69 384.83 721.21 290.12 760.45 206.58L765.37 196.12C816.23 87.8501 925.95 18.7001 1045.54 21.7001C1113.99 23.4201 1185.2 48.2901 1239.3 122.64C1299.47 205.32 1274.95 406.02 1147.58 523.19L1147.57 523.18Z" fill="black"/>
<path d="M1352.13 638.49L1937.59 65.0398C1964.12 38.5098 1998.71 21.5598 2035.93 16.8498L2142.86 6.21984C2145.75 5.84984 2145.48 1.58984 2142.57 1.58984H1727.74C1724.47 1.58984 1724.12 6.35984 1727.35 6.83984L1848.31 20.9098C1873.33 24.6598 1883.27 55.4199 1865.16 73.0999L1352.66 573.41L1352.13 638.51V638.49Z" fill="black"/>
<path d="M1353.19 508.3L1117.74 740.19C1091.21 766.72 1056.62 783.67 1019.4 788.38L912.471 799.01C909.581 799.38 909.851 803.64 912.761 803.64H1327.59C1330.86 803.64 1331.21 798.87 1327.98 798.39L1207.02 784.32C1182 780.57 1172.06 749.81 1190.17 732.13L1352.67 573.39L1353.2 508.29L1353.19 508.3Z" fill="#211815"/>
<path d="M1307.01 78.2901C1302.26 83.0701 1294.56 74.5701 1297.27 68.4001C1307.63 44.7601 1338.24 1.58008 1369.77 1.58008L1679.81 0.580078C1683.55 0.580078 1686.62 6.53008 1683.1 7.81008C1635.39 25.0801 1581.26 148.63 1637.01 274.94C1638.35 277.99 1633.49 280.02 1631.78 277.17C1592.89 212.19 1383.22 1.58007 1307.02 78.2901H1307.01Z" fill="black"/>
<path d="M1552.06 796.99H2144.89V770.8C2144.89 755.37 2134.57 741.83 2119.68 737.79C2041.03 716.49 1798.19 627.49 1677.24 320.04L1649.79 347.49C1649.79 347.49 1779.86 637.72 1549.62 788.85C1545.94 791.27 1547.65 796.99 1552.05 796.99H1552.06Z" fill="black"/>
<path d="M886.359 853.42C888.159 849.5 892.09 847.01 896.4 847.01H1036.51C1036.62 847.01 1036.73 847.02 1036.84 847.05C1038.37 847.43 1038.01 849.78 1036.44 849.87C1025.25 850.51 971.99 857 916.71 916.11C851.97 985.34 860.12 1059.34 794.7 1061.11C766.47 1061.87 707.299 1063.15 689.19 1063.02C685.28 1062.99 684.64 1057.4 688.44 1056.49C735.94 1045.18 843.159 1005.24 745.18 921.4C608.479 804.43 335.579 951.49 234.13 1054.02C143.04 1146.08 6.89949 1380.08 223.249 1517.83C455.13 1665.47 748.839 1436.77 955.409 1192.08C957.469 1189.64 969.37 1198.31 967.62 1200.98C854.31 1375.13 655.76 1595.65 434.03 1595.65C159.94 1595.65 65.1295 1606.93 11.9395 1451.31C-35.7805 1311.7 74.9995 1100.01 262.42 976.21C394.56 888.92 531.209 817.06 708.039 855.96C884.87 894.86 856.58 995.66 856.58 995.66C856.58 995.66 870.729 942.61 874.26 903.71C876.58 878.14 882.539 861.67 886.349 853.4L886.359 853.42Z" fill="black"/>
<path d="M886.36 1637.72C888.16 1633.8 892.09 1631.31 896.4 1631.31H1036.51C1036.62 1631.31 1036.73 1631.32 1036.84 1631.35C1038.37 1631.73 1038.01 1634.08 1036.44 1634.17C1025.25 1634.81 971.99 1641.3 916.71 1700.41C851.97 1769.64 860.12 1843.64 794.7 1845.41C766.47 1846.17 707.3 1847.45 689.19 1847.32C685.28 1847.29 684.64 1841.7 688.44 1840.79C735.94 1829.48 843.16 1789.54 745.18 1705.7C608.48 1588.73 335.58 1735.79 234.13 1838.32C143.04 1930.38 6.90024 2164.38 223.25 2302.13C455.13 2449.77 780.05 2227.82 946.77 1976.26C948.53 1973.6 952.25 2006.77 951.29 2009.82C906.15 2153.55 655.76 2379.95 434.04 2379.95C159.95 2379.95 65.1402 2391.23 11.9502 2235.61C-35.7698 2096 75.0102 1884.31 262.43 1760.51C394.57 1673.22 531.22 1601.36 708.05 1640.26C884.88 1679.16 856.59 1779.96 856.59 1779.96C856.59 1779.96 870.74 1726.91 874.27 1688.01C876.59 1662.44 882.55 1645.97 886.36 1637.7V1637.72Z" fill="black"/>
<path d="M1156.82 1032.9C1205.57 1032.9 1245.08 993.385 1245.08 944.64C1245.08 895.895 1205.57 856.38 1156.82 856.38C1108.08 856.38 1068.56 895.895 1068.56 944.64C1068.56 993.385 1108.08 1032.9 1156.82 1032.9Z" stroke="black" stroke-width="43" stroke-miterlimit="10"/>
<path d="M987.27 1139.5L1295.95 1033.29C1300.72 1031.67 1305.68 1035.21 1305.68 1040.26V1595.68H1037.82C1037.82 1595.68 995.3 1598.65 999.56 1517.66C1003.4 1444.58 1027.87 1374.39 1039.09 1336.01C1042.34 1324.88 1029.77 1312.76 1018.41 1327.23C978.27 1378.33 872.83 1550.28 774.36 1595.68L636.79 1596.08C634.9 1596.1 634.51 1593.42 636.34 1592.9C693.97 1576.53 734.02 1554.94 757.73 1538.13C843.01 1477.69 1026.27 1270.95 1076.33 1300.14C1120.21 1325.72 1014.91 1456.24 1069.93 1534.29C1124.95 1612.34 1223.87 1343.46 985.88 1147.52C983.08 1145.21 983.85 1140.73 987.27 1139.51V1139.5Z" fill="black"/>
<path d="M1331.51 1116.01C1331.51 1114.05 1332.25 1112.17 1333.6 1110.74C1348.94 1094.47 1418.79 1021.7 1493.89 1013.01C1574.73 1003.66 1631.92 1037.01 1535.82 1288.57C1535.82 1288.57 1650.32 1013 1816.96 1013C2001.36 1013 2113.9 1239.4 2197.46 1584.88C2198.66 1589.83 2194.92 1594.61 2189.82 1594.64L2045.67 1595.62C2041.75 1595.65 2038.41 1592.81 2037.8 1588.95C2022.68 1492.61 1843.39 410.27 1592.31 1585.82C1591.55 1589.37 1588.42 1591.92 1584.79 1591.92H1371.46C1365.56 1591.92 1361.73 1585.69 1364.41 1580.43C1402.84 1504.94 1621.4 1081.49 1505.51 1028.25C1505.51 1028.25 1459.85 979.08 1336.2 1170.92C1334.82 1173.06 1331.51 1172.09 1331.51 1169.55V1116.02V1116.01Z" fill="black"/>
<path d="M2586.24 996.12H2382.99C2372.3 996.12 2361.86 999.34 2353.04 1005.39C2307.31 1036.75 2185.1 1133.11 2169.05 1303.85C2150.05 1505.89 2269.43 1595.84 2343.74 1595.84H2371.35C2389.12 1595.84 2412.7 1596.94 2422.52 1582.13L2734.9 1111.28C2752.5 1084.75 2735.92 1038.78 2707.43 1024.55C2678.29 1009.99 2637.13 996.1 2586.23 996.1L2586.24 996.12ZM2388.36 1547.61C2328.74 1324.72 2469.86 1009.53 2543.5 1009.53C2593.88 1009.53 2630.45 1078.5 2649.63 1125.92C2660.15 1151.92 2655.19 1179.43 2639.71 1202.82L2410.07 1549.92C2403.35 1559.75 2391.43 1559.12 2388.36 1547.61Z" fill="black"/>
<path d="M2781.03 1076.68L2863.1 1200.32C2898.41 1249.3 2903.54 1313.86 2876.38 1367.79C2833.2 1453.56 2747.07 1569.09 2589.73 1595.62L2448.74 1595.65C2437.3 1595.65 2434.08 1579.92 2444.62 1575.47C2554.32 1529.12 2784.12 1394.26 2762.86 1083.24C2762.17 1073.16 2775.12 1068.48 2781.02 1076.68H2781.03Z" fill="black"/>
<path d="M2827.75 1595.67C2820.44 1595.67 2815.45 1588.28 2818.18 1581.5C2837.47 1533.65 2907.19 1368.67 3035.15 1148.93C3111.44 1017.92 3034.81 887.58 2883.87 1195.24C2883.35 1196.31 2875.88 1148.51 2869.65 1133.02C2868.18 1129.38 2868.76 1125.23 2871.18 1122.14C2890.64 1097.24 2950.73 992.46 3043.9 992.46C3137.07 992.46 3094.14 1099.23 3077.3 1175.41C3076.77 1177.83 3080.32 1178.75 3081.03 1176.38C3093.64 1134.37 3119.35 1062.39 3156.63 1023.69C3207.26 971.14 3265.67 974.82 3312.13 1113.88C3312.72 1115.65 3315.23 1115.63 3315.78 1113.85C3320.73 1097.78 3336.85 1052.41 3369.69 1018.89C3436.61 950.58 3600.26 965.65 3816.44 1579.04C3819.42 1587.48 3813.16 1596.33 3804.21 1596.33H3581.91C3575.23 1596.33 3569.64 1591.27 3569 1584.62C3561.18 1503.62 3510.89 1029.9 3404.02 1029.9C3297.15 1029.9 3332.16 1515.89 3338.08 1587.02C3338.47 1591.68 3334.79 1595.67 3330.12 1595.67H3309.3C3304.66 1595.67 3301 1591.73 3301.33 1587.11C3306.42 1516.28 3337.25 1029.91 3224.42 1029.91C3111.59 1029.91 3066.8 1500.01 3059.41 1583.18C3058.78 1590.25 3052.86 1595.68 3045.75 1595.68H2827.73L2827.75 1595.67Z" fill="black"/>
<path d="M4623.59 1371.73L4465.52 1541.76C4449.18 1558.59 4426.61 1567.94 4403.15 1567.58C4381.41 1567.25 4369.68 1541.89 4383.57 1525.16C4451.19 1443.72 4570.94 1254.93 4394.01 1100.49C4115.32 857.22 3823.44 973.28 3692.27 1090.19C3500.31 1261.28 3422.84 1565.27 3539.04 1595.67L3603.96 1596.33C3603.96 1596.33 3376.85 1618.34 3631.14 1195.67C3686.63 1103.44 3845.6 992.47 4071.41 999.71C4078.07 999.92 4080.16 1008.93 4074.41 1012.31L3793.94 1177.49C3757.38 1199.02 3742.73 1244.51 3759.86 1283.33L3875.38 1545.17C3888.92 1575.87 3919.31 1595.68 3952.87 1595.68H4164.51C4193.46 1595.68 4220.81 1582.35 4238.64 1559.54L4284.7 1500.62C4286.76 1497.98 4290.97 1500.02 4290.18 1503.27L4276.58 1559.32C4272.09 1577.84 4286.12 1595.69 4305.18 1595.69H4407.57C4426.28 1595.69 4456.98 1596.95 4469.22 1582.79L4644.92 1390.32C4647.73 1387.07 4626.58 1368.67 4623.59 1371.75V1371.73ZM4242.52 1353.6C4179.52 1493.47 4076.07 1583.26 4011.46 1554.16C3946.85 1525.06 3945.54 1388.08 4008.54 1248.21C4071.54 1108.34 4174.99 1018.55 4239.6 1047.65C4304.21 1076.75 4305.52 1213.73 4242.52 1353.6Z" fill="black"/>
<path d="M1058.64 1629.24L1116.79 1647.85C1124.13 1650.21 1128.18 1658.07 1125.83 1665.41L898.089 2376.86L840.364 2358.39C832.783 2355.96 828.6 2347.84 831.026 2340.26L1058.63 1629.23L1058.64 1629.24Z" fill="black"/>
<path d="M1191.92 1783.67H1316.78C1324.11 1783.67 1329.36 1790.75 1327.22 1797.77L1189.83 2248.39C1189.83 2248.39 1147.34 2357.31 1234.31 2357.31C1321.28 2357.31 1528.26 2307.88 1557.81 2221.92C1604.41 2086.36 1372.67 2016.77 1594.42 1793.47C1600.63 1787.22 1609.06 1783.67 1617.87 1783.67H1809.32C1816.54 1783.67 1819.01 1793.3 1812.67 1796.76C1742.45 1835.07 1546.6 1954.8 1616.1 2120.26C1676.75 2264.65 1688.45 2262.02 1626.91 2376.88C1624.09 2382.14 1616.11 2380.14 1616.11 2374.17L1617.1 2298.1C1617.19 2292.78 1614.66 2289.36 1610.53 2292.71C1540.88 2349.19 1351.12 2380.15 1187.16 2380.15C1000.47 2380.15 1037.84 2248.37 1037.84 2248.37L1152.24 1883.05C1152.24 1883.05 1107.73 1928.88 1058.19 1952.86C1047.92 1957.83 1028.73 1964.26 1031.97 1953.32C1031.97 1953.32 1102.05 1922.64 1171.17 1796.03C1175.32 1788.42 1183.27 1783.66 1191.94 1783.66L1191.92 1783.67Z" fill="black"/>
<path d="M1716.1 2197.4L1702.74 2183.5C1707.22 2188.24 1711.67 2192.86 1716.1 2197.4Z" fill="black"/>
<path d="M1743.23 2046.55C1742.56 2048.03 1742.22 2048.82 1742.22 2048.82L1743.23 2046.55Z" fill="black"/>
<path d="M2306.07 1855.23C1969.76 1561.15 1764.76 2012.33 1765.43 2010.85L1927.69 1631.7C1930.02 1626.46 1926.18 1620.55 1920.44 1620.55H1823.79C1820.4 1620.55 1817.96 1623.85 1819.01 1627.07C1827.62 1653.69 1844.55 1769.67 1676.13 2115.36C1662.6 2143.12 1651.74 2197.63 1673.46 2219.58C1673.46 2219.58 1782.34 2343.7 1762.04 2350.8L1653.95 2365.01C1650.05 2365.7 1650.56 2371.45 1654.52 2371.45H1867.54C1873.5 2371.45 1876.54 2364.3 1872.41 2360.01L1732.55 2214.54C1945.04 2428.72 2178.65 2408.25 2314.27 2299.23C2440.93 2197.41 2503.78 2028.13 2306.05 1855.23H2306.07ZM2061.95 2325.45C1773.19 2302.59 1871.81 1982.31 1871.81 1982.31C1871.81 1982.31 1935.68 1775.83 2112.45 1798.11C2112.45 1798.11 2209.29 1805.41 2285.54 1892.57C2367.09 1985.78 2377.99 2126.64 2306.58 2227.83C2266.1 2285.19 2186.19 2335.28 2061.95 2325.45Z" fill="black"/>
</svg>
