<svg width="8345" height="1246" viewBox="0 0 8345 1246" fill="none" xmlns="http://www.w3.org/2000/svg">
<rect width="8345" height="1246" fill="black"/>
<path d="M44.5645 35.4112H40.9374V23.4376H40.8526L37.4058 25.5693V22.4194L41.1919 20.0544H44.5645V35.4112Z" fill="white"/>
<path d="M48.0113 20.0544H54.2898C55.4281 20.0544 56.418 20.2771 57.2594 20.7225C58.1007 21.1609 58.7477 21.7796 59.2002 22.5785C59.6527 23.3775 59.8789 24.3002 59.8789 25.3466C59.8789 26.4001 59.6492 27.3227 59.1896 28.1146C58.7371 28.8994 58.0795 29.511 57.2169 29.9494C56.3544 30.3807 55.3433 30.5963 54.1838 30.5963H50.2703V27.7328H53.5368C54.0954 27.7328 54.5691 27.6374 54.958 27.4465C55.3468 27.2485 55.6403 26.9692 55.8382 26.6086C56.0362 26.248 56.1352 25.8274 56.1352 25.3466C56.1352 24.8587 56.0362 24.438 55.8382 24.0845C55.6403 23.731 55.3433 23.4588 54.9474 23.2679C54.5585 23.077 54.0848 22.9815 53.5262 22.9815H51.6172V35.4112H48.0113V20.0544Z" fill="white"/>
<path d="M68.1619 24.986H68.2892L71.1739 20.0544H75.2252L70.5906 27.7328L75.3737 35.4112H71.2163L68.2892 30.4478H68.1619L65.2241 35.4112H61.1092L65.8711 27.7328L61.2152 20.0544H65.2984L68.1619 24.986Z" fill="white"/>
<path d="M92.1835 25.5799C92.1199 25.0567 91.9537 24.6042 91.685 24.2224C91.4234 23.8335 91.0734 23.5366 90.6351 23.3315C90.2038 23.1194 89.7089 23.0133 89.1503 23.0133C88.3938 23.0133 87.7433 23.2007 87.1989 23.5754C86.6545 23.9502 86.2338 24.4911 85.9368 25.1981C85.6399 25.8981 85.4914 26.743 85.4914 27.7328C85.4914 28.751 85.6399 29.61 85.9368 30.31C86.2338 31.0099 86.6509 31.5402 87.1883 31.9008C87.7327 32.2614 88.3761 32.4452 89.1185 32.4523C89.6629 32.4452 90.1508 32.3462 90.582 32.1553C91.0133 31.9574 91.3633 31.6816 91.632 31.3281C91.9077 30.9675 92.0916 30.5362 92.1835 30.0342L95.853 30.066C95.747 31.0205 95.4146 31.922 94.8561 32.7705C94.2975 33.6118 93.5198 34.2977 92.5229 34.8279C91.533 35.3582 90.377 35.6234 89.0548 35.6234C87.6549 35.6234 86.407 35.3123 85.3111 34.6901C84.2152 34.0679 83.3561 33.1629 82.7339 31.975C82.1117 30.7872 81.8006 29.3731 81.8006 27.7328C81.8006 26.0854 82.1153 24.6678 82.7445 23.48C83.3809 22.2851 84.247 21.3801 85.3429 20.765C86.4388 20.1498 87.6761 19.8423 89.0548 19.8423C90.2851 19.8423 91.3881 20.0685 92.3638 20.521C93.3466 20.9665 94.142 21.624 94.75 22.4937C95.3581 23.3563 95.7257 24.385 95.853 25.5799H92.1835Z" fill="white"/>
<path d="M101.548 35.4112H97.9423V20.0544H101.548V35.4112Z" fill="white"/>
<path d="M116.894 35.4112H113.819L107.604 26.3965H107.487V35.4112H103.881V20.0544H107.01L113.161 29.0585H113.299V20.0544H116.894V35.4112Z" fill="white"/>
<path d="M119.238 20.0544H129.876V23.0027H122.844V26.2586H129.324V29.1964H122.844V32.4629H129.876V35.4112H119.238V20.0544Z" fill="white"/>
<path d="M136.642 20.0544L140.619 29.7161H140.799L144.755 20.0544H149.241V35.4112H145.72V25.8556H145.593L141.839 35.3158H139.569L135.825 25.8238H135.698V35.4112H132.177V20.0544H136.642Z" fill="white"/>
<path d="M150.885 35.4112L156.082 20.0544H160.865L166.072 35.4112H162.191L158.542 23.8512H158.415L154.767 35.4112H150.885ZM162.615 29.3555V32.1235H154.29V29.3555H162.615Z" fill="white"/>
<path d="M182.776 25.5799C182.713 25.0567 182.546 24.6042 182.278 24.2224C182.016 23.8335 181.666 23.5366 181.228 23.3315C180.796 23.1194 180.302 23.0133 179.743 23.0133C178.986 23.0133 178.336 23.2007 177.792 23.5754C177.247 23.9502 176.826 24.4911 176.53 25.1981C176.233 25.8981 176.084 26.743 176.084 27.7328C176.084 28.751 176.233 29.61 176.53 30.31C176.826 31.0099 177.244 31.5402 177.781 31.9008C178.325 32.2614 178.969 32.4452 179.711 32.4523C180.256 32.4452 180.743 32.3462 181.175 32.1553C181.606 31.9574 181.956 31.6816 182.225 31.3281C182.5 30.9675 182.684 30.5362 182.776 30.0342L186.446 30.066C186.34 31.0205 186.007 31.922 185.449 32.7705C184.89 33.6118 184.112 34.2977 183.116 34.8279C182.126 35.3582 180.97 35.6234 179.648 35.6234C178.248 35.6234 177 35.3123 175.904 34.6901C174.808 34.0679 173.949 33.1629 173.327 31.975C172.704 30.7872 172.393 29.3731 172.393 27.7328C172.393 26.0854 172.708 24.6678 173.337 23.48C173.974 22.2851 174.84 21.3801 175.936 20.765C177.032 20.1498 178.269 19.8423 179.648 19.8423C180.878 19.8423 181.981 20.0685 182.956 20.521C183.939 20.9665 184.735 21.624 185.343 22.4937C185.951 23.3563 186.318 24.385 186.446 25.5799H182.776Z" fill="white"/>
<path d="M188.535 20.0544H192.141V32.4629H198.578V35.4112H188.535V20.0544Z" fill="white"/>
<path d="M213.416 20.0544V29.9706C213.416 31.1019 213.147 32.0917 212.61 32.9402C212.072 33.7886 211.312 34.4461 210.329 34.9128C209.347 35.3724 208.215 35.6021 206.936 35.6021C205.656 35.6021 204.528 35.3724 203.552 34.9128C202.577 34.4461 201.82 33.7886 201.283 32.9402C200.746 32.0917 200.477 31.1019 200.477 29.9706V20.0544H204.083V29.663C204.083 30.2075 204.203 30.6918 204.443 31.116C204.684 31.5331 205.02 31.8619 205.451 32.1023C205.882 32.3427 206.377 32.4629 206.936 32.4629C207.501 32.4629 208 32.3427 208.431 32.1023C208.869 31.8619 209.205 31.5331 209.439 31.116C209.679 30.6918 209.799 30.2075 209.799 29.663V20.0544H213.416Z" fill="white"/>
<path d="M215.728 20.0544H222.08C223.198 20.0544 224.145 20.217 224.923 20.5423C225.708 20.8604 226.298 21.3129 226.694 21.8998C227.09 22.4866 227.288 23.1689 227.288 23.9466C227.288 24.5264 227.168 25.0461 226.927 25.5057C226.687 25.9582 226.351 26.3364 225.92 26.6404C225.488 26.9445 224.993 27.1531 224.435 27.2662V27.4147C225.05 27.4429 225.623 27.6126 226.153 27.9237C226.69 28.2348 227.115 28.6661 227.426 29.2176C227.737 29.7691 227.892 30.4054 227.892 31.1266C227.885 31.9609 227.67 32.6998 227.245 33.3432C226.828 33.9795 226.22 34.485 225.421 34.8598C224.622 35.2274 223.668 35.4112 222.558 35.4112H215.728V20.0544ZM221.699 32.4841C222.243 32.4841 222.692 32.4134 223.046 32.272C223.406 32.1235 223.671 31.922 223.841 31.6675C224.018 31.4059 224.106 31.0877 224.106 30.713C224.106 30.317 224.011 29.9706 223.82 29.6736C223.636 29.3696 223.367 29.1398 223.014 28.9843C222.667 28.8217 222.254 28.7404 221.773 28.7404H219.334V32.4841H221.699ZM221.465 26.3965C221.882 26.3895 222.254 26.3152 222.579 26.1738C222.904 26.0324 223.155 25.8309 223.332 25.5693C223.516 25.3077 223.608 24.9931 223.608 24.6254C223.608 24.286 223.523 23.9891 223.353 23.7345C223.183 23.4729 222.943 23.275 222.632 23.1406C222.321 23.0063 221.953 22.9391 221.529 22.9391H219.334V26.3965H221.465Z" fill="white"/>
<path d="M1997.57 35.4112H1993.94V23.4376H1993.86L1990.41 25.5693V22.4194L1994.2 20.0544H1997.57V35.4112Z" fill="white"/>
<path d="M2001.02 20.0544H2007.3C2008.44 20.0544 2009.42 20.2771 2010.27 20.7225C2011.11 21.1609 2011.75 21.7796 2012.21 22.5785C2012.66 23.3775 2012.89 24.3002 2012.89 25.3466C2012.89 26.4001 2012.66 27.3227 2012.2 28.1146C2011.74 28.8994 2011.09 29.511 2010.22 29.9494C2009.36 30.3807 2008.35 30.5963 2007.19 30.5963H2003.28V27.7328H2006.54C2007.1 27.7328 2007.58 27.6374 2007.96 27.4465C2008.35 27.2485 2008.65 26.9692 2008.85 26.6086C2009.04 26.248 2009.14 25.8274 2009.14 25.3466C2009.14 24.8587 2009.04 24.438 2008.85 24.0845C2008.65 23.731 2008.35 23.4588 2007.95 23.2679C2007.57 23.077 2007.09 22.9815 2006.53 22.9815H2004.62V35.4112H2001.02V20.0544Z" fill="white"/>
<path d="M2021.17 24.986H2021.3L2024.18 20.0544H2028.23L2023.6 27.7328L2028.38 35.4112H2024.22L2021.3 30.4478H2021.17L2018.23 35.4112H2014.12L2018.88 27.7328L2014.22 20.0544H2018.31L2021.17 24.986Z" fill="white"/>
<path d="M2045.19 25.5799C2045.13 25.0567 2044.96 24.6042 2044.69 24.2224C2044.43 23.8335 2044.08 23.5366 2043.64 23.3315C2043.21 23.1194 2042.72 23.0133 2042.16 23.0133C2041.4 23.0133 2040.75 23.2007 2040.21 23.5754C2039.66 23.9502 2039.24 24.4911 2038.94 25.1981C2038.65 25.8981 2038.5 26.743 2038.5 27.7328C2038.5 28.751 2038.65 29.61 2038.94 30.31C2039.24 31.0099 2039.66 31.5402 2040.2 31.9008C2040.74 32.2614 2041.38 32.4452 2042.13 32.4523C2042.67 32.4452 2043.16 32.3462 2043.59 32.1553C2044.02 31.9574 2044.37 31.6816 2044.64 31.3281C2044.91 30.9675 2045.1 30.5362 2045.19 30.0342L2048.86 30.066C2048.75 31.0205 2048.42 31.922 2047.86 32.7705C2047.3 33.6118 2046.53 34.2977 2045.53 34.8279C2044.54 35.3582 2043.38 35.6234 2042.06 35.6234C2040.66 35.6234 2039.41 35.3123 2038.32 34.6901C2037.22 34.0679 2036.36 33.1629 2035.74 31.975C2035.12 30.7872 2034.81 29.3731 2034.81 27.7328C2034.81 26.0854 2035.12 24.6678 2035.75 23.48C2036.39 22.2851 2037.25 21.3801 2038.35 20.765C2039.45 20.1498 2040.68 19.8423 2042.06 19.8423C2043.29 19.8423 2044.4 20.0685 2045.37 20.521C2046.35 20.9665 2047.15 21.624 2047.76 22.4937C2048.37 23.3563 2048.73 24.385 2048.86 25.5799H2045.19Z" fill="white"/>
<path d="M2054.56 35.4112H2050.95V20.0544H2054.56V35.4112Z" fill="white"/>
<path d="M2069.9 35.4112H2066.83L2060.61 26.3965H2060.49V35.4112H2056.89V20.0544H2060.02L2066.17 29.0585H2066.31V20.0544H2069.9V35.4112Z" fill="white"/>
<path d="M2072.25 20.0544H2082.88V23.0027H2075.85V26.2586H2082.33V29.1964H2075.85V32.4629H2082.88V35.4112H2072.25V20.0544Z" fill="white"/>
<path d="M2089.65 20.0544L2093.63 29.7161H2093.81L2097.76 20.0544H2102.25V35.4112H2098.73V25.8556H2098.6L2094.85 35.3158H2092.58L2088.83 25.8238H2088.71V35.4112H2085.18V20.0544H2089.65Z" fill="white"/>
<path d="M2103.89 35.4112L2109.09 20.0544H2113.87L2119.08 35.4112H2115.2L2111.55 23.8512H2111.42L2107.77 35.4112H2103.89ZM2115.62 29.3555V32.1235H2107.3V29.3555H2115.62Z" fill="white"/>
<path d="M2135.78 25.5799C2135.72 25.0567 2135.55 24.6042 2135.28 24.2224C2135.02 23.8335 2134.67 23.5366 2134.23 23.3315C2133.8 23.1194 2133.31 23.0133 2132.75 23.0133C2131.99 23.0133 2131.34 23.2007 2130.8 23.5754C2130.25 23.9502 2129.83 24.4911 2129.54 25.1981C2129.24 25.8981 2129.09 26.743 2129.09 27.7328C2129.09 28.751 2129.24 29.61 2129.54 30.31C2129.83 31.0099 2130.25 31.5402 2130.79 31.9008C2131.33 32.2614 2131.98 32.4452 2132.72 32.4523C2133.26 32.4452 2133.75 32.3462 2134.18 32.1553C2134.61 31.9574 2134.96 31.6816 2135.23 31.3281C2135.51 30.9675 2135.69 30.5362 2135.78 30.0342L2139.45 30.066C2139.35 31.0205 2139.01 31.922 2138.46 32.7705C2137.9 33.6118 2137.12 34.2977 2136.12 34.8279C2135.13 35.3582 2133.98 35.6234 2132.65 35.6234C2131.25 35.6234 2130.01 35.3123 2128.91 34.6901C2127.81 34.0679 2126.96 33.1629 2126.33 31.975C2125.71 30.7872 2125.4 29.3731 2125.4 27.7328C2125.4 26.0854 2125.71 24.6678 2126.34 23.48C2126.98 22.2851 2127.85 21.3801 2128.94 20.765C2130.04 20.1498 2131.28 19.8423 2132.65 19.8423C2133.88 19.8423 2134.99 20.0685 2135.96 20.521C2136.95 20.9665 2137.74 21.624 2138.35 22.4937C2138.96 23.3563 2139.33 24.385 2139.45 25.5799H2135.78Z" fill="white"/>
<path d="M2141.54 20.0544H2145.15V32.4629H2151.59V35.4112H2141.54V20.0544Z" fill="white"/>
<path d="M2166.42 20.0544V29.9706C2166.42 31.1019 2166.15 32.0917 2165.62 32.9402C2165.08 33.7886 2164.32 34.4461 2163.34 34.9128C2162.35 35.3724 2161.22 35.6021 2159.94 35.6021C2158.66 35.6021 2157.54 35.3724 2156.56 34.9128C2155.58 34.4461 2154.83 33.7886 2154.29 32.9402C2153.75 32.0917 2153.48 31.1019 2153.48 29.9706V20.0544H2157.09V29.663C2157.09 30.2075 2157.21 30.6918 2157.45 31.116C2157.69 31.5331 2158.03 31.8619 2158.46 32.1023C2158.89 32.3427 2159.38 32.4629 2159.94 32.4629C2160.51 32.4629 2161.01 32.3427 2161.44 32.1023C2161.88 31.8619 2162.21 31.5331 2162.45 31.116C2162.69 30.6918 2162.81 30.2075 2162.81 29.663V20.0544H2166.42Z" fill="white"/>
<path d="M2168.73 20.0544H2175.09C2176.2 20.0544 2177.15 20.217 2177.93 20.5423C2178.71 20.8604 2179.3 21.3129 2179.7 21.8998C2180.1 22.4866 2180.29 23.1689 2180.29 23.9466C2180.29 24.5264 2180.17 25.0461 2179.93 25.5057C2179.69 25.9582 2179.36 26.3364 2178.93 26.6404C2178.5 26.9445 2178 27.1531 2177.44 27.2662V27.4147C2178.06 27.4429 2178.63 27.6126 2179.16 27.9237C2179.7 28.2348 2180.12 28.6661 2180.43 29.2176C2180.74 29.7691 2180.9 30.4054 2180.9 31.1266C2180.89 31.9609 2180.68 32.6998 2180.25 33.3432C2179.84 33.9795 2179.23 34.485 2178.43 34.8598C2177.63 35.2274 2176.67 35.4112 2175.56 35.4112H2168.73V20.0544ZM2174.71 32.4841C2175.25 32.4841 2175.7 32.4134 2176.05 32.272C2176.41 32.1235 2176.68 31.922 2176.85 31.6675C2177.02 31.4059 2177.11 31.0877 2177.11 30.713C2177.11 30.317 2177.02 29.9706 2176.83 29.6736C2176.64 29.3696 2176.37 29.1398 2176.02 28.9843C2175.67 28.8217 2175.26 28.7404 2174.78 28.7404H2172.34V32.4841H2174.71ZM2174.47 26.3965C2174.89 26.3895 2175.26 26.3152 2175.59 26.1738C2175.91 26.0324 2176.16 25.8309 2176.34 25.5693C2176.52 25.3077 2176.61 24.9931 2176.61 24.6254C2176.61 24.286 2176.53 23.9891 2176.36 23.7345C2176.19 23.4729 2175.95 23.275 2175.64 23.1406C2175.33 23.0063 2174.96 22.9391 2174.54 22.9391H2172.34V26.3965H2174.47Z" fill="white"/>
<path d="M3950.58 35.4112H3946.95V23.4376H3946.87L3943.42 25.5693V22.4194L3947.21 20.0544H3950.58V35.4112Z" fill="white"/>
<path d="M3954.03 20.0544H3960.3C3961.44 20.0544 3962.43 20.2771 3963.27 20.7225C3964.11 21.1609 3964.76 21.7796 3965.21 22.5785C3965.67 23.3775 3965.89 24.3002 3965.89 25.3466C3965.89 26.4001 3965.66 27.3227 3965.2 28.1146C3964.75 28.8994 3964.09 29.511 3963.23 29.9494C3962.37 30.3807 3961.36 30.5963 3960.2 30.5963H3956.28V27.7328H3959.55C3960.11 27.7328 3960.58 27.6374 3960.97 27.4465C3961.36 27.2485 3961.65 26.9692 3961.85 26.6086C3962.05 26.248 3962.15 25.8274 3962.15 25.3466C3962.15 24.8587 3962.05 24.438 3961.85 24.0845C3961.65 23.731 3961.36 23.4588 3960.96 23.2679C3960.57 23.077 3960.1 22.9815 3959.54 22.9815H3957.63V35.4112H3954.03V20.0544Z" fill="white"/>
<path d="M3974.18 24.986H3974.3L3977.19 20.0544H3981.24L3976.6 27.7328L3981.39 35.4112H3977.23L3974.3 30.4478H3974.18L3971.24 35.4112H3967.12L3971.89 27.7328L3967.23 20.0544H3971.31L3974.18 24.986Z" fill="white"/>
<path d="M3998.2 25.5799C3998.13 25.0567 3997.97 24.6042 3997.7 24.2224C3997.44 23.8335 3997.09 23.5366 3996.65 23.3315C3996.22 23.1194 3995.72 23.0133 3995.16 23.0133C3994.41 23.0133 3993.76 23.2007 3993.21 23.5754C3992.67 23.9502 3992.25 24.4911 3991.95 25.1981C3991.65 25.8981 3991.51 26.743 3991.51 27.7328C3991.51 28.751 3991.65 29.61 3991.95 30.31C3992.25 31.0099 3992.66 31.5402 3993.2 31.9008C3993.75 32.2614 3994.39 32.4452 3995.13 32.4523C3995.68 32.4452 3996.16 32.3462 3996.6 32.1553C3997.03 31.9574 3997.38 31.6816 3997.65 31.3281C3997.92 30.9675 3998.11 30.5362 3998.2 30.0342L4001.87 30.066C4001.76 31.0205 4001.43 31.922 4000.87 32.7705C4000.31 33.6118 3999.53 34.2977 3998.54 34.8279C3997.55 35.3582 3996.39 35.6234 3995.07 35.6234C3993.67 35.6234 3992.42 35.3123 3991.32 34.6901C3990.23 34.0679 3989.37 33.1629 3988.75 31.975C3988.13 30.7872 3987.81 29.3731 3987.81 27.7328C3987.81 26.0854 3988.13 24.6678 3988.76 23.48C3989.39 22.2851 3990.26 21.3801 3991.36 20.765C3992.45 20.1498 3993.69 19.8423 3995.07 19.8423C3996.3 19.8423 3997.4 20.0685 3998.38 20.521C3999.36 20.9665 4000.16 21.624 4000.76 22.4937C4001.37 23.3563 4001.74 24.385 4001.87 25.5799H3998.2Z" fill="white"/>
<path d="M4007.56 35.4112H4003.96V20.0544H4007.56V35.4112Z" fill="white"/>
<path d="M4022.91 35.4112H4019.83L4013.62 26.3965H4013.5V35.4112H4009.9V20.0544H4013.02L4019.18 29.0585H4019.31V20.0544H4022.91V35.4112Z" fill="white"/>
<path d="M4025.25 20.0544H4035.89V23.0027H4028.86V26.2586H4035.34V29.1964H4028.86V32.4629H4035.89V35.4112H4025.25V20.0544Z" fill="white"/>
<path d="M4042.66 20.0544L4046.63 29.7161H4046.81L4050.77 20.0544H4055.26V35.4112H4051.73V25.8556H4051.61L4047.85 35.3158H4045.58L4041.84 25.8238H4041.71V35.4112H4038.19V20.0544H4042.66Z" fill="white"/>
<path d="M4056.9 35.4112L4062.1 20.0544H4066.88L4072.09 35.4112H4068.2L4064.56 23.8512H4064.43L4060.78 35.4112H4056.9ZM4068.63 29.3555V32.1235H4060.3V29.3555H4068.63Z" fill="white"/>
<path d="M4088.79 25.5799C4088.73 25.0567 4088.56 24.6042 4088.29 24.2224C4088.03 23.8335 4087.68 23.5366 4087.24 23.3315C4086.81 23.1194 4086.32 23.0133 4085.76 23.0133C4085 23.0133 4084.35 23.2007 4083.81 23.5754C4083.26 23.9502 4082.84 24.4911 4082.54 25.1981C4082.25 25.8981 4082.1 26.743 4082.1 27.7328C4082.1 28.751 4082.25 29.61 4082.54 30.31C4082.84 31.0099 4083.26 31.5402 4083.79 31.9008C4084.34 32.2614 4084.98 32.4452 4085.73 32.4523C4086.27 32.4452 4086.76 32.3462 4087.19 32.1553C4087.62 31.9574 4087.97 31.6816 4088.24 31.3281C4088.51 30.9675 4088.7 30.5362 4088.79 30.0342L4092.46 30.066C4092.35 31.0205 4092.02 31.922 4091.46 32.7705C4090.9 33.6118 4090.13 34.2977 4089.13 34.8279C4088.14 35.3582 4086.98 35.6234 4085.66 35.6234C4084.26 35.6234 4083.01 35.3123 4081.92 34.6901C4080.82 34.0679 4079.96 33.1629 4079.34 31.975C4078.72 30.7872 4078.41 29.3731 4078.41 27.7328C4078.41 26.0854 4078.72 24.6678 4079.35 23.48C4079.99 22.2851 4080.85 21.3801 4081.95 20.765C4083.05 20.1498 4084.28 19.8423 4085.66 19.8423C4086.89 19.8423 4087.99 20.0685 4088.97 20.521C4089.95 20.9665 4090.75 21.624 4091.36 22.4937C4091.96 23.3563 4092.33 24.385 4092.46 25.5799H4088.79Z" fill="white"/>
<path d="M4094.55 20.0544H4098.15V32.4629H4104.59V35.4112H4094.55V20.0544Z" fill="white"/>
<path d="M4119.43 20.0544V29.9706C4119.43 31.1019 4119.16 32.0917 4118.62 32.9402C4118.09 33.7886 4117.33 34.4461 4116.34 34.9128C4115.36 35.3724 4114.23 35.6021 4112.95 35.6021C4111.67 35.6021 4110.54 35.3724 4109.57 34.9128C4108.59 34.4461 4107.83 33.7886 4107.3 32.9402C4106.76 32.0917 4106.49 31.1019 4106.49 29.9706V20.0544H4110.1V29.663C4110.1 30.2075 4110.22 30.6918 4110.46 31.116C4110.7 31.5331 4111.03 31.8619 4111.46 32.1023C4111.9 32.3427 4112.39 32.4629 4112.95 32.4629C4113.52 32.4629 4114.01 32.3427 4114.44 32.1023C4114.88 31.8619 4115.22 31.5331 4115.45 31.116C4115.69 30.6918 4115.81 30.2075 4115.81 29.663V20.0544H4119.43Z" fill="white"/>
<path d="M4121.74 20.0544H4128.09C4129.21 20.0544 4130.16 20.217 4130.94 20.5423C4131.72 20.8604 4132.31 21.3129 4132.71 21.8998C4133.1 22.4866 4133.3 23.1689 4133.3 23.9466C4133.3 24.5264 4133.18 25.0461 4132.94 25.5057C4132.7 25.9582 4132.36 26.3364 4131.93 26.6404C4131.5 26.9445 4131.01 27.1531 4130.45 27.2662V27.4147C4131.06 27.4429 4131.64 27.6126 4132.17 27.9237C4132.7 28.2348 4133.13 28.6661 4133.44 29.2176C4133.75 29.7691 4133.91 30.4054 4133.91 31.1266C4133.9 31.9609 4133.68 32.6998 4133.26 33.3432C4132.84 33.9795 4132.23 34.485 4131.44 34.8598C4130.64 35.2274 4129.68 35.4112 4128.57 35.4112H4121.74V20.0544ZM4127.71 32.4841C4128.26 32.4841 4128.71 32.4134 4129.06 32.272C4129.42 32.1235 4129.69 31.922 4129.85 31.6675C4130.03 31.4059 4130.12 31.0877 4130.12 30.713C4130.12 30.317 4130.02 29.9706 4129.83 29.6736C4129.65 29.3696 4129.38 29.1398 4129.03 28.9843C4128.68 28.8217 4128.27 28.7404 4127.79 28.7404H4125.35V32.4841H4127.71ZM4127.48 26.3965C4127.9 26.3895 4128.27 26.3152 4128.59 26.1738C4128.92 26.0324 4129.17 25.8309 4129.35 25.5693C4129.53 25.3077 4129.62 24.9931 4129.62 24.6254C4129.62 24.286 4129.54 23.9891 4129.37 23.7345C4129.2 23.4729 4128.96 23.275 4128.65 23.1406C4128.33 23.0063 4127.97 22.9391 4127.54 22.9391H4125.35V26.3965H4127.48Z" fill="white"/>
<path d="M5918.07 35.4112H5914.44V23.4376H5914.35L5910.91 25.5693V22.4194L5914.69 20.0544H5918.07V35.4112Z" fill="white"/>
<path d="M5921.51 20.0544H5927.79C5928.93 20.0544 5929.92 20.2771 5930.76 20.7225C5931.6 21.1609 5932.25 21.7796 5932.7 22.5785C5933.15 23.3775 5933.38 24.3002 5933.38 25.3466C5933.38 26.4001 5933.15 27.3227 5932.69 28.1146C5932.24 28.8994 5931.58 29.511 5930.72 29.9494C5929.86 30.3807 5928.84 30.5963 5927.68 30.5963H5923.77V27.7328H5927.04C5927.6 27.7328 5928.07 27.6374 5928.46 27.4465C5928.85 27.2485 5929.14 26.9692 5929.34 26.6086C5929.54 26.248 5929.64 25.8274 5929.64 25.3466C5929.64 24.8587 5929.54 24.438 5929.34 24.0845C5929.14 23.731 5928.84 23.4588 5928.45 23.2679C5928.06 23.077 5927.59 22.9815 5927.03 22.9815H5925.12V35.4112H5921.51V20.0544Z" fill="white"/>
<path d="M5941.66 24.986H5941.79L5944.67 20.0544H5948.73L5944.09 27.7328L5948.87 35.4112H5944.72L5941.79 30.4478H5941.66L5938.73 35.4112H5934.61L5939.37 27.7328L5934.72 20.0544H5938.8L5941.66 24.986Z" fill="white"/>
<path d="M5965.68 25.5799C5965.62 25.0567 5965.45 24.6042 5965.19 24.2224C5964.92 23.8335 5964.57 23.5366 5964.14 23.3315C5963.7 23.1194 5963.21 23.0133 5962.65 23.0133C5961.89 23.0133 5961.24 23.2007 5960.7 23.5754C5960.16 23.9502 5959.73 24.4911 5959.44 25.1981C5959.14 25.8981 5958.99 26.743 5958.99 27.7328C5958.99 28.751 5959.14 29.61 5959.44 30.31C5959.73 31.0099 5960.15 31.5402 5960.69 31.9008C5961.23 32.2614 5961.88 32.4452 5962.62 32.4523C5963.16 32.4452 5963.65 32.3462 5964.08 32.1553C5964.51 31.9574 5964.86 31.6816 5965.13 31.3281C5965.41 30.9675 5965.59 30.5362 5965.68 30.0342L5969.35 30.066C5969.25 31.0205 5968.92 31.922 5968.36 32.7705C5967.8 33.6118 5967.02 34.2977 5966.02 34.8279C5965.03 35.3582 5963.88 35.6234 5962.56 35.6234C5961.16 35.6234 5959.91 35.3123 5958.81 34.6901C5957.72 34.0679 5956.86 33.1629 5956.23 31.975C5955.61 30.7872 5955.3 29.3731 5955.3 27.7328C5955.3 26.0854 5955.62 24.6678 5956.25 23.48C5956.88 22.2851 5957.75 21.3801 5958.84 20.765C5959.94 20.1498 5961.18 19.8423 5962.56 19.8423C5963.79 19.8423 5964.89 20.0685 5965.86 20.521C5966.85 20.9665 5967.64 21.624 5968.25 22.4937C5968.86 23.3563 5969.23 24.385 5969.35 25.5799H5965.68Z" fill="white"/>
<path d="M5975.05 35.4112H5971.44V20.0544H5975.05V35.4112Z" fill="white"/>
<path d="M5990.4 35.4112H5987.32L5981.1 26.3965H5980.99V35.4112H5977.38V20.0544H5980.51L5986.66 29.0585H5986.8V20.0544H5990.4V35.4112Z" fill="white"/>
<path d="M5992.74 20.0544H6003.38V23.0027H5996.35V26.2586H6002.83V29.1964H5996.35V32.4629H6003.38V35.4112H5992.74V20.0544Z" fill="white"/>
<path d="M6010.14 20.0544L6014.12 29.7161H6014.3L6018.26 20.0544H6022.74V35.4112H6019.22V25.8556H6019.09L6015.34 35.3158H6013.07L6009.33 25.8238H6009.2V35.4112H6005.68V20.0544H6010.14Z" fill="white"/>
<path d="M6024.39 35.4112L6029.58 20.0544H6034.37L6039.57 35.4112H6035.69L6032.04 23.8512H6031.92L6028.27 35.4112H6024.39ZM6036.12 29.3555V32.1235H6027.79V29.3555H6036.12Z" fill="white"/>
<path d="M6056.28 25.5799C6056.21 25.0567 6056.05 24.6042 6055.78 24.2224C6055.52 23.8335 6055.17 23.5366 6054.73 23.3315C6054.3 23.1194 6053.8 23.0133 6053.24 23.0133C6052.49 23.0133 6051.84 23.2007 6051.29 23.5754C6050.75 23.9502 6050.33 24.4911 6050.03 25.1981C6049.73 25.8981 6049.58 26.743 6049.58 27.7328C6049.58 28.751 6049.73 29.61 6050.03 30.31C6050.33 31.0099 6050.74 31.5402 6051.28 31.9008C6051.83 32.2614 6052.47 32.4452 6053.21 32.4523C6053.76 32.4452 6054.24 32.3462 6054.68 32.1553C6055.11 31.9574 6055.46 31.6816 6055.73 31.3281C6056 30.9675 6056.19 30.5362 6056.28 30.0342L6059.95 30.066C6059.84 31.0205 6059.51 31.922 6058.95 32.7705C6058.39 33.6118 6057.61 34.2977 6056.62 34.8279C6055.63 35.3582 6054.47 35.6234 6053.15 35.6234C6051.75 35.6234 6050.5 35.3123 6049.4 34.6901C6048.31 34.0679 6047.45 33.1629 6046.83 31.975C6046.21 30.7872 6045.89 29.3731 6045.89 27.7328C6045.89 26.0854 6046.21 24.6678 6046.84 23.48C6047.47 22.2851 6048.34 21.3801 6049.44 20.765C6050.53 20.1498 6051.77 19.8423 6053.15 19.8423C6054.38 19.8423 6055.48 20.0685 6056.46 20.521C6057.44 20.9665 6058.24 21.624 6058.84 22.4937C6059.45 23.3563 6059.82 24.385 6059.95 25.5799H6056.28Z" fill="white"/>
<path d="M6062.04 20.0544H6065.64V32.4629H6072.08V35.4112H6062.04V20.0544Z" fill="white"/>
<path d="M6086.92 20.0544V29.9706C6086.92 31.1019 6086.65 32.0917 6086.11 32.9402C6085.57 33.7886 6084.81 34.4461 6083.83 34.9128C6082.85 35.3724 6081.72 35.6021 6080.44 35.6021C6079.16 35.6021 6078.03 35.3724 6077.05 34.9128C6076.08 34.4461 6075.32 33.7886 6074.78 32.9402C6074.25 32.0917 6073.98 31.1019 6073.98 29.9706V20.0544H6077.58V29.663C6077.58 30.2075 6077.7 30.6918 6077.94 31.116C6078.18 31.5331 6078.52 31.8619 6078.95 32.1023C6079.38 32.3427 6079.88 32.4629 6080.44 32.4629C6081 32.4629 6081.5 32.3427 6081.93 32.1023C6082.37 31.8619 6082.71 31.5331 6082.94 31.116C6083.18 30.6918 6083.3 30.2075 6083.3 29.663V20.0544H6086.92Z" fill="white"/>
<path d="M6089.23 20.0544H6095.58C6096.7 20.0544 6097.65 20.217 6098.42 20.5423C6099.21 20.8604 6099.8 21.3129 6100.19 21.8998C6100.59 22.4866 6100.79 23.1689 6100.79 23.9466C6100.79 24.5264 6100.67 25.0461 6100.43 25.5057C6100.19 25.9582 6099.85 26.3364 6099.42 26.6404C6098.99 26.9445 6098.49 27.1531 6097.94 27.2662V27.4147C6098.55 27.4429 6099.12 27.6126 6099.65 27.9237C6100.19 28.2348 6100.62 28.6661 6100.93 29.2176C6101.24 29.7691 6101.39 30.4054 6101.39 31.1266C6101.39 31.9609 6101.17 32.6998 6100.75 33.3432C6100.33 33.9795 6099.72 34.485 6098.92 34.8598C6098.12 35.2274 6097.17 35.4112 6096.06 35.4112H6089.23V20.0544ZM6095.2 32.4841C6095.74 32.4841 6096.19 32.4134 6096.55 32.272C6096.91 32.1235 6097.17 31.922 6097.34 31.6675C6097.52 31.4059 6097.61 31.0877 6097.61 30.713C6097.61 30.317 6097.51 29.9706 6097.32 29.6736C6097.14 29.3696 6096.87 29.1398 6096.51 28.9843C6096.17 28.8217 6095.75 28.7404 6095.27 28.7404H6092.83V32.4841H6095.2ZM6094.97 26.3965C6095.38 26.3895 6095.75 26.3152 6096.08 26.1738C6096.41 26.0324 6096.66 25.8309 6096.83 25.5693C6097.02 25.3077 6097.11 24.9931 6097.11 24.6254C6097.11 24.286 6097.02 23.9891 6096.85 23.7345C6096.68 23.4729 6096.44 23.275 6096.13 23.1406C6095.82 23.0063 6095.45 22.9391 6095.03 22.9391H6092.83V26.3965H6094.97Z" fill="white"/>
<path d="M7885.55 35.4112H7881.93V23.4376H7881.84L7878.39 25.5693V22.4194L7882.18 20.0544H7885.55V35.4112Z" fill="white"/>
<path d="M7889 20.0544H7895.28C7896.42 20.0544 7897.41 20.2771 7898.25 20.7225C7899.09 21.1609 7899.74 21.7796 7900.19 22.5785C7900.64 23.3775 7900.87 24.3002 7900.87 25.3466C7900.87 26.4001 7900.64 27.3227 7900.18 28.1146C7899.73 28.8994 7899.07 29.511 7898.2 29.9494C7897.34 30.3807 7896.33 30.5963 7895.17 30.5963H7891.26V27.7328H7894.52C7895.08 27.7328 7895.56 27.6374 7895.95 27.4465C7896.33 27.2485 7896.63 26.9692 7896.83 26.6086C7897.02 26.248 7897.12 25.8274 7897.12 25.3466C7897.12 24.8587 7897.02 24.438 7896.83 24.0845C7896.63 23.731 7896.33 23.4588 7895.94 23.2679C7895.55 23.077 7895.07 22.9815 7894.51 22.9815H7892.61V35.4112H7889V20.0544Z" fill="white"/>
<path d="M7909.15 24.986H7909.28L7912.16 20.0544H7916.21L7911.58 27.7328L7916.36 35.4112H7912.2L7909.28 30.4478H7909.15L7906.21 35.4112H7902.1L7906.86 27.7328L7902.2 20.0544H7906.29L7909.15 24.986Z" fill="white"/>
<path d="M7933.17 25.5799C7933.11 25.0567 7932.94 24.6042 7932.67 24.2224C7932.41 23.8335 7932.06 23.5366 7931.62 23.3315C7931.19 23.1194 7930.7 23.0133 7930.14 23.0133C7929.38 23.0133 7928.73 23.2007 7928.19 23.5754C7927.64 23.9502 7927.22 24.4911 7926.92 25.1981C7926.63 25.8981 7926.48 26.743 7926.48 27.7328C7926.48 28.751 7926.63 29.61 7926.92 30.31C7927.22 31.0099 7927.64 31.5402 7928.18 31.9008C7928.72 32.2614 7929.36 32.4452 7930.11 32.4523C7930.65 32.4452 7931.14 32.3462 7931.57 32.1553C7932 31.9574 7932.35 31.6816 7932.62 31.3281C7932.9 30.9675 7933.08 30.5362 7933.17 30.0342L7936.84 30.066C7936.73 31.0205 7936.4 31.922 7935.84 32.7705C7935.29 33.6118 7934.51 34.2977 7933.51 34.8279C7932.52 35.3582 7931.36 35.6234 7930.04 35.6234C7928.64 35.6234 7927.4 35.3123 7926.3 34.6901C7925.2 34.0679 7924.34 33.1629 7923.72 31.975C7923.1 30.7872 7922.79 29.3731 7922.79 27.7328C7922.79 26.0854 7923.1 24.6678 7923.73 23.48C7924.37 22.2851 7925.24 21.3801 7926.33 20.765C7927.43 20.1498 7928.66 19.8423 7930.04 19.8423C7931.27 19.8423 7932.38 20.0685 7933.35 20.521C7934.33 20.9665 7935.13 21.624 7935.74 22.4937C7936.35 23.3563 7936.71 24.385 7936.84 25.5799H7933.17Z" fill="white"/>
<path d="M7942.54 35.4112H7938.93V20.0544H7942.54V35.4112Z" fill="white"/>
<path d="M7957.88 35.4112H7954.81L7948.59 26.3965H7948.48V35.4112H7944.87V20.0544H7948L7954.15 29.0585H7954.29V20.0544H7957.88V35.4112Z" fill="white"/>
<path d="M7960.23 20.0544H7970.86V23.0027H7963.83V26.2586H7970.31V29.1964H7963.83V32.4629H7970.86V35.4112H7960.23V20.0544Z" fill="white"/>
<path d="M7977.63 20.0544L7981.61 29.7161H7981.79L7985.74 20.0544H7990.23V35.4112H7986.71V25.8556H7986.58L7982.83 35.3158H7980.56L7976.81 25.8238H7976.69V35.4112H7973.17V20.0544H7977.63Z" fill="white"/>
<path d="M7991.87 35.4112L7997.07 20.0544H8001.85L8007.06 35.4112H8003.18L7999.53 23.8512H7999.4L7995.75 35.4112H7991.87ZM8003.6 29.3555V32.1235H7995.28V29.3555H8003.6Z" fill="white"/>
<path d="M8023.76 25.5799C8023.7 25.0567 8023.53 24.6042 8023.27 24.2224C8023 23.8335 8022.65 23.5366 8022.22 23.3315C8021.78 23.1194 8021.29 23.0133 8020.73 23.0133C8019.97 23.0133 8019.32 23.2007 8018.78 23.5754C8018.24 23.9502 8017.81 24.4911 8017.52 25.1981C8017.22 25.8981 8017.07 26.743 8017.07 27.7328C8017.07 28.751 8017.22 29.61 8017.52 30.31C8017.81 31.0099 8018.23 31.5402 8018.77 31.9008C8019.31 32.2614 8019.96 32.4452 8020.7 32.4523C8021.24 32.4452 8021.73 32.3462 8022.16 32.1553C8022.59 31.9574 8022.94 31.6816 8023.21 31.3281C8023.49 30.9675 8023.67 30.5362 8023.76 30.0342L8027.43 30.066C8027.33 31.0205 8027 31.922 8026.44 32.7705C8025.88 33.6118 8025.1 34.2977 8024.1 34.8279C8023.11 35.3582 8021.96 35.6234 8020.64 35.6234C8019.24 35.6234 8017.99 35.3123 8016.89 34.6901C8015.8 34.0679 8014.94 33.1629 8014.31 31.975C8013.69 30.7872 8013.38 29.3731 8013.38 27.7328C8013.38 26.0854 8013.7 24.6678 8014.33 23.48C8014.96 22.2851 8015.83 21.3801 8016.92 20.765C8018.02 20.1498 8019.26 19.8423 8020.64 19.8423C8021.87 19.8423 8022.97 20.0685 8023.94 20.521C8024.93 20.9665 8025.72 21.624 8026.33 22.4937C8026.94 23.3563 8027.31 24.385 8027.43 25.5799H8023.76Z" fill="white"/>
<path d="M8029.52 20.0544H8033.13V32.4629H8039.57V35.4112H8029.52V20.0544Z" fill="white"/>
<path d="M8054.4 20.0544V29.9706C8054.4 31.1019 8054.14 32.0917 8053.6 32.9402C8053.06 33.7886 8052.3 34.4461 8051.32 34.9128C8050.33 35.3724 8049.2 35.6021 8047.92 35.6021C8046.64 35.6021 8045.52 35.3724 8044.54 34.9128C8043.56 34.4461 8042.81 33.7886 8042.27 32.9402C8041.73 32.0917 8041.47 31.1019 8041.47 29.9706V20.0544H8045.07V29.663C8045.07 30.2075 8045.19 30.6918 8045.43 31.116C8045.67 31.5331 8046.01 31.8619 8046.44 32.1023C8046.87 32.3427 8047.36 32.4629 8047.92 32.4629C8048.49 32.4629 8048.99 32.3427 8049.42 32.1023C8049.86 31.8619 8050.19 31.5331 8050.43 31.116C8050.67 30.6918 8050.79 30.2075 8050.79 29.663V20.0544H8054.4Z" fill="white"/>
<path d="M8056.72 20.0544H8063.07C8064.19 20.0544 8065.13 20.217 8065.91 20.5423C8066.7 20.8604 8067.29 21.3129 8067.68 21.8998C8068.08 22.4866 8068.28 23.1689 8068.28 23.9466C8068.28 24.5264 8068.16 25.0461 8067.92 25.5057C8067.67 25.9582 8067.34 26.3364 8066.91 26.6404C8066.48 26.9445 8065.98 27.1531 8065.42 27.2662V27.4147C8066.04 27.4429 8066.61 27.6126 8067.14 27.9237C8067.68 28.2348 8068.1 28.6661 8068.41 29.2176C8068.72 29.7691 8068.88 30.4054 8068.88 31.1266C8068.87 31.9609 8068.66 32.6998 8068.23 33.3432C8067.82 33.9795 8067.21 34.485 8066.41 34.8598C8065.61 35.2274 8064.66 35.4112 8063.55 35.4112H8056.72V20.0544ZM8062.69 32.4841C8063.23 32.4841 8063.68 32.4134 8064.03 32.272C8064.39 32.1235 8064.66 31.922 8064.83 31.6675C8065.01 31.4059 8065.09 31.0877 8065.09 30.713C8065.09 30.317 8065 29.9706 8064.81 29.6736C8064.62 29.3696 8064.36 29.1398 8064 28.9843C8063.66 28.8217 8063.24 28.7404 8062.76 28.7404H8060.32V32.4841H8062.69ZM8062.45 26.3965C8062.87 26.3895 8063.24 26.3152 8063.57 26.1738C8063.89 26.0324 8064.14 25.8309 8064.32 25.5693C8064.5 25.3077 8064.6 24.9931 8064.6 24.6254C8064.6 24.286 8064.51 23.9891 8064.34 23.7345C8064.17 23.4729 8063.93 23.275 8063.62 23.1406C8063.31 23.0063 8062.94 22.9391 8062.52 22.9391H8060.32V26.3965H8062.45Z" fill="white"/>
<path d="M66.498 1209.21C62.459 1209.21 59.9883 1206.33 59.9883 1201.22C59.9883 1196.12 62.459 1193.23 66.498 1193.23C70.5371 1193.23 73.0186 1196.14 73.0078 1201.22C73.0186 1206.34 70.5371 1209.21 66.498 1209.21ZM63.748 1201.22C63.7373 1204.67 64.8438 1206.23 66.498 1206.23C68.1523 1206.23 69.2588 1204.67 69.248 1201.22C69.248 1197.83 68.1523 1196.21 66.498 1196.2C64.8545 1196.21 63.7588 1197.83 63.748 1201.22ZM78.4004 1209H74.4473L79.7324 1193.45H84.5879L89.8516 1209H85.9199L84.8672 1205.67H79.4531L78.4004 1209ZM80.334 1202.88H83.9863L82.2246 1197.29H82.0957L80.334 1202.88Z" fill="white"/>
<path d="M53 1201.5L26 1208.86L26 1194.14L53 1201.5Z" fill="white"/>
<path d="M563.182 1209V1193.45H569.541C573.043 1193.45 575.202 1195.63 575.191 1198.79C575.202 1202.01 573 1204.12 569.434 1204.12H566.834V1209H563.182ZM566.834 1201.22H568.768C570.497 1201.23 571.41 1200.27 571.41 1198.79C571.41 1197.34 570.497 1196.41 568.768 1196.41H566.834V1201.22ZM577.018 1209V1197.33H580.541V1199.44H580.648C581.078 1197.91 582.109 1197.17 583.398 1197.16C583.731 1197.17 584.129 1197.23 584.43 1197.29V1200.45C584.086 1200.34 583.431 1200.27 582.99 1200.28C581.637 1200.27 580.638 1201.21 580.648 1202.62V1209H577.018ZM590.939 1209.21C587.298 1209.21 585.074 1206.8 585.074 1203.2C585.074 1199.6 587.298 1197.18 590.939 1197.18C594.592 1197.18 596.805 1199.6 596.805 1203.2C596.805 1206.8 594.592 1209.21 590.939 1209.21ZM588.77 1203.18C588.759 1205.13 589.532 1206.48 590.961 1206.49C592.347 1206.48 593.12 1205.13 593.109 1203.18C593.12 1201.23 592.347 1199.88 590.961 1199.87C589.532 1199.88 588.759 1201.23 588.77 1203.18ZM598.674 1197.33H602.305V1209.49C602.294 1212.35 600.468 1213.37 597.6 1213.38L596.848 1213.36V1210.59C597.03 1210.61 597.159 1210.62 597.299 1210.61C598.33 1210.62 598.674 1210.24 598.674 1209.43V1197.33ZM598.609 1194.2C598.609 1193.23 599.447 1192.45 600.479 1192.46C601.521 1192.45 602.358 1193.23 602.369 1194.2C602.358 1195.16 601.521 1195.94 600.479 1195.94C599.447 1195.94 598.609 1195.16 598.609 1194.2ZM610.061 1209.21C606.408 1209.21 604.174 1206.94 604.174 1203.22C604.174 1199.6 606.43 1197.18 609.932 1197.18C613.208 1197.18 615.561 1199.27 615.561 1203.13V1204.06H607.74V1204.12C607.751 1205.62 608.653 1206.59 610.125 1206.59C611.113 1206.59 611.854 1206.16 612.145 1205.48H615.518C615.077 1207.75 613.079 1209.21 610.061 1209.21ZM607.74 1201.93H612.188C612.166 1200.69 611.264 1199.8 610.018 1199.8C608.739 1199.8 607.794 1200.73 607.74 1201.93ZM622.844 1209.21C619.17 1209.21 616.979 1206.77 616.979 1203.2C616.979 1199.62 619.191 1197.18 622.844 1197.18C626.034 1197.18 628.129 1199.03 628.215 1201.87H624.842C624.681 1200.69 623.972 1199.94 622.887 1199.93C621.555 1199.94 620.663 1201.07 620.674 1203.16C620.663 1205.27 621.544 1206.41 622.887 1206.4C623.929 1206.41 624.681 1205.72 624.842 1204.49H628.215C628.118 1207.33 626.088 1209.21 622.844 1209.21ZM636.594 1197.33V1200H634.467V1205.35C634.478 1206.08 634.843 1206.3 635.455 1206.31C635.756 1206.34 636.336 1206.3 636.744 1206.27V1209.04C636.39 1209.1 635.788 1209.16 634.939 1209.17C632.372 1209.16 630.836 1208.11 630.857 1205.76V1200H629.289V1197.33H630.857V1194.54H634.467V1197.33H636.594ZM650.473 1193.45V1209H646.799V1196.88H646.713L643.211 1199.03V1195.85L647.057 1193.45H650.473Z" fill="white"/>
<path d="M1259.25 1193.45V1209H1255.58V1196.88H1255.49L1251.99 1199.03V1195.85L1255.83 1193.45H1259.25ZM1265.93 1209H1261.98L1267.26 1193.45H1272.12L1277.38 1209H1273.45L1272.4 1205.67H1266.98L1265.93 1209ZM1267.87 1202.88H1271.52L1269.76 1197.29H1269.63L1267.87 1202.88Z" fill="white"/>
<path d="M1245 1201.5L1218 1208.86L1218 1194.14L1245 1201.5Z" fill="white"/>
<path d="M1755.18 1209V1193.45H1761.54C1765.04 1193.45 1767.2 1195.63 1767.19 1198.79C1767.2 1202.01 1765 1204.12 1761.43 1204.12H1758.83V1209H1755.18ZM1758.83 1201.22H1760.77C1762.5 1201.23 1763.41 1200.27 1763.41 1198.79C1763.41 1197.34 1762.5 1196.41 1760.77 1196.41H1758.83V1201.22ZM1769.02 1209V1197.33H1772.54V1199.44H1772.65C1773.08 1197.91 1774.11 1197.17 1775.4 1197.16C1775.73 1197.17 1776.13 1197.23 1776.43 1197.29V1200.45C1776.09 1200.34 1775.43 1200.27 1774.99 1200.28C1773.64 1200.27 1772.64 1201.21 1772.65 1202.62V1209H1769.02ZM1782.94 1209.21C1779.3 1209.21 1777.07 1206.8 1777.07 1203.2C1777.07 1199.6 1779.3 1197.18 1782.94 1197.18C1786.59 1197.18 1788.8 1199.6 1788.8 1203.2C1788.8 1206.8 1786.59 1209.21 1782.94 1209.21ZM1780.77 1203.18C1780.76 1205.13 1781.53 1206.48 1782.96 1206.49C1784.35 1206.48 1785.12 1205.13 1785.11 1203.18C1785.12 1201.23 1784.35 1199.88 1782.96 1199.87C1781.53 1199.88 1780.76 1201.23 1780.77 1203.18ZM1790.67 1197.33H1794.3V1209.49C1794.29 1212.35 1792.47 1213.37 1789.6 1213.38L1788.85 1213.36V1210.59C1789.03 1210.61 1789.16 1210.62 1789.3 1210.61C1790.33 1210.62 1790.67 1210.24 1790.67 1209.43V1197.33ZM1790.61 1194.2C1790.61 1193.23 1791.45 1192.45 1792.48 1192.46C1793.52 1192.45 1794.36 1193.23 1794.37 1194.2C1794.36 1195.16 1793.52 1195.94 1792.48 1195.94C1791.45 1195.94 1790.61 1195.16 1790.61 1194.2ZM1802.06 1209.21C1798.41 1209.21 1796.17 1206.94 1796.17 1203.22C1796.17 1199.6 1798.43 1197.18 1801.93 1197.18C1805.21 1197.18 1807.56 1199.27 1807.56 1203.13V1204.06H1799.74V1204.12C1799.75 1205.62 1800.65 1206.59 1802.12 1206.59C1803.11 1206.59 1803.85 1206.16 1804.14 1205.48H1807.52C1807.08 1207.75 1805.08 1209.21 1802.06 1209.21ZM1799.74 1201.93H1804.19C1804.17 1200.69 1803.26 1199.8 1802.02 1199.8C1800.74 1199.8 1799.79 1200.73 1799.74 1201.93ZM1814.84 1209.21C1811.17 1209.21 1808.98 1206.77 1808.98 1203.2C1808.98 1199.62 1811.19 1197.18 1814.84 1197.18C1818.03 1197.18 1820.13 1199.03 1820.21 1201.87H1816.84C1816.68 1200.69 1815.97 1199.94 1814.89 1199.93C1813.55 1199.94 1812.66 1201.07 1812.67 1203.16C1812.66 1205.27 1813.54 1206.41 1814.89 1206.4C1815.93 1206.41 1816.68 1205.72 1816.84 1204.49H1820.21C1820.12 1207.33 1818.09 1209.21 1814.84 1209.21ZM1828.59 1197.33V1200H1826.47V1205.35C1826.48 1206.08 1826.84 1206.3 1827.46 1206.31C1827.76 1206.34 1828.34 1206.3 1828.74 1206.27V1209.04C1828.39 1209.1 1827.79 1209.16 1826.94 1209.17C1824.37 1209.16 1822.84 1208.11 1822.86 1205.76V1200H1821.29V1197.33H1822.86V1194.54H1826.47V1197.33H1828.59ZM1835.36 1209V1206.36L1841.03 1201.37C1842.35 1200.17 1843.11 1199.38 1843.12 1198.19C1843.11 1196.89 1842.15 1196.1 1840.84 1196.09C1839.51 1196.1 1838.62 1196.94 1838.63 1198.34H1835.15C1835.14 1195.21 1837.43 1193.23 1840.86 1193.23C1844.36 1193.23 1846.65 1195.13 1846.66 1197.91C1846.65 1199.7 1845.77 1201.19 1842.41 1204.12L1840.45 1205.93V1206.04H1846.86V1209H1835.36Z" fill="white"/>
<path d="M2439.14 1209V1206.36L2444.81 1201.37C2446.13 1200.17 2446.88 1199.38 2446.89 1198.19C2446.88 1196.89 2445.93 1196.1 2444.62 1196.09C2443.29 1196.1 2442.39 1196.94 2442.4 1198.34H2438.92C2438.91 1195.21 2441.21 1193.23 2444.64 1193.23C2448.14 1193.23 2450.43 1195.13 2450.44 1197.91C2450.43 1199.7 2449.55 1201.19 2446.19 1204.12L2444.23 1205.93V1206.04H2450.63V1209H2439.14ZM2456 1209H2452.05L2457.34 1193.45H2462.19L2467.46 1209H2463.52L2462.47 1205.67H2457.06L2456 1209ZM2457.94 1202.88H2461.59L2459.83 1197.29H2459.7L2457.94 1202.88Z" fill="white"/>
<path d="M2432 1201.5L2405 1208.86L2405 1194.14L2432 1201.5Z" fill="white"/>
<path d="M2942.18 1209V1193.45H2948.54C2952.04 1193.45 2954.2 1195.63 2954.19 1198.79C2954.2 1202.01 2952 1204.12 2948.43 1204.12H2945.83V1209H2942.18ZM2945.83 1201.22H2947.77C2949.5 1201.23 2950.41 1200.27 2950.41 1198.79C2950.41 1197.34 2949.5 1196.41 2947.77 1196.41H2945.83V1201.22ZM2956.02 1209V1197.33H2959.54V1199.44H2959.65C2960.08 1197.91 2961.11 1197.17 2962.4 1197.16C2962.73 1197.17 2963.13 1197.23 2963.43 1197.29V1200.45C2963.09 1200.34 2962.43 1200.27 2961.99 1200.28C2960.64 1200.27 2959.64 1201.21 2959.65 1202.62V1209H2956.02ZM2969.94 1209.21C2966.3 1209.21 2964.07 1206.8 2964.07 1203.2C2964.07 1199.6 2966.3 1197.18 2969.94 1197.18C2973.59 1197.18 2975.8 1199.6 2975.8 1203.2C2975.8 1206.8 2973.59 1209.21 2969.94 1209.21ZM2967.77 1203.18C2967.76 1205.13 2968.53 1206.48 2969.96 1206.49C2971.35 1206.48 2972.12 1205.13 2972.11 1203.18C2972.12 1201.23 2971.35 1199.88 2969.96 1199.87C2968.53 1199.88 2967.76 1201.23 2967.77 1203.18ZM2977.67 1197.33H2981.3V1209.49C2981.29 1212.35 2979.47 1213.37 2976.6 1213.38L2975.85 1213.36V1210.59C2976.03 1210.61 2976.16 1210.62 2976.3 1210.61C2977.33 1210.62 2977.67 1210.24 2977.67 1209.43V1197.33ZM2977.61 1194.2C2977.61 1193.23 2978.45 1192.45 2979.48 1192.46C2980.52 1192.45 2981.36 1193.23 2981.37 1194.2C2981.36 1195.16 2980.52 1195.94 2979.48 1195.94C2978.45 1195.94 2977.61 1195.16 2977.61 1194.2ZM2989.06 1209.21C2985.41 1209.21 2983.17 1206.94 2983.17 1203.22C2983.17 1199.6 2985.43 1197.18 2988.93 1197.18C2992.21 1197.18 2994.56 1199.27 2994.56 1203.13V1204.06H2986.74V1204.12C2986.75 1205.62 2987.65 1206.59 2989.12 1206.59C2990.11 1206.59 2990.85 1206.16 2991.14 1205.48H2994.52C2994.08 1207.75 2992.08 1209.21 2989.06 1209.21ZM2986.74 1201.93H2991.19C2991.17 1200.69 2990.26 1199.8 2989.02 1199.8C2987.74 1199.8 2986.79 1200.73 2986.74 1201.93ZM3001.84 1209.21C2998.17 1209.21 2995.98 1206.77 2995.98 1203.2C2995.98 1199.62 2998.19 1197.18 3001.84 1197.18C3005.03 1197.18 3007.13 1199.03 3007.21 1201.87H3003.84C3003.68 1200.69 3002.97 1199.94 3001.89 1199.93C3000.55 1199.94 2999.66 1201.07 2999.67 1203.16C2999.66 1205.27 3000.54 1206.41 3001.89 1206.4C3002.93 1206.41 3003.68 1205.72 3003.84 1204.49H3007.21C3007.12 1207.33 3005.09 1209.21 3001.84 1209.21ZM3015.59 1197.33V1200H3013.47V1205.35C3013.48 1206.08 3013.84 1206.3 3014.46 1206.31C3014.76 1206.34 3015.34 1206.3 3015.74 1206.27V1209.04C3015.39 1209.1 3014.79 1209.16 3013.94 1209.17C3011.37 1209.16 3009.84 1208.11 3009.86 1205.76V1200H3008.29V1197.33H3009.86V1194.54H3013.47V1197.33H3015.59ZM3028.27 1209.21C3024.72 1209.21 3022.2 1207.26 3022.17 1204.47H3025.86C3025.9 1205.51 3026.91 1206.22 3028.29 1206.23C3029.67 1206.22 3030.65 1205.44 3030.63 1204.32C3030.65 1203.19 3029.6 1202.39 3027.97 1202.38H3026.46V1199.76H3027.97C3029.39 1199.77 3030.38 1199.01 3030.38 1197.89C3030.38 1196.84 3029.54 1196.1 3028.29 1196.09C3027.01 1196.1 3026.01 1196.83 3025.99 1197.91H3022.47C3022.51 1195.15 3024.96 1193.23 3028.31 1193.23C3031.63 1193.23 3033.91 1195.14 3033.9 1197.68C3033.91 1199.42 3032.64 1200.63 3030.85 1200.9V1201.01C3033.23 1201.3 3034.49 1202.66 3034.48 1204.6C3034.49 1207.29 3031.9 1209.21 3028.27 1209.21Z" fill="white"/>
<path d="M3634.05 1209.21C3630.5 1209.21 3627.98 1207.26 3627.95 1204.47H3631.64C3631.67 1205.51 3632.68 1206.22 3634.07 1206.23C3635.44 1206.22 3636.43 1205.44 3636.41 1204.32C3636.43 1203.19 3635.38 1202.39 3633.75 1202.38H3632.24V1199.76H3633.75C3635.16 1199.77 3636.15 1199.01 3636.15 1197.89C3636.15 1196.84 3635.31 1196.1 3634.07 1196.09C3632.79 1196.1 3631.79 1196.83 3631.77 1197.91H3628.25C3628.29 1195.15 3630.74 1193.23 3634.09 1193.23C3637.41 1193.23 3639.69 1195.14 3639.68 1197.68C3639.69 1199.42 3638.42 1200.63 3636.62 1200.9V1201.01C3639.01 1201.3 3640.27 1202.66 3640.26 1204.6C3640.27 1207.29 3637.68 1209.21 3634.05 1209.21ZM3645.63 1209H3641.67L3646.96 1193.45H3651.81L3657.08 1209H3653.15L3652.09 1205.67H3646.68L3645.63 1209ZM3647.56 1202.88H3651.21L3649.45 1197.29H3649.32L3647.56 1202.88Z" fill="white"/>
<path d="M3621 1201.5L3594 1208.86L3594 1194.14L3621 1201.5Z" fill="white"/>
<path d="M4131.18 1209V1193.45H4137.54C4141.04 1193.45 4143.2 1195.63 4143.19 1198.79C4143.2 1202.01 4141 1204.12 4137.43 1204.12H4134.83V1209H4131.18ZM4134.83 1201.22H4136.77C4138.5 1201.23 4139.41 1200.27 4139.41 1198.79C4139.41 1197.34 4138.5 1196.41 4136.77 1196.41H4134.83V1201.22ZM4145.02 1209V1197.33H4148.54V1199.44H4148.65C4149.08 1197.91 4150.11 1197.17 4151.4 1197.16C4151.73 1197.17 4152.13 1197.23 4152.43 1197.29V1200.45C4152.09 1200.34 4151.43 1200.27 4150.99 1200.28C4149.64 1200.27 4148.64 1201.21 4148.65 1202.62V1209H4145.02ZM4158.94 1209.21C4155.3 1209.21 4153.07 1206.8 4153.07 1203.2C4153.07 1199.6 4155.3 1197.18 4158.94 1197.18C4162.59 1197.18 4164.8 1199.6 4164.8 1203.2C4164.8 1206.8 4162.59 1209.21 4158.94 1209.21ZM4156.77 1203.18C4156.76 1205.13 4157.53 1206.48 4158.96 1206.49C4160.35 1206.48 4161.12 1205.13 4161.11 1203.18C4161.12 1201.23 4160.35 1199.88 4158.96 1199.87C4157.53 1199.88 4156.76 1201.23 4156.77 1203.18ZM4166.67 1197.33H4170.3V1209.49C4170.29 1212.35 4168.47 1213.37 4165.6 1213.38L4164.85 1213.36V1210.59C4165.03 1210.61 4165.16 1210.62 4165.3 1210.61C4166.33 1210.62 4166.67 1210.24 4166.67 1209.43V1197.33ZM4166.61 1194.2C4166.61 1193.23 4167.45 1192.45 4168.48 1192.46C4169.52 1192.45 4170.36 1193.23 4170.37 1194.2C4170.36 1195.16 4169.52 1195.94 4168.48 1195.94C4167.45 1195.94 4166.61 1195.16 4166.61 1194.2ZM4178.06 1209.21C4174.41 1209.21 4172.17 1206.94 4172.17 1203.22C4172.17 1199.6 4174.43 1197.18 4177.93 1197.18C4181.21 1197.18 4183.56 1199.27 4183.56 1203.13V1204.06H4175.74V1204.12C4175.75 1205.62 4176.65 1206.59 4178.12 1206.59C4179.11 1206.59 4179.85 1206.16 4180.14 1205.48H4183.52C4183.08 1207.75 4181.08 1209.21 4178.06 1209.21ZM4175.74 1201.93H4180.19C4180.17 1200.69 4179.26 1199.8 4178.02 1199.8C4176.74 1199.8 4175.79 1200.73 4175.74 1201.93ZM4190.84 1209.21C4187.17 1209.21 4184.98 1206.77 4184.98 1203.2C4184.98 1199.62 4187.19 1197.18 4190.84 1197.18C4194.03 1197.18 4196.13 1199.03 4196.21 1201.87H4192.84C4192.68 1200.69 4191.97 1199.94 4190.89 1199.93C4189.55 1199.94 4188.66 1201.07 4188.67 1203.16C4188.66 1205.27 4189.54 1206.41 4190.89 1206.4C4191.93 1206.41 4192.68 1205.72 4192.84 1204.49H4196.21C4196.12 1207.33 4194.09 1209.21 4190.84 1209.21ZM4204.59 1197.33V1200H4202.47V1205.35C4202.48 1206.08 4202.84 1206.3 4203.46 1206.31C4203.76 1206.34 4204.34 1206.3 4204.74 1206.27V1209.04C4204.39 1209.1 4203.79 1209.16 4202.94 1209.17C4200.37 1209.16 4198.84 1208.11 4198.86 1205.76V1200H4197.29V1197.33H4198.86V1194.54H4202.47V1197.33H4204.59ZM4211.15 1206.38V1203.52L4217.59 1193.45H4222.21V1203.5H4224.1V1206.38H4222.21V1209H4218.71V1206.38H4211.15ZM4214.8 1203.5H4218.77V1197.33H4218.64L4214.8 1203.37V1203.5Z" fill="white"/>
<path d="M4821.92 1206.38V1203.52L4828.37 1193.45H4832.99V1203.5H4834.88V1206.38H4832.99V1209H4829.49V1206.38H4821.92ZM4825.58 1203.5H4829.55V1197.33H4829.42L4825.58 1203.37V1203.5ZM4840.1 1209H4836.15L4841.43 1193.45H4846.29L4851.55 1209H4847.62L4846.57 1205.67H4841.15L4840.1 1209ZM4842.03 1202.88H4845.69L4843.92 1197.29H4843.79L4842.03 1202.88Z" fill="white"/>
<path d="M4815 1201.5L4788 1208.86L4788 1194.14L4815 1201.5Z" fill="white"/>
<path d="M5325.18 1209V1193.45H5331.54C5335.04 1193.45 5337.2 1195.63 5337.19 1198.79C5337.2 1202.01 5335 1204.12 5331.43 1204.12H5328.83V1209H5325.18ZM5328.83 1201.22H5330.77C5332.5 1201.23 5333.41 1200.27 5333.41 1198.79C5333.41 1197.34 5332.5 1196.41 5330.77 1196.41H5328.83V1201.22ZM5339.02 1209V1197.33H5342.54V1199.44H5342.65C5343.08 1197.91 5344.11 1197.17 5345.4 1197.16C5345.73 1197.17 5346.13 1197.23 5346.43 1197.29V1200.45C5346.09 1200.34 5345.43 1200.27 5344.99 1200.28C5343.64 1200.27 5342.64 1201.21 5342.65 1202.62V1209H5339.02ZM5352.94 1209.21C5349.3 1209.21 5347.07 1206.8 5347.07 1203.2C5347.07 1199.6 5349.3 1197.18 5352.94 1197.18C5356.59 1197.18 5358.8 1199.6 5358.8 1203.2C5358.8 1206.8 5356.59 1209.21 5352.94 1209.21ZM5350.77 1203.18C5350.76 1205.13 5351.53 1206.48 5352.96 1206.49C5354.35 1206.48 5355.12 1205.13 5355.11 1203.18C5355.12 1201.23 5354.35 1199.88 5352.96 1199.87C5351.53 1199.88 5350.76 1201.23 5350.77 1203.18ZM5360.67 1197.33H5364.3V1209.49C5364.29 1212.35 5362.47 1213.37 5359.6 1213.38L5358.85 1213.36V1210.59C5359.03 1210.61 5359.16 1210.62 5359.3 1210.61C5360.33 1210.62 5360.67 1210.24 5360.67 1209.43V1197.33ZM5360.61 1194.2C5360.61 1193.23 5361.45 1192.45 5362.48 1192.46C5363.52 1192.45 5364.36 1193.23 5364.37 1194.2C5364.36 1195.16 5363.52 1195.94 5362.48 1195.94C5361.45 1195.94 5360.61 1195.16 5360.61 1194.2ZM5372.06 1209.21C5368.41 1209.21 5366.17 1206.94 5366.17 1203.22C5366.17 1199.6 5368.43 1197.18 5371.93 1197.18C5375.21 1197.18 5377.56 1199.27 5377.56 1203.13V1204.06H5369.74V1204.12C5369.75 1205.62 5370.65 1206.59 5372.12 1206.59C5373.11 1206.59 5373.85 1206.16 5374.14 1205.48H5377.52C5377.08 1207.75 5375.08 1209.21 5372.06 1209.21ZM5369.74 1201.93H5374.19C5374.17 1200.69 5373.26 1199.8 5372.02 1199.8C5370.74 1199.8 5369.79 1200.73 5369.74 1201.93ZM5384.84 1209.21C5381.17 1209.21 5378.98 1206.77 5378.98 1203.2C5378.98 1199.62 5381.19 1197.18 5384.84 1197.18C5388.03 1197.18 5390.13 1199.03 5390.21 1201.87H5386.84C5386.68 1200.69 5385.97 1199.94 5384.89 1199.93C5383.55 1199.94 5382.66 1201.07 5382.67 1203.16C5382.66 1205.27 5383.54 1206.41 5384.89 1206.4C5385.93 1206.41 5386.68 1205.72 5386.84 1204.49H5390.21C5390.12 1207.33 5388.09 1209.21 5384.84 1209.21ZM5398.59 1197.33V1200H5396.47V1205.35C5396.48 1206.08 5396.84 1206.3 5397.46 1206.31C5397.76 1206.34 5398.34 1206.3 5398.74 1206.27V1209.04C5398.39 1209.1 5397.79 1209.16 5396.94 1209.17C5394.37 1209.16 5392.84 1208.11 5392.86 1205.76V1200H5391.29V1197.33H5392.86V1194.54H5396.47V1197.33H5398.59ZM5411.31 1209.21C5407.91 1209.21 5405.46 1207.24 5405.4 1204.47H5408.97C5409.02 1205.62 5410.04 1206.39 5411.31 1206.38C5412.77 1206.39 5413.82 1205.36 5413.8 1203.84C5413.82 1202.33 5412.76 1201.29 5411.27 1201.29C5410.16 1201.29 5409.41 1201.73 5408.99 1202.55H5405.71L5406.48 1193.45H5416.43V1196.41H5409.49L5409.12 1200.13H5409.23C5409.75 1199.28 5410.98 1198.66 5412.43 1198.67C5415.25 1198.66 5417.35 1200.77 5417.35 1203.74C5417.35 1206.94 5414.93 1209.21 5411.31 1209.21Z" fill="white"/>
<path d="M6020.09 1209.21C6016.68 1209.21 6014.24 1207.24 6014.18 1204.47H6017.75C6017.8 1205.62 6018.82 1206.39 6020.09 1206.38C6021.55 1206.39 6022.59 1205.36 6022.58 1203.84C6022.59 1202.33 6021.54 1201.29 6020.05 1201.29C6018.94 1201.29 6018.19 1201.73 6017.77 1202.55H6014.48L6015.26 1193.45H6025.2V1196.41H6018.26L6017.9 1200.13H6018.01C6018.53 1199.28 6019.76 1198.66 6021.21 1198.67C6024.03 1198.66 6026.13 1200.77 6026.13 1203.74C6026.13 1206.94 6023.71 1209.21 6020.09 1209.21ZM6031.43 1209H6027.48L6032.77 1193.45H6037.62L6042.88 1209H6038.95L6037.9 1205.67H6032.49L6031.43 1209ZM6033.37 1202.88H6037.02L6035.26 1197.29H6035.13L6033.37 1202.88Z" fill="white"/>
<path d="M6007 1201.5L5980 1208.86L5980 1194.14L6007 1201.5Z" fill="white"/>
<path d="M6517.18 1209V1193.45H6523.54C6527.04 1193.45 6529.2 1195.63 6529.19 1198.79C6529.2 1202.01 6527 1204.12 6523.43 1204.12H6520.83V1209H6517.18ZM6520.83 1201.22H6522.77C6524.5 1201.23 6525.41 1200.27 6525.41 1198.79C6525.41 1197.34 6524.5 1196.41 6522.77 1196.41H6520.83V1201.22ZM6531.02 1209V1197.33H6534.54V1199.44H6534.65C6535.08 1197.91 6536.11 1197.17 6537.4 1197.16C6537.73 1197.17 6538.13 1197.23 6538.43 1197.29V1200.45C6538.09 1200.34 6537.43 1200.27 6536.99 1200.28C6535.64 1200.27 6534.64 1201.21 6534.65 1202.62V1209H6531.02ZM6544.94 1209.21C6541.3 1209.21 6539.07 1206.8 6539.07 1203.2C6539.07 1199.6 6541.3 1197.18 6544.94 1197.18C6548.59 1197.18 6550.8 1199.6 6550.8 1203.2C6550.8 1206.8 6548.59 1209.21 6544.94 1209.21ZM6542.77 1203.18C6542.76 1205.13 6543.53 1206.48 6544.96 1206.49C6546.35 1206.48 6547.12 1205.13 6547.11 1203.18C6547.12 1201.23 6546.35 1199.88 6544.96 1199.87C6543.53 1199.88 6542.76 1201.23 6542.77 1203.18ZM6552.67 1197.33H6556.3V1209.49C6556.29 1212.35 6554.47 1213.37 6551.6 1213.38L6550.85 1213.36V1210.59C6551.03 1210.61 6551.16 1210.62 6551.3 1210.61C6552.33 1210.62 6552.67 1210.24 6552.67 1209.43V1197.33ZM6552.61 1194.2C6552.61 1193.23 6553.45 1192.45 6554.48 1192.46C6555.52 1192.45 6556.36 1193.23 6556.37 1194.2C6556.36 1195.16 6555.52 1195.94 6554.48 1195.94C6553.45 1195.94 6552.61 1195.16 6552.61 1194.2ZM6564.06 1209.21C6560.41 1209.21 6558.17 1206.94 6558.17 1203.22C6558.17 1199.6 6560.43 1197.18 6563.93 1197.18C6567.21 1197.18 6569.56 1199.27 6569.56 1203.13V1204.06H6561.74V1204.12C6561.75 1205.62 6562.65 1206.59 6564.12 1206.59C6565.11 1206.59 6565.85 1206.16 6566.14 1205.48H6569.52C6569.08 1207.75 6567.08 1209.21 6564.06 1209.21ZM6561.74 1201.93H6566.19C6566.17 1200.69 6565.26 1199.8 6564.02 1199.8C6562.74 1199.8 6561.79 1200.73 6561.74 1201.93ZM6576.84 1209.21C6573.17 1209.21 6570.98 1206.77 6570.98 1203.2C6570.98 1199.62 6573.19 1197.18 6576.84 1197.18C6580.03 1197.18 6582.13 1199.03 6582.21 1201.87H6578.84C6578.68 1200.69 6577.97 1199.94 6576.89 1199.93C6575.55 1199.94 6574.66 1201.07 6574.67 1203.16C6574.66 1205.27 6575.54 1206.41 6576.89 1206.4C6577.93 1206.41 6578.68 1205.72 6578.84 1204.49H6582.21C6582.12 1207.33 6580.09 1209.21 6576.84 1209.21ZM6590.59 1197.33V1200H6588.47V1205.35C6588.48 1206.08 6588.84 1206.3 6589.46 1206.31C6589.76 1206.34 6590.34 1206.3 6590.74 1206.27V1209.04C6590.39 1209.1 6589.79 1209.16 6588.94 1209.17C6586.37 1209.16 6584.84 1208.11 6584.86 1205.76V1200H6583.29V1197.33H6584.86V1194.54H6588.47V1197.33H6590.59ZM6603.59 1209.21C6600.2 1209.2 6597.1 1207.18 6597.1 1201.5C6597.12 1196.35 6599.7 1193.23 6603.68 1193.23C6606.94 1193.23 6609.16 1195.3 6609.46 1197.91H6605.85C6605.61 1196.9 6604.77 1196.36 6603.68 1196.37C6601.71 1196.36 6600.73 1198.16 6600.73 1200.99H6600.84C6601.51 1199.58 6603.08 1198.75 6604.82 1198.75C6607.63 1198.75 6609.64 1200.85 6609.63 1203.74C6609.64 1206.98 6607.18 1209.21 6603.59 1209.21ZM6601.08 1203.87C6601.08 1205.27 6602.13 1206.39 6603.57 1206.38C6605.02 1206.39 6606.08 1205.29 6606.06 1203.84C6606.08 1202.42 6605.03 1201.33 6603.59 1201.33C6602.15 1201.33 6601.08 1202.44 6601.08 1203.87Z" fill="white"/>
<path d="M7212.37 1209.21C7208.97 1209.2 7205.88 1207.18 7205.88 1201.5C7205.9 1196.35 7208.48 1193.23 7212.46 1193.23C7215.72 1193.23 7217.93 1195.3 7218.23 1197.91H7214.62C7214.39 1196.9 7213.55 1196.36 7212.46 1196.37C7210.49 1196.36 7209.51 1198.16 7209.51 1200.99H7209.62C7210.29 1199.58 7211.85 1198.75 7213.59 1198.75C7216.41 1198.75 7218.42 1200.85 7218.41 1203.74C7218.42 1206.98 7215.96 1209.21 7212.37 1209.21ZM7209.86 1203.87C7209.86 1205.27 7210.91 1206.39 7212.35 1206.38C7213.8 1206.39 7214.86 1205.29 7214.84 1203.84C7214.86 1202.42 7213.81 1201.33 7212.37 1201.33C7210.93 1201.33 7209.86 1202.44 7209.86 1203.87ZM7223.78 1209H7219.82L7225.11 1193.45H7229.96L7235.23 1209H7231.3L7230.24 1205.67H7224.83L7223.78 1209ZM7225.71 1202.88H7229.36L7227.6 1197.29H7227.47L7225.71 1202.88Z" fill="white"/>
<path d="M7199 1201.5L7172 1208.86L7172 1194.14L7199 1201.5Z" fill="white"/>
<path d="M7709.18 1209V1193.45H7715.54C7719.04 1193.45 7721.2 1195.63 7721.19 1198.79C7721.2 1202.01 7719 1204.12 7715.43 1204.12H7712.83V1209H7709.18ZM7712.83 1201.22H7714.77C7716.5 1201.23 7717.41 1200.27 7717.41 1198.79C7717.41 1197.34 7716.5 1196.41 7714.77 1196.41H7712.83V1201.22ZM7723.02 1209V1197.33H7726.54V1199.44H7726.65C7727.08 1197.91 7728.11 1197.17 7729.4 1197.16C7729.73 1197.17 7730.13 1197.23 7730.43 1197.29V1200.45C7730.09 1200.34 7729.43 1200.27 7728.99 1200.28C7727.64 1200.27 7726.64 1201.21 7726.65 1202.62V1209H7723.02ZM7736.94 1209.21C7733.3 1209.21 7731.07 1206.8 7731.07 1203.2C7731.07 1199.6 7733.3 1197.18 7736.94 1197.18C7740.59 1197.18 7742.8 1199.6 7742.8 1203.2C7742.8 1206.8 7740.59 1209.21 7736.94 1209.21ZM7734.77 1203.18C7734.76 1205.13 7735.53 1206.48 7736.96 1206.49C7738.35 1206.48 7739.12 1205.13 7739.11 1203.18C7739.12 1201.23 7738.35 1199.88 7736.96 1199.87C7735.53 1199.88 7734.76 1201.23 7734.77 1203.18ZM7744.67 1197.33H7748.3V1209.49C7748.29 1212.35 7746.47 1213.37 7743.6 1213.38L7742.85 1213.36V1210.59C7743.03 1210.61 7743.16 1210.62 7743.3 1210.61C7744.33 1210.62 7744.67 1210.24 7744.67 1209.43V1197.33ZM7744.61 1194.2C7744.61 1193.23 7745.45 1192.45 7746.48 1192.46C7747.52 1192.45 7748.36 1193.23 7748.37 1194.2C7748.36 1195.16 7747.52 1195.94 7746.48 1195.94C7745.45 1195.94 7744.61 1195.16 7744.61 1194.2ZM7756.06 1209.21C7752.41 1209.21 7750.17 1206.94 7750.17 1203.22C7750.17 1199.6 7752.43 1197.18 7755.93 1197.18C7759.21 1197.18 7761.56 1199.27 7761.56 1203.13V1204.06H7753.74V1204.12C7753.75 1205.62 7754.65 1206.59 7756.12 1206.59C7757.11 1206.59 7757.85 1206.16 7758.14 1205.48H7761.52C7761.08 1207.75 7759.08 1209.21 7756.06 1209.21ZM7753.74 1201.93H7758.19C7758.17 1200.69 7757.26 1199.8 7756.02 1199.8C7754.74 1199.8 7753.79 1200.73 7753.74 1201.93ZM7768.84 1209.21C7765.17 1209.21 7762.98 1206.77 7762.98 1203.2C7762.98 1199.62 7765.19 1197.18 7768.84 1197.18C7772.03 1197.18 7774.13 1199.03 7774.21 1201.87H7770.84C7770.68 1200.69 7769.97 1199.94 7768.89 1199.93C7767.55 1199.94 7766.66 1201.07 7766.67 1203.16C7766.66 1205.27 7767.54 1206.41 7768.89 1206.4C7769.93 1206.41 7770.68 1205.72 7770.84 1204.49H7774.21C7774.12 1207.33 7772.09 1209.21 7768.84 1209.21ZM7782.59 1197.33V1200H7780.47V1205.35C7780.48 1206.08 7780.84 1206.3 7781.46 1206.31C7781.76 1206.34 7782.34 1206.3 7782.74 1206.27V1209.04C7782.39 1209.1 7781.79 1209.16 7780.94 1209.17C7778.37 1209.16 7776.84 1208.11 7776.86 1205.76V1200H7775.29V1197.33H7776.86V1194.54H7780.47V1197.33H7782.59ZM7790.01 1209L7796.37 1196.52V1196.41H7788.93V1193.45H7800.17V1196.43L7793.79 1209H7790.01Z" fill="white"/>
</svg>
